{"glyphs":{"0":{"ha":1034,"x_min":61,"x_max":972,"o":"m 517 977 q 669 958 602 977 q 787 904 736 938 q 873 822 838 869 q 930 719 908 774 q 962 603 952 664 q 972 479 972 541 q 962 355 972 417 q 930 238 952 294 q 872 136 907 183 q 786 54 837 88 q 668 0 735 20 q 517 -20 602 -20 q 365 0 432 -20 q 248 54 298 20 q 161 136 197 88 q 104 238 126 183 q 71 355 81 294 q 61 479 61 417 q 71 603 61 541 q 103 719 81 664 q 161 822 125 774 q 247 904 196 869 q 364 958 297 938 q 517 977 431 977 m 517 760 q 451 737 479 760 q 404 674 423 713 q 375 584 385 635 q 366 478 366 533 q 375 374 366 425 q 404 284 385 323 q 451 221 422 245 q 517 197 479 197 q 583 221 554 197 q 630 284 611 245 q 659 374 649 323 q 668 478 668 425 q 658 584 668 533 q 629 674 648 635 q 582 737 610 713 q 517 760 554 760 z "},"1":{"ha":752,"x_min":142,"x_max":583,"o":"m 583 0 l 294 0 l 294 692 l 142 665 l 142 850 q 241 890 187 865 q 369 959 296 915 l 583 959 l 583 0 z "},"2":{"ha":896,"x_min":100,"x_max":786,"o":"m 410 237 l 777 237 l 777 0 l 135 0 l 100 239 q 170 299 130 268 q 253 365 210 331 q 337 434 296 398 q 411 507 378 469 q 464 585 444 545 q 484 667 484 625 q 472 710 484 692 q 441 739 460 728 q 400 755 423 750 q 355 760 378 760 q 299 755 328 760 q 244 745 271 751 q 195 731 218 739 q 157 716 172 724 l 113 933 q 263 968 189 959 q 403 977 337 977 q 573 954 501 977 q 693 891 646 930 q 763 798 741 851 q 786 687 786 745 q 756 559 786 623 q 674 436 726 495 q 555 326 623 377 q 410 237 486 275 z "},"3":{"ha":880,"x_min":85,"x_max":779,"o":"m 193 586 q 327 592 275 586 q 406 609 378 597 q 444 639 434 621 q 454 681 454 657 q 442 728 454 709 q 411 760 431 748 q 366 778 391 772 q 311 784 340 784 q 255 781 284 784 q 196 771 225 777 q 138 755 166 764 q 85 736 109 747 l 85 920 q 216 963 149 950 q 366 977 283 977 q 505 965 445 977 q 608 935 564 954 q 680 888 651 915 q 726 831 709 862 q 750 766 743 800 q 758 697 758 732 q 740 608 758 645 q 696 548 722 572 q 638 510 669 524 q 581 491 608 497 q 646 473 612 486 q 710 435 681 460 q 760 371 740 410 q 779 274 779 332 q 771 199 779 235 q 745 130 764 162 q 695 70 726 97 q 616 22 663 42 q 504 -8 569 3 q 354 -20 439 -20 q 212 -8 277 -20 q 85 30 146 4 l 85 222 q 137 202 109 211 q 195 187 165 193 q 255 177 225 180 q 311 174 285 174 q 364 180 338 174 q 410 199 390 186 q 442 235 430 213 q 454 288 454 256 q 445 338 454 315 q 409 377 436 361 q 330 403 381 394 q 193 412 279 412 l 193 586 z "},"4":{"ha":925,"x_min":57,"x_max":867,"o":"m 751 412 l 867 412 l 867 195 l 751 195 l 751 0 l 469 0 l 469 195 l 57 195 l 57 412 l 296 959 l 751 959 l 751 412 m 422 760 l 290 412 l 469 412 l 469 760 l 422 760 z "},"5":{"ha":966,"x_min":97,"x_max":892,"o":"m 119 435 l 184 959 l 813 959 l 791 761 l 401 761 l 357 564 q 409 598 380 585 q 466 618 437 611 q 524 627 496 625 q 577 629 553 629 q 694 608 637 629 q 795 546 751 586 q 865 451 839 507 q 892 326 892 395 q 866 183 892 247 q 790 74 840 119 q 666 4 740 28 q 496 -20 592 -20 q 327 2 397 -20 q 208 63 256 24 q 134 154 161 102 q 97 268 107 207 l 379 268 q 396 226 385 243 q 421 197 407 208 q 453 179 436 185 q 489 174 471 174 q 536 182 513 174 q 577 209 559 191 q 607 251 595 226 q 618 308 618 276 q 611 358 618 334 q 589 400 604 382 q 550 430 574 418 q 493 441 526 441 q 456 437 475 441 q 419 427 437 434 q 384 411 400 420 q 356 391 368 402 l 119 435 z "},"6":{"ha":949,"x_min":78,"x_max":881,"o":"m 794 740 q 752 754 776 747 q 700 769 728 762 q 641 780 671 775 q 580 784 610 784 q 500 775 538 784 q 433 741 463 766 q 384 667 404 715 q 360 543 365 620 q 413 562 385 554 q 469 576 440 570 q 525 584 497 581 q 577 586 552 586 q 693 568 638 586 q 790 514 748 549 q 856 425 831 478 q 881 304 881 372 q 874 224 881 264 q 852 149 868 185 q 809 82 836 113 q 742 29 782 52 q 646 -7 701 6 q 517 -20 590 -20 q 356 -1 425 -20 q 239 50 288 17 q 159 129 191 83 q 110 229 128 174 q 85 347 92 284 q 78 476 78 410 q 107 675 78 583 q 196 834 137 767 q 342 939 254 901 q 548 977 431 977 q 674 967 608 977 q 816 933 741 957 l 794 740 m 360 392 q 374 274 360 317 q 409 208 387 231 q 460 180 431 186 q 518 174 488 174 q 571 184 548 174 q 610 211 594 194 q 634 249 626 227 q 642 292 642 270 q 638 331 642 309 q 621 371 635 352 q 579 402 607 390 q 505 415 552 415 q 441 410 477 415 q 360 392 406 404 z "},"7":{"ha":825,"x_min":85,"x_max":768,"o":"m 768 761 l 475 -2 l 150 -2 l 443 761 l 85 761 l 85 959 l 747 959 l 768 761 z "},"8":{"ha":1067,"x_min":78,"x_max":989,"o":"m 924 740 q 885 628 924 680 q 768 544 846 576 q 849 507 809 528 q 920 457 889 486 q 970 390 951 428 q 989 302 989 352 q 981 224 989 263 q 952 149 972 184 q 898 82 932 113 q 813 29 864 52 q 691 -7 762 6 q 529 -20 621 -20 q 334 3 418 -20 q 193 64 250 26 q 107 148 136 101 q 78 243 78 195 q 132 371 78 313 q 295 460 186 429 q 235 505 262 480 q 186 561 207 530 q 155 630 166 592 q 143 715 143 669 q 169 814 143 767 q 243 898 194 862 q 366 956 293 935 q 534 977 439 977 q 702 957 629 977 q 824 902 774 936 q 899 826 873 869 q 924 740 924 783 m 495 379 q 458 391 477 385 q 417 404 438 397 q 375 359 391 384 q 360 302 360 335 q 375 240 360 265 q 414 201 390 216 q 469 180 438 186 q 531 174 499 174 q 588 179 560 174 q 638 197 616 184 q 672 232 659 210 q 686 288 686 254 q 671 316 686 305 q 631 337 656 328 q 570 356 605 347 q 495 379 536 366 m 534 798 q 454 778 484 798 q 425 730 425 759 q 436 682 425 703 q 469 642 447 660 q 523 609 490 625 q 599 579 555 594 q 629 634 616 601 q 642 703 642 667 q 634 738 642 721 q 612 768 626 755 q 577 789 597 781 q 534 798 557 798 z "},"9":{"ha":949,"x_min":78,"x_max":881,"o":"m 165 218 q 207 203 183 211 q 259 189 231 195 q 318 178 288 182 q 379 174 349 174 q 459 182 421 174 q 526 217 496 191 q 575 290 555 243 q 599 415 594 338 q 546 395 574 404 q 490 382 519 387 q 434 374 462 376 q 382 372 407 372 q 266 390 321 372 q 169 444 211 408 q 103 532 127 479 q 78 654 78 585 q 84 733 78 694 q 107 808 91 772 q 150 875 123 844 q 217 929 177 906 q 313 964 258 951 q 442 977 369 977 q 603 959 534 977 q 720 908 671 941 q 800 829 768 875 q 849 728 831 783 q 874 611 867 673 q 881 481 881 548 q 851 282 881 374 q 763 123 822 191 q 616 18 705 56 q 411 -20 528 -20 q 285 -9 351 -20 q 143 24 218 1 l 165 218 m 599 566 q 585 684 599 640 q 550 749 572 727 q 499 778 528 772 q 441 784 471 784 q 388 774 411 784 q 349 747 365 764 q 325 709 333 730 q 317 665 317 688 q 320 627 317 648 q 338 587 324 606 q 379 555 352 568 q 454 543 407 543 q 518 548 482 543 q 599 566 553 553 z "},"\u0000":{"ha":0,"x_min":0,"x_max":0,"o":""},"\u0002":{"ha":0,"x_min":0,"x_max":0,"o":""},"\t":{"ha":0,"x_min":0,"x_max":0,"o":""},"\n":{"ha":0,"x_min":0,"x_max":0,"o":""},"\r":{"ha":0,"x_min":0,"x_max":0,"o":""}," ":{"ha":484,"x_min":0,"x_max":0,"o":""},"!":{"ha":701,"x_min":176,"x_max":524,"o":"m 198 959 l 502 959 l 458 347 l 241 347 l 198 959 m 350 -20 q 273 -8 306 -20 q 219 21 240 3 q 187 61 197 38 q 176 108 176 84 q 188 156 176 132 q 220 198 199 179 q 275 228 242 216 q 350 239 307 239 q 425 228 393 239 q 480 198 458 216 q 513 156 502 180 q 524 109 524 133 q 514 61 524 85 q 481 21 503 38 q 427 -8 460 3 q 350 -20 395 -20 z "},"\"":{"ha":738,"x_min":119,"x_max":618,"o":"m 119 1042 l 336 1042 l 296 662 l 160 662 l 119 1042 m 401 1042 l 618 1042 l 578 662 l 442 662 l 401 1042 z "},"#":{"ha":802,"x_min":86,"x_max":715,"o":"m 164 469 q 122 556 136 509 q 108 651 108 602 q 120 739 108 696 q 156 821 132 782 l 86 895 l 195 999 l 267 922 q 334 946 298 938 q 412 955 370 955 q 480 948 448 955 q 541 929 512 941 l 607 999 l 715 895 l 658 834 q 701 747 686 793 q 715 651 715 700 q 699 548 715 598 q 649 456 682 497 l 715 387 l 607 282 l 526 367 q 412 347 473 347 q 342 354 374 347 q 281 373 310 361 l 195 282 l 86 387 l 164 469 m 281 651 q 288 591 281 619 q 311 543 295 564 q 351 511 326 523 q 412 499 376 499 q 473 511 448 499 q 513 543 498 523 q 535 591 528 564 q 542 651 542 619 q 535 711 542 683 q 513 759 528 739 q 473 791 498 779 q 412 803 448 803 q 351 791 376 803 q 311 759 326 779 q 288 711 295 739 q 281 651 281 683 z "},"$":{"ha":930,"x_min":98,"x_max":844,"o":"m 394 28 q 255 52 325 35 q 121 97 184 68 l 121 322 q 190 291 153 306 q 265 266 227 277 q 343 250 304 256 q 420 243 382 243 q 470 245 446 243 q 513 253 494 247 q 543 269 532 258 q 554 299 554 280 q 543 330 554 315 q 508 360 532 345 q 448 393 485 376 q 360 429 412 410 q 300 458 331 443 q 241 493 270 474 q 186 536 212 513 q 140 589 160 559 q 110 653 121 618 q 98 732 98 688 q 115 817 98 777 q 165 891 131 858 q 252 947 199 924 q 378 979 305 970 l 378 1085 l 540 1085 l 540 983 q 608 976 572 981 q 678 962 643 971 q 746 938 713 952 q 807 905 779 924 l 785 718 q 727 742 758 730 q 662 764 697 754 q 583 780 626 774 q 487 786 540 786 q 422 772 442 786 q 401 736 401 758 q 416 709 401 723 q 455 681 431 694 q 508 654 478 667 q 566 631 537 642 q 624 603 593 618 q 685 567 654 587 q 745 519 716 546 q 796 460 774 493 q 831 385 818 427 q 844 294 844 344 q 827 208 844 250 q 775 129 810 165 q 685 67 740 93 q 555 31 631 41 l 555 -68 l 394 -68 l 394 28 z "},"%":{"ha":1911,"x_min":37,"x_max":1875,"o":"m 381 193 q 267 209 317 193 q 178 252 216 224 q 113 317 140 279 q 70 399 86 355 q 45 491 53 443 q 37 589 37 540 q 45 685 37 637 q 69 776 52 733 q 113 856 86 819 q 177 920 139 893 q 266 962 216 947 q 381 977 317 977 q 543 944 477 977 q 649 856 609 911 q 707 732 690 802 q 725 589 725 662 q 717 491 725 540 q 693 399 709 443 q 649 317 676 355 q 584 252 623 279 q 495 209 546 224 q 381 193 445 193 m 381 354 q 430 374 409 354 q 465 427 451 394 q 486 502 479 460 q 493 588 493 544 q 486 673 493 631 q 465 748 479 715 q 430 801 451 781 q 381 821 409 821 q 332 801 353 821 q 297 748 311 781 q 276 673 283 715 q 269 588 269 631 q 276 502 269 544 q 297 427 283 460 q 332 374 311 394 q 381 354 353 354 m 1531 -20 q 1417 -3 1467 -19 q 1328 40 1367 12 q 1263 105 1290 67 q 1220 186 1236 142 q 1195 279 1203 231 q 1187 377 1187 328 q 1195 473 1187 426 q 1219 564 1202 521 q 1263 644 1236 607 q 1328 708 1289 681 q 1416 750 1366 734 q 1531 765 1467 765 q 1693 732 1628 765 q 1800 644 1759 699 q 1858 519 1840 589 q 1875 377 1875 450 q 1867 279 1875 328 q 1843 186 1860 231 q 1800 105 1826 142 q 1734 40 1773 67 q 1646 -3 1696 12 q 1531 -20 1595 -19 m 1531 142 q 1580 162 1559 142 q 1615 215 1601 182 q 1636 290 1629 248 q 1643 376 1643 332 q 1636 461 1643 419 q 1615 536 1629 503 q 1580 589 1601 569 q 1531 609 1559 609 q 1482 589 1503 609 q 1447 536 1461 569 q 1426 461 1433 503 q 1419 376 1419 419 q 1426 290 1419 332 q 1447 215 1433 248 q 1482 162 1461 182 q 1531 142 1503 142 m 1278 967 l 922 0 l 640 0 l 978 967 l 1278 967 z "},"&":{"ha":1194,"x_min":77,"x_max":1141,"o":"m 901 309 q 905 262 901 285 q 920 223 909 240 q 954 196 932 206 q 1011 186 975 186 q 1062 191 1034 186 q 1125 207 1090 195 l 1141 16 q 1043 -10 1099 0 q 926 -20 988 -20 q 872 -17 901 -20 q 816 -5 844 -14 q 785 9 798 -1 q 761 31 771 18 q 742 57 750 43 q 727 85 734 71 q 627 9 695 37 q 446 -20 559 -20 q 279 2 349 -20 q 164 62 209 24 q 98 151 119 100 q 77 260 77 201 q 93 340 77 299 q 139 415 109 381 q 214 473 170 450 q 315 499 258 496 q 230 530 263 508 q 177 581 196 551 q 150 645 157 610 q 142 716 142 680 q 163 810 142 770 q 217 879 183 850 q 295 927 251 908 q 388 957 340 946 q 485 973 436 968 q 576 977 533 977 q 647 974 606 977 q 729 965 687 970 q 810 951 770 959 q 880 933 850 943 l 836 738 q 706 754 781 749 q 592 760 631 760 q 509 758 547 760 q 441 745 470 755 q 397 714 413 735 q 380 654 380 693 q 383 621 380 635 q 391 595 386 606 q 404 576 396 585 q 420 561 411 568 q 466 537 439 546 q 524 528 492 528 l 626 528 l 626 636 l 901 636 l 901 309 m 635 196 q 632 210 634 199 q 629 242 631 220 q 627 297 628 263 q 626 382 626 332 q 503 377 551 382 q 428 359 455 372 q 391 328 401 347 q 380 282 380 309 q 387 245 380 264 q 409 210 393 226 q 449 184 424 194 q 511 174 473 174 q 566 179 535 174 q 635 196 597 184 z "},"'":{"ha":456,"x_min":119,"x_max":336,"o":"m 119 1041 l 336 1041 l 296 635 l 160 635 l 119 1041 z "},"(":{"ha":644,"x_min":109,"x_max":543,"o":"m 109 482 q 121 615 109 551 q 159 737 134 680 q 222 843 184 795 q 307 925 259 890 q 414 979 355 960 q 543 998 473 998 l 543 825 q 484 795 512 825 q 436 717 456 766 q 403 607 415 669 q 391 482 391 546 q 403 360 391 420 q 436 254 415 300 q 484 180 456 208 q 543 152 512 152 l 543 -22 q 414 -3 473 -22 q 307 49 355 16 q 222 129 259 83 q 159 232 184 176 q 121 351 134 288 q 109 482 109 415 z "},")":{"ha":644,"x_min":102,"x_max":536,"o":"m 536 482 q 523 351 536 415 q 485 232 510 288 q 422 129 460 176 q 337 49 385 83 q 230 -3 289 16 q 102 -22 171 -22 l 102 152 q 160 180 132 152 q 209 254 188 208 q 241 360 229 300 q 254 482 254 420 q 241 607 254 546 q 209 717 229 669 q 160 795 188 766 q 102 825 132 825 l 102 998 q 230 979 171 998 q 337 925 289 960 q 422 843 385 890 q 485 737 460 795 q 523 615 510 680 q 536 482 536 550 z "},"*":{"ha":704,"x_min":26,"x_max":677,"o":"m 265 321 l 134 383 l 237 587 l 26 587 l 26 736 l 237 736 l 134 952 l 265 1015 l 352 813 l 439 1015 l 570 952 l 467 748 l 677 748 l 677 599 l 467 599 l 570 383 l 439 321 l 352 522 l 265 321 z "},"+":{"ha":788,"x_min":134,"x_max":654,"o":"m 286 369 l 134 369 l 134 564 l 286 564 l 286 738 l 503 738 l 503 564 l 654 564 l 654 369 l 503 369 l 503 195 l 286 195 l 286 369 z "},",":{"ha":564,"x_min":66,"x_max":435,"o":"m 269 3 q 191 -22 224 -22 q 142 -10 165 -22 q 102 21 119 1 q 76 66 85 40 q 66 119 66 92 q 78 177 66 148 q 112 230 89 206 q 169 268 134 253 q 249 282 203 282 q 389 227 342 282 q 435 66 435 172 q 410 -74 435 -19 q 345 -161 385 -130 q 254 -205 304 -193 q 153 -217 204 -217 l 88 -217 l 88 -87 q 188 -81 151 -87 q 242 -65 224 -76 q 265 -37 260 -54 q 269 3 269 -20 z "},"-":{"ha":679,"x_min":68,"x_max":610,"o":"m 610 564 l 610 347 l 68 347 l 68 564 l 610 564 z "},".":{"ha":627,"x_min":138,"x_max":488,"o":"m 309 -20 q 233 -7 263 -20 q 182 27 203 6 q 150 76 161 49 q 138 132 138 104 q 150 186 138 159 q 183 235 161 214 q 235 271 205 257 q 309 284 265 284 q 387 271 355 284 q 441 235 418 257 q 476 187 464 214 q 488 133 488 160 q 476 76 488 104 q 443 27 465 49 q 388 -7 420 6 q 309 -20 356 -20 z "},"/":{"ha":507,"x_min":0,"x_max":586,"o":"m 586 977 l 304 -20 l 0 -20 l 260 977 l 586 977 z "},":":{"ha":630,"x_min":142,"x_max":489,"o":"m 315 0 q 238 14 271 0 q 184 52 205 28 q 152 103 163 75 q 142 162 142 132 q 153 222 142 193 q 186 274 164 251 q 240 306 208 297 q 315 315 273 315 q 391 306 358 315 q 445 274 423 297 q 478 222 467 252 q 489 162 489 193 q 478 103 489 132 q 446 52 467 75 q 392 14 425 28 q 315 0 359 0 m 315 468 q 238 477 271 468 q 184 510 205 486 q 152 561 163 532 q 142 621 142 590 q 153 681 142 651 q 186 733 164 710 q 240 770 208 755 q 315 784 273 784 q 391 770 358 784 q 445 733 423 755 q 478 681 467 710 q 489 621 489 651 q 478 562 489 590 q 446 510 467 534 q 391 477 424 487 q 315 468 359 468 z "},";":{"ha":589,"x_min":79,"x_max":448,"o":"m 253 463 q 176 477 209 464 q 122 512 143 491 q 90 562 100 534 q 79 621 79 590 q 91 681 79 651 q 123 733 102 710 q 178 770 145 755 q 253 784 210 784 q 328 770 296 784 q 382 733 361 755 q 415 681 404 710 q 427 621 427 651 q 416 562 427 590 q 384 512 405 534 q 329 477 362 491 q 253 463 296 464 m 275 0 q 204 -20 239 -22 q 155 -10 178 -22 q 115 21 132 1 q 89 66 98 40 q 79 119 79 92 q 91 177 79 149 q 124 227 102 205 q 181 263 147 249 q 262 277 216 277 q 401 224 355 277 q 448 66 448 172 q 423 -74 448 -19 q 358 -161 398 -130 q 267 -205 317 -193 q 166 -217 217 -217 l 101 -217 l 101 -87 q 183 -82 150 -87 q 237 -66 216 -77 q 266 -39 257 -56 q 275 0 275 -23 z "},"<":{"ha":745,"x_min":134,"x_max":611,"o":"m 134 694 l 611 868 l 611 651 l 264 564 l 611 477 l 611 260 l 134 434 l 134 694 z "},"=":{"ha":745,"x_min":134,"x_max":611,"o":"m 611 352 l 611 178 l 134 178 l 134 352 l 611 352 m 611 629 l 611 456 l 134 456 l 134 629 l 611 629 z "},">":{"ha":738,"x_min":134,"x_max":604,"o":"m 604 434 l 134 260 l 134 477 l 481 564 l 134 651 l 134 868 l 604 694 l 604 434 z "},"?":{"ha":906,"x_min":100,"x_max":793,"o":"m 222 522 q 348 538 296 528 q 436 559 401 547 q 492 586 471 572 q 524 616 513 600 q 538 649 535 632 q 541 685 541 667 q 532 729 541 709 q 507 764 523 749 q 470 786 491 778 q 426 793 449 793 q 389 787 407 793 q 357 768 371 781 q 334 736 342 755 q 324 692 325 718 l 100 692 q 122 805 100 753 q 188 896 144 858 q 297 956 232 934 q 446 977 361 977 q 604 954 538 977 q 711 890 669 930 q 773 799 753 850 q 793 692 793 747 q 772 594 793 642 q 711 507 752 547 q 610 441 671 468 q 467 406 549 414 l 467 304 l 242 304 l 222 522 m 368 -20 q 301 -9 330 -20 q 253 19 272 1 q 224 58 234 36 q 215 104 215 81 q 225 149 215 127 q 254 189 235 172 q 302 217 273 206 q 368 227 331 227 q 434 217 406 227 q 483 189 463 206 q 512 150 502 172 q 522 104 522 127 q 512 58 522 81 q 484 19 503 36 q 436 -9 465 1 q 368 -20 408 -20 z "},"@":{"ha":1670,"x_min":83,"x_max":1527,"o":"m 1207 185 q 1260 241 1244 185 q 1276 409 1276 296 q 1249 564 1276 494 q 1168 682 1222 633 q 1034 758 1114 731 q 846 784 954 784 q 653 762 744 784 q 495 692 563 740 q 388 569 427 644 q 349 386 349 493 q 387 196 349 273 q 501 73 426 120 q 686 5 576 26 q 941 -20 797 -17 l 962 -128 q 885 -144 932 -138 q 771 -149 838 -149 q 541 -128 637 -149 q 340 -53 426 -104 q 197 66 254 -2 q 112 217 140 135 q 83 384 83 298 q 113 577 83 492 q 193 729 142 663 q 315 842 244 795 q 470 919 386 889 q 646 963 553 949 q 836 977 739 977 q 1009 964 924 977 q 1171 926 1095 952 q 1313 858 1248 899 q 1426 757 1378 816 q 1500 620 1473 698 q 1527 445 1527 543 q 1518 342 1527 393 q 1491 247 1509 292 q 1445 164 1472 202 q 1380 98 1417 126 q 1296 55 1343 71 q 1192 39 1249 39 q 1112 49 1147 39 q 1046 78 1076 59 q 994 126 1017 98 q 952 194 971 155 q 925 158 942 174 q 884 129 907 141 q 833 109 861 116 q 774 102 805 102 q 640 125 699 102 q 541 189 581 149 q 480 282 501 229 q 460 395 460 336 q 479 495 460 447 q 534 581 498 544 q 621 640 570 618 q 734 663 671 663 q 920 558 861 663 l 941 630 l 1080 630 l 1135 549 l 1135 269 q 1143 223 1135 239 q 1162 198 1151 206 q 1186 187 1173 189 q 1207 185 1198 185 m 920 475 q 826 515 867 515 q 761 505 787 515 q 719 477 735 494 q 696 439 703 460 q 690 395 690 417 q 700 345 690 368 q 728 306 710 322 q 769 279 745 289 q 819 269 793 269 q 920 290 873 269 l 920 475 z "},"A":{"ha":946,"x_min":7,"x_max":939,"o":"m 939 0 l 577 0 l 532 204 l 294 204 l 252 0 l 7 0 l 251 959 l 675 959 l 939 0 m 416 810 l 323 363 l 517 363 l 437 810 l 416 810 z "},"B":{"ha":1050,"x_min":115,"x_max":962,"o":"m 115 959 l 438 959 q 531 956 480 959 q 632 944 581 953 q 730 918 683 935 q 815 874 778 901 q 874 809 852 848 q 896 716 896 770 q 888 653 896 684 q 862 595 881 621 q 809 549 842 568 q 723 521 775 529 q 824 495 780 517 q 899 438 869 472 q 946 363 930 404 q 962 282 962 322 q 940 178 962 229 q 867 88 918 127 q 732 24 816 48 q 523 0 648 0 l 115 0 l 115 959 m 419 174 l 542 174 q 629 204 600 174 q 658 282 658 234 q 648 331 658 311 q 612 365 638 351 q 539 384 585 378 q 419 391 492 391 l 419 174 m 514 564 q 572 573 546 564 q 618 597 599 583 q 647 632 637 612 q 658 673 658 652 q 645 726 658 705 q 604 760 632 747 q 530 777 575 772 q 419 781 484 781 l 419 564 l 514 564 z "},"C":{"ha":968,"x_min":62,"x_max":886,"o":"m 62 477 q 104 686 62 593 q 217 843 146 779 q 382 943 288 908 q 583 977 477 977 q 733 963 656 977 q 886 911 810 949 l 844 694 q 726 743 784 727 q 618 760 667 760 q 513 740 559 760 q 433 684 466 721 q 384 595 401 648 q 366 477 366 543 q 384 359 366 412 q 433 271 401 307 q 513 215 466 234 q 618 195 559 195 q 726 212 667 195 q 844 260 784 228 l 886 43 q 733 -6 810 7 q 583 -20 656 -20 q 382 15 477 -20 q 217 113 288 49 q 104 269 146 177 q 62 477 62 361 z "},"D":{"ha":1044,"x_min":115,"x_max":978,"o":"m 115 0 l 115 959 l 449 959 q 671 930 572 959 q 837 843 769 901 q 942 695 905 784 q 978 488 978 607 q 959 325 978 397 q 906 199 941 254 q 824 107 872 145 q 716 46 775 70 q 589 11 657 22 q 446 0 521 0 l 115 0 m 419 217 l 439 217 q 536 227 492 217 q 610 266 579 237 q 657 348 641 295 q 674 488 674 401 q 659 619 674 566 q 615 703 644 671 q 543 748 586 734 q 446 761 500 761 l 419 761 l 419 217 z "},"E":{"ha":895,"x_min":116,"x_max":789,"o":"m 116 959 l 789 959 l 789 781 l 420 781 l 420 578 l 745 578 l 745 405 l 420 405 l 420 195 l 789 195 l 789 0 l 116 0 l 116 959 z "},"F":{"ha":814,"x_min":116,"x_max":772,"o":"m 116 959 l 772 959 l 772 781 l 420 781 l 420 576 l 729 576 l 729 381 l 420 381 l 420 0 l 116 0 l 116 959 z "},"G":{"ha":1050,"x_min":63,"x_max":957,"o":"m 588 -20 q 446 -3 513 -20 q 319 45 378 14 q 214 121 261 76 q 133 222 167 165 q 81 345 100 278 q 63 486 63 411 q 107 687 63 596 q 229 842 151 777 q 415 942 307 907 q 653 977 524 977 q 801 967 723 977 q 957 933 879 956 l 913 716 q 786 751 844 741 q 675 761 728 761 q 547 741 604 761 q 450 685 490 721 q 388 598 410 649 q 367 485 367 547 q 381 363 367 416 q 425 272 395 309 q 501 215 455 235 q 610 195 547 195 l 696 195 l 696 394 l 545 374 l 545 543 l 957 543 l 957 84 q 860 34 907 54 q 768 2 813 14 q 678 -15 722 -9 q 588 -20 633 -20 z "},"H":{"ha":1122,"x_min":116,"x_max":1006,"o":"m 116 959 l 420 959 l 420 586 l 702 586 l 702 959 l 1006 959 l 1006 0 l 702 0 l 702 391 l 420 391 l 420 0 l 116 0 l 116 959 z "},"I":{"ha":536,"x_min":116,"x_max":420,"o":"m 116 959 l 420 959 l 420 0 l 116 0 l 116 959 z "},"J":{"ha":674,"x_min":16,"x_max":558,"o":"m 233 -20 q 114 -11 171 -20 q 16 24 56 -2 l 16 217 q 100 199 61 203 q 168 195 139 195 q 215 208 198 195 q 241 240 233 220 q 252 284 250 260 q 254 334 254 309 l 254 959 l 558 959 l 558 291 q 530 151 558 210 q 455 54 501 92 q 351 -2 410 16 q 233 -20 292 -20 z "},"K":{"ha":960,"x_min":115,"x_max":991,"o":"m 419 406 l 419 0 l 115 0 l 115 959 l 419 959 l 419 536 l 636 959 l 991 959 l 716 499 l 991 0 l 636 0 l 441 452 l 419 406 z "},"L":{"ha":780,"x_min":115,"x_max":745,"o":"m 115 959 l 419 959 l 419 195 l 745 195 l 745 0 l 115 0 l 115 959 z "},"M":{"ha":1280,"x_min":115,"x_max":1164,"o":"m 115 959 l 397 959 l 636 586 l 875 959 l 1164 959 l 1164 0 l 853 0 l 853 521 l 629 142 l 564 142 l 332 521 l 332 0 l 115 0 l 115 959 z "},"N":{"ha":1122,"x_min":115,"x_max":1006,"o":"m 115 959 l 409 959 l 774 477 l 774 959 l 1006 959 l 1006 0 l 705 0 l 345 510 l 345 0 l 115 0 l 115 959 z "},"O":{"ha":1080,"x_min":62,"x_max":1017,"o":"m 539 -20 q 380 0 450 -20 q 257 53 311 19 q 167 135 204 87 q 107 237 130 182 q 73 353 83 292 q 62 477 62 414 q 75 601 62 540 q 114 718 88 663 q 179 821 140 774 q 271 903 218 869 q 391 958 324 938 q 539 977 458 977 q 687 958 621 977 q 807 903 754 938 q 900 821 861 869 q 965 718 939 774 q 1004 601 991 663 q 1017 477 1017 540 q 1006 353 1017 414 q 972 237 996 292 q 911 135 949 182 q 821 53 874 87 q 698 0 768 19 q 539 -20 628 -20 m 366 477 q 378 338 366 396 q 412 244 390 281 q 466 191 434 208 q 539 174 498 174 q 612 191 580 174 q 667 244 644 208 q 702 338 690 281 q 713 477 713 396 q 702 617 713 559 q 667 712 690 675 q 612 766 644 749 q 539 784 580 784 q 466 766 498 784 q 412 712 434 749 q 378 617 390 675 q 366 477 366 559 z "},"P":{"ha":1018,"x_min":115,"x_max":966,"o":"m 115 959 l 486 959 q 655 947 582 959 q 781 913 728 935 q 870 861 835 892 q 927 794 906 831 q 958 717 949 758 q 966 631 966 675 q 958 557 966 594 q 929 486 949 519 q 876 422 909 452 q 794 372 843 393 q 680 338 746 350 q 528 326 614 326 q 497 326 515 326 q 461 328 479 326 l 419 330 l 419 0 l 115 0 l 115 959 m 419 477 l 489 477 q 571 489 538 477 q 625 522 604 501 q 654 570 645 542 q 663 629 663 597 q 650 713 663 680 q 613 767 637 747 q 558 795 590 787 q 489 803 526 803 l 419 803 l 419 477 z "},"Q":{"ha":1081,"x_min":62,"x_max":1017,"o":"m 816 -328 q 704 -279 756 -305 q 607 -217 652 -253 q 526 -133 562 -182 q 460 -15 489 -84 q 328 17 387 -7 q 226 76 270 41 q 151 157 182 111 q 100 254 119 202 q 71 362 80 306 q 62 477 62 419 q 75 601 62 540 q 114 718 88 663 q 179 821 140 774 q 271 903 218 869 q 391 958 324 938 q 539 977 458 977 q 687 958 621 977 q 807 903 754 938 q 900 821 861 869 q 965 718 939 774 q 1004 601 991 663 q 1017 477 1017 540 q 1000 322 1017 398 q 944 181 983 245 q 844 69 906 117 q 692 -1 782 21 q 726 -46 703 -24 q 782 -87 750 -68 q 852 -120 814 -106 q 928 -141 890 -134 l 816 -328 m 366 477 q 378 338 366 396 q 412 244 390 281 q 466 191 434 208 q 539 174 498 174 q 612 191 580 174 q 667 244 644 208 q 702 338 690 281 q 713 477 713 396 q 702 617 713 559 q 667 712 690 675 q 612 766 644 749 q 539 784 580 784 q 466 766 498 784 q 412 712 434 749 q 378 617 390 675 q 366 477 366 559 z "},"R":{"ha":987,"x_min":115,"x_max":962,"o":"m 115 959 l 547 959 q 727 932 649 959 q 857 862 805 905 q 935 763 909 818 q 962 651 962 707 q 953 564 962 607 q 922 483 944 521 q 860 413 899 444 q 761 363 821 382 q 791 293 770 335 q 840 202 812 251 q 899 101 867 153 q 962 0 931 49 l 614 0 q 555 148 585 66 q 506 326 524 229 l 419 326 l 419 0 l 115 0 l 115 959 m 471 477 q 558 491 522 477 q 616 526 593 505 q 648 575 638 548 q 658 629 658 602 q 643 717 658 683 q 602 770 628 751 q 543 796 576 789 q 470 803 509 803 l 419 803 l 419 477 l 471 477 z "},"S":{"ha":945,"x_min":90,"x_max":853,"o":"m 800 710 q 735 735 772 722 q 657 758 698 747 q 576 774 617 768 q 498 781 534 781 q 398 764 434 781 q 362 709 362 748 q 375 677 362 691 q 410 651 387 663 q 466 628 433 640 q 537 605 498 617 l 587 589 q 699 544 649 570 q 782 480 748 517 q 835 397 817 444 q 853 291 853 351 q 831 164 853 221 q 762 66 809 106 q 643 3 715 25 q 467 -20 570 -20 q 287 -5 376 -20 q 105 47 197 10 l 105 271 q 275 206 193 227 q 437 185 357 185 q 533 206 503 185 q 564 264 564 227 q 552 303 564 287 q 516 332 541 319 q 452 360 492 346 q 355 391 412 374 q 249 434 298 408 q 165 496 201 460 q 110 581 130 532 q 90 690 90 629 q 113 807 90 754 q 181 898 135 860 q 298 956 227 935 q 467 977 369 977 q 549 974 505 977 q 637 964 592 970 q 726 946 682 957 q 810 920 770 935 l 800 710 z "},"T":{"ha":757,"x_min":7,"x_max":749,"o":"m 224 0 l 224 738 l 7 738 l 7 959 l 749 959 l 749 738 l 528 738 l 528 0 l 224 0 z "},"U":{"ha":1071,"x_min":115,"x_max":955,"o":"m 549 -20 q 368 10 448 -20 q 231 99 288 39 q 145 248 175 158 q 115 457 115 337 l 115 959 l 419 959 l 419 456 q 426 336 419 389 q 449 248 433 284 q 492 193 465 212 q 560 174 519 174 q 632 193 605 174 q 675 248 660 212 q 696 336 690 284 q 701 456 701 389 l 701 959 l 955 959 l 955 457 q 931 247 955 336 q 858 98 907 157 q 731 9 808 39 q 549 -20 655 -20 z "},"V":{"ha":925,"x_min":7,"x_max":918,"o":"m 7 959 l 376 959 l 515 243 l 680 959 l 918 959 l 659 0 l 245 0 l 7 959 z "},"W":{"ha":1398,"x_min":48,"x_max":1350,"o":"m 721 543 l 623 0 l 222 0 l 48 959 l 391 959 l 487 190 l 606 959 l 895 959 l 1011 189 l 1112 959 l 1350 959 l 1198 0 l 829 0 l 721 543 z "},"X":{"ha":984,"x_min":25,"x_max":958,"o":"m 720 477 l 958 0 l 589 0 l 467 361 l 303 0 l 25 0 l 264 477 l 25 959 l 394 959 l 541 619 l 698 959 l 958 959 l 720 477 z "},"Y":{"ha":838,"x_min":-16,"x_max":852,"o":"m 281 0 l 281 330 l -16 959 l 333 959 l 450 614 l 557 959 l 852 959 l 585 338 l 585 0 l 281 0 z "},"Z":{"ha":722,"x_min":57,"x_max":665,"o":"m 665 959 l 665 738 l 382 217 l 656 217 l 656 0 l 57 0 l 57 215 l 385 738 l 66 738 l 66 959 l 665 959 z "},"[":{"ha":684,"x_min":122,"x_max":597,"o":"m 122 977 l 597 977 l 597 781 l 415 781 l 415 196 l 597 196 l 597 0 l 122 0 l 122 977 z "},"\\":{"ha":578,"x_min":0,"x_max":578,"o":"m 306 977 l 578 0 l 273 0 l 0 977 l 306 977 z "},"]":{"ha":684,"x_min":100,"x_max":575,"o":"m 575 0 l 100 0 l 100 196 l 282 196 l 282 781 l 100 781 l 100 977 l 575 977 l 575 0 z "},"^":{"ha":933,"x_min":127,"x_max":806,"o":"m 127 347 l 331 814 l 602 814 l 806 347 l 572 347 l 467 678 l 364 347 l 127 347 z "},"_":{"ha":678,"x_min":0,"x_max":678,"o":"m 678 0 l 678 -149 l 0 -149 l 0 0 l 678 0 z "},"`":{"ha":817,"x_min":224,"x_max":593,"o":"m 397 827 l 224 1257 l 528 1257 l 593 827 l 397 827 z "},"a":{"ha":924,"x_min":62,"x_max":833,"o":"m 282 -20 q 199 -7 239 -20 q 129 30 159 5 q 80 93 98 55 q 62 184 62 132 q 79 271 62 234 q 122 334 95 308 q 187 378 150 361 q 265 405 224 395 q 350 419 307 415 q 435 422 394 422 q 490 421 464 422 q 540 418 517 420 q 524 489 538 460 q 484 533 509 517 q 427 557 460 550 q 359 564 395 564 q 291 559 326 564 q 222 548 256 555 q 159 534 189 542 q 106 521 129 527 l 106 711 q 177 725 139 718 q 257 738 216 732 q 341 747 298 743 q 427 750 385 750 q 529 744 479 750 q 625 722 580 737 q 708 682 670 707 q 774 620 747 657 q 817 533 802 583 q 833 417 833 483 l 833 0 l 553 0 l 553 121 q 508 62 537 88 q 442 18 479 36 q 364 -10 406 -1 q 282 -20 323 -20 m 397 140 q 440 150 416 140 q 487 182 465 161 q 525 237 509 204 q 540 317 540 271 l 517 317 q 451 310 485 317 q 388 290 416 303 q 341 256 359 276 q 323 211 323 237 q 330 177 323 191 q 347 155 336 163 q 371 143 357 146 q 397 140 384 140 z "},"b":{"ha":1030,"x_min":106,"x_max":973,"o":"m 643 -20 q 570 -10 606 -20 q 502 17 534 -1 q 444 61 470 35 q 399 121 417 87 l 399 0 l 106 0 l 106 1042 l 399 1042 l 399 631 q 441 679 414 657 q 503 716 469 701 q 575 741 536 732 q 652 750 614 750 q 771 730 713 750 q 873 664 829 709 q 946 544 918 618 q 973 365 973 471 q 946 192 973 264 q 874 72 920 119 q 769 3 829 25 q 643 -20 709 -20 m 680 364 q 668 457 680 420 q 635 518 656 495 q 590 551 615 541 q 538 561 564 561 q 487 551 511 561 q 442 518 462 541 q 411 457 422 495 q 399 365 399 420 q 411 272 399 309 q 442 211 422 234 q 487 179 462 189 q 538 169 512 169 q 590 179 565 169 q 636 211 616 189 q 668 271 656 234 q 680 364 680 309 z "},"c":{"ha":823,"x_min":54,"x_max":738,"o":"m 347 365 q 359 279 347 315 q 393 218 371 242 q 445 182 414 194 q 513 170 475 170 q 606 183 562 170 q 694 220 649 197 l 738 43 q 673 16 708 28 q 602 -4 639 4 q 528 -16 566 -12 q 454 -20 490 -20 q 300 3 372 -20 q 173 74 227 26 q 86 194 118 121 q 54 366 54 267 q 86 537 54 465 q 173 657 118 610 q 300 728 227 705 q 454 751 372 751 q 528 747 490 751 q 602 735 566 743 q 673 715 639 727 q 738 688 708 703 l 694 511 q 606 548 649 534 q 513 561 562 561 q 445 549 475 561 q 393 513 414 537 q 359 451 371 488 q 347 365 347 414 z "},"d":{"ha":1030,"x_min":57,"x_max":924,"o":"m 387 -20 q 261 3 321 -20 q 156 72 201 25 q 84 192 111 119 q 57 365 57 264 q 84 544 57 471 q 157 664 112 618 q 259 730 201 709 q 378 750 317 750 q 455 741 416 750 q 528 716 494 732 q 589 679 562 701 q 631 631 616 657 l 631 1042 l 924 1042 l 924 0 l 631 0 l 631 121 q 587 61 613 87 q 528 17 560 35 q 460 -10 496 -1 q 387 -20 424 -20 m 350 364 q 362 271 350 309 q 394 211 374 234 q 440 179 414 189 q 492 169 465 169 q 543 179 518 169 q 588 211 568 189 q 620 272 608 234 q 631 365 631 309 q 620 457 631 420 q 588 518 608 495 q 544 551 568 541 q 492 561 519 561 q 440 551 466 561 q 395 518 415 541 q 362 457 374 495 q 350 364 350 420 z "},"e":{"ha":880,"x_min":54,"x_max":806,"o":"m 784 29 q 646 -6 720 8 q 492 -20 572 -20 q 326 3 405 -20 q 186 75 246 26 q 90 199 125 124 q 54 378 54 274 q 73 487 54 437 q 122 579 91 538 q 196 652 154 621 q 287 706 239 684 q 387 739 336 728 q 488 750 439 750 q 626 733 566 750 q 725 686 686 715 q 785 618 765 657 q 806 536 806 580 q 788 446 806 484 q 740 384 770 409 q 670 343 709 358 q 586 321 630 329 q 496 311 542 313 q 409 309 450 309 q 381 310 395 309 q 355 310 368 310 q 377 245 361 271 q 417 202 393 218 q 472 178 441 185 q 540 171 504 171 q 598 175 567 171 q 660 186 629 179 q 723 202 692 193 q 784 222 755 212 l 784 29 m 349 414 q 391 416 366 415 q 445 421 416 418 q 502 431 473 425 q 553 446 530 437 q 591 470 576 456 q 605 505 605 484 q 577 560 605 539 q 501 581 550 581 q 453 574 479 581 q 405 549 427 568 q 367 498 382 531 q 349 414 351 466 z "},"f":{"ha":650,"x_min":25,"x_max":663,"o":"m 435 0 l 142 0 l 142 561 l 25 561 l 25 732 l 140 732 q 163 877 140 815 q 227 981 185 939 q 327 1043 268 1022 q 458 1063 385 1063 q 569 1050 518 1063 q 663 1020 620 1038 l 641 846 q 575 862 602 855 q 525 868 549 868 q 476 857 494 868 q 449 826 458 845 q 437 782 439 807 q 435 732 435 758 l 640 732 q 625 646 630 687 q 619 561 619 604 l 435 561 l 435 0 z "},"g":{"ha":1011,"x_min":57,"x_max":905,"o":"m 612 126 q 524 33 583 66 q 386 0 464 0 q 240 31 302 0 q 138 113 178 62 q 77 230 97 164 q 57 365 57 296 q 78 505 57 436 q 139 628 98 574 q 239 716 179 683 q 376 750 298 750 q 466 739 427 750 q 536 706 506 727 q 589 655 567 684 q 628 589 612 625 q 627 614 628 595 q 623 655 625 633 q 618 699 621 677 q 612 732 615 720 l 905 732 l 905 157 q 875 -56 905 35 q 789 -207 845 -146 q 651 -296 732 -267 q 467 -326 569 -326 q 393 -323 425 -326 q 332 -317 361 -321 q 273 -307 302 -313 q 208 -293 243 -301 l 229 -122 q 272 -132 248 -127 q 322 -141 296 -137 q 375 -147 348 -144 q 427 -149 402 -149 q 521 -127 485 -149 q 577 -66 557 -104 q 605 21 597 -28 q 612 126 612 71 m 330 364 q 342 271 330 309 q 375 211 355 234 q 420 179 395 189 q 472 169 446 169 q 524 179 498 169 q 568 211 549 189 q 600 272 588 234 q 612 365 612 309 q 600 457 612 420 q 568 518 588 495 q 524 551 549 541 q 473 561 499 561 q 421 551 446 561 q 375 518 395 541 q 342 457 355 495 q 330 364 330 420 z "},"h":{"ha":1007,"x_min":106,"x_max":909,"o":"m 106 1042 l 399 1042 l 399 631 q 448 680 418 658 q 513 717 477 701 q 589 742 549 733 q 669 750 629 750 q 763 734 719 750 q 839 683 806 718 q 890 592 871 648 q 909 459 909 537 l 909 0 l 616 0 l 616 387 q 607 471 616 437 q 585 526 599 505 q 554 555 572 547 q 519 564 537 564 q 479 556 499 564 q 443 534 459 548 q 414 500 426 519 q 399 456 403 480 l 399 0 l 106 0 l 106 1042 z "},"i":{"ha":516,"x_min":72,"x_max":444,"o":"m 110 732 l 403 732 l 403 0 l 110 0 l 110 732 m 257 882 q 184 890 218 882 q 126 913 151 899 q 86 947 101 927 q 72 992 72 968 q 86 1040 72 1019 q 125 1074 100 1061 q 184 1095 151 1088 q 258 1101 218 1101 q 331 1095 297 1101 q 391 1074 366 1088 q 430 1040 416 1061 q 444 992 444 1019 q 430 947 444 968 q 390 913 415 927 q 331 890 365 899 q 257 882 296 882 z "},"j":{"ha":527,"x_min":-56,"x_max":455,"o":"m 139 -282 q 36 -279 85 -282 q -56 -260 -14 -276 l -56 -66 q -24 -76 -37 -72 q 0 -82 -11 -80 q 20 -86 11 -85 q 41 -87 30 -87 q 87 -76 70 -87 q 114 -46 104 -64 q 125 -4 123 -28 q 128 45 128 20 l 128 732 l 421 732 l 421 30 q 398 -120 421 -60 q 337 -216 376 -180 q 247 -267 298 -252 q 139 -282 196 -282 m 268 894 q 195 902 229 894 q 137 924 161 910 q 97 959 112 939 q 83 1004 83 979 q 97 1052 83 1031 q 136 1086 111 1072 q 195 1106 161 1099 q 269 1113 229 1113 q 342 1106 308 1113 q 401 1086 376 1099 q 441 1052 427 1072 q 455 1004 455 1031 q 440 959 455 979 q 401 924 426 939 q 341 902 376 910 q 268 894 307 894 z "},"k":{"ha":953,"x_min":106,"x_max":981,"o":"m 667 732 l 968 732 l 689 387 l 981 0 l 642 0 l 422 345 l 399 321 l 399 0 l 106 0 l 106 1042 l 399 1042 l 399 406 l 667 732 z "},"l":{"ha":505,"x_min":106,"x_max":399,"o":"m 106 1042 l 399 1042 l 399 0 l 106 0 l 106 1042 z "},"m":{"ha":1550,"x_min":104,"x_max":1450,"o":"m 104 732 l 401 732 q 391 695 395 712 q 385 663 387 679 q 381 630 382 646 q 380 594 380 613 q 428 653 399 625 q 493 703 457 682 q 571 737 530 724 q 654 750 612 750 q 719 741 687 750 q 781 712 751 731 q 834 665 810 693 q 876 600 859 637 q 931 660 897 633 q 1005 708 964 688 q 1092 739 1046 728 q 1183 750 1137 750 q 1307 729 1256 750 q 1390 669 1358 708 q 1436 576 1421 631 q 1450 456 1450 522 l 1450 0 l 1157 0 l 1157 414 q 1153 459 1157 433 q 1136 507 1148 484 q 1102 545 1124 530 q 1046 561 1081 561 q 1002 549 1023 561 q 964 519 981 538 q 939 475 948 500 q 929 425 929 451 l 929 0 l 636 0 l 636 414 q 631 468 636 441 q 614 515 626 494 q 581 548 602 536 q 528 561 559 561 q 482 552 505 561 q 440 529 458 544 q 409 494 421 515 q 397 450 397 474 l 397 0 l 104 0 l 104 732 z "},"n":{"ha":1066,"x_min":106,"x_max":968,"o":"m 106 732 l 399 732 q 391 672 395 709 q 387 597 387 636 q 445 660 410 632 q 522 708 479 688 q 611 739 564 728 q 706 750 658 750 q 806 734 759 750 q 890 684 854 718 q 947 594 926 649 q 968 460 968 538 l 968 0 l 675 0 l 675 417 q 666 487 675 459 q 642 531 657 515 q 605 554 626 547 q 558 561 583 561 q 505 552 531 561 q 456 527 478 543 q 419 490 435 511 q 399 446 404 469 l 399 0 l 106 0 l 106 732 z "},"o":{"ha":955,"x_min":54,"x_max":901,"o":"m 477 -20 q 335 -5 397 -20 q 226 37 273 10 q 146 99 179 63 q 93 178 113 136 q 63 269 73 221 q 54 365 54 316 q 63 460 54 413 q 93 550 73 507 q 146 630 113 593 q 225 693 178 666 q 335 735 273 720 q 477 750 397 750 q 620 735 557 750 q 729 693 682 720 q 809 630 777 666 q 862 550 842 593 q 891 460 882 507 q 901 365 901 413 q 891 269 901 316 q 862 178 882 221 q 809 99 842 136 q 729 37 776 63 q 620 -5 682 10 q 477 -20 557 -20 m 347 365 q 354 293 347 328 q 376 231 361 258 q 416 187 391 203 q 477 170 441 170 q 539 187 514 170 q 579 231 564 203 q 601 293 594 258 q 608 365 608 328 q 601 436 608 401 q 579 499 594 471 q 539 543 564 526 q 477 560 514 560 q 416 543 441 560 q 376 499 391 526 q 354 436 361 471 q 347 365 347 401 z "},"p":{"ha":1009,"x_min":106,"x_max":952,"o":"m 106 732 l 404 732 q 388 664 393 695 q 384 597 384 632 q 433 659 403 631 q 500 707 464 686 q 577 739 537 727 q 656 750 618 750 q 767 728 713 750 q 862 661 821 707 q 927 545 903 616 q 952 376 952 474 q 925 191 952 267 q 853 68 897 115 q 754 1 809 22 q 643 -20 699 -20 q 565 -11 603 -20 q 495 13 528 -3 q 438 48 463 28 q 399 94 413 69 l 399 -293 l 106 -293 l 106 732 m 399 364 q 411 271 399 309 q 443 211 423 234 q 489 179 463 189 q 541 169 514 169 q 592 179 567 169 q 637 211 617 189 q 668 272 656 234 q 680 365 680 309 q 668 457 680 420 q 637 518 656 495 q 592 551 617 541 q 541 561 568 561 q 489 551 515 561 q 444 518 464 541 q 411 457 423 495 q 399 364 399 420 z "},"q":{"ha":1019,"x_min":57,"x_max":913,"o":"m 621 -293 l 621 94 q 581 47 606 68 q 524 11 556 26 q 453 -12 491 -4 q 376 -20 415 -20 q 260 0 317 -20 q 158 66 203 20 q 85 189 113 113 q 57 376 57 264 q 82 545 57 474 q 151 661 108 616 q 249 728 193 707 q 364 750 304 750 q 441 742 403 750 q 513 718 479 733 q 574 681 547 703 q 621 631 602 659 l 621 732 l 913 732 l 913 -293 l 621 -293 m 339 364 q 351 271 339 309 q 384 211 363 234 q 429 179 404 189 q 481 169 454 169 q 532 179 507 169 q 577 211 557 189 q 609 272 597 234 q 621 365 621 309 q 609 457 621 420 q 577 518 597 495 q 533 551 557 541 q 481 561 508 561 q 430 551 455 561 q 384 518 404 541 q 351 457 363 495 q 339 364 339 420 z "},"r":{"ha":712,"x_min":106,"x_max":694,"o":"m 106 732 l 385 732 q 382 693 383 714 q 382 648 382 671 q 382 601 382 625 q 382 555 382 577 q 417 624 395 589 q 468 686 439 659 q 535 732 498 714 q 620 750 573 750 q 639 749 629 750 q 660 746 650 748 q 679 741 670 744 q 694 734 688 738 l 671 454 q 606 472 640 466 q 547 477 572 477 q 487 469 513 477 q 442 447 460 460 q 413 417 424 433 q 399 385 403 401 l 399 0 l 106 0 l 106 732 z "},"s":{"ha":784,"x_min":65,"x_max":724,"o":"m 675 513 q 543 561 608 544 q 429 578 478 578 q 356 569 378 578 q 334 534 334 559 q 366 500 334 513 q 460 471 398 488 q 570 435 522 455 q 653 387 619 416 q 706 317 688 357 q 724 217 724 276 q 703 120 724 164 q 642 45 683 77 q 537 -3 600 14 q 389 -20 474 -20 q 236 -8 313 -20 q 81 31 159 3 l 81 241 q 222 192 151 210 q 356 174 292 174 q 471 221 471 174 q 465 236 471 229 q 445 249 460 243 q 405 263 431 256 q 338 280 378 270 q 232 315 281 294 q 145 367 182 336 q 86 439 108 398 q 65 534 65 481 q 85 621 65 581 q 145 690 105 661 q 246 734 186 718 q 385 750 306 750 q 474 746 431 750 q 554 736 516 742 q 625 724 592 730 q 686 712 658 718 l 675 513 z "},"t":{"ha":714,"x_min":17,"x_max":685,"o":"m 470 -20 q 349 -4 407 -20 q 248 47 292 11 q 178 143 204 83 q 152 293 152 203 l 152 564 l 17 564 l 17 608 l 336 955 l 445 955 l 445 732 l 662 732 q 647 650 654 691 q 640 564 641 608 l 445 564 l 445 296 q 449 249 445 271 q 464 209 452 226 q 497 181 475 191 q 555 170 519 170 q 606 175 578 170 q 669 191 633 179 l 685 16 q 587 -10 642 0 q 470 -20 532 -20 z "},"u":{"ha":1029,"x_min":98,"x_max":923,"o":"m 923 0 l 631 0 l 637 47 q 642 96 640 68 q 645 152 644 123 q 594 80 625 112 q 526 26 563 49 q 446 -8 488 4 q 361 -20 404 -20 q 261 -2 309 -20 q 177 53 214 15 q 120 150 141 90 q 98 293 98 209 l 98 732 l 391 732 l 391 320 q 399 250 391 278 q 420 203 407 221 q 452 178 434 186 q 489 170 469 170 q 535 180 512 170 q 578 205 559 189 q 611 244 597 222 q 630 291 625 266 l 630 732 l 923 732 l 923 0 z "},"v":{"ha":885,"x_min":20,"x_max":866,"o":"m 20 732 l 349 732 l 475 184 l 617 732 l 866 732 l 632 0 l 261 0 l 20 732 z "},"w":{"ha":1369,"x_min":45,"x_max":1325,"o":"m 45 732 l 357 732 l 466 177 l 575 732 l 894 732 l 1016 177 l 1093 732 l 1325 732 l 1173 0 l 796 0 l 702 473 l 616 0 l 220 0 l 45 732 z "},"x":{"ha":923,"x_min":20,"x_max":903,"o":"m 659 381 l 903 0 l 571 0 l 429 243 l 302 0 l 56 0 l 264 377 l 20 732 l 352 732 l 487 498 l 623 732 l 869 732 l 659 381 z "},"y":{"ha":985,"x_min":98,"x_max":868,"o":"m 575 732 l 868 732 l 868 102 q 852 -35 868 26 q 809 -144 837 -96 q 743 -226 781 -192 q 659 -282 705 -260 q 560 -315 612 -304 q 453 -326 508 -326 q 304 -318 379 -326 q 168 -293 230 -311 l 189 -122 q 312 -144 262 -140 q 386 -149 362 -149 q 494 -130 454 -149 q 555 -69 534 -110 q 572 -29 566 -49 q 583 12 578 -9 q 588 55 587 33 q 589 106 589 78 q 551 60 575 80 q 496 27 526 41 q 434 7 467 14 q 370 0 401 0 q 267 17 315 0 q 180 69 218 33 q 120 160 142 104 q 98 293 98 216 l 98 732 l 359 732 l 359 301 q 369 242 359 267 q 394 202 378 218 q 431 178 410 186 q 472 170 451 170 q 510 177 492 170 q 543 196 529 183 q 566 227 557 208 q 575 269 575 245 l 575 732 z "},"z":{"ha":724,"x_min":57,"x_max":663,"o":"m 400 184 l 663 184 q 650 96 654 141 q 646 0 646 51 l 57 0 l 57 184 l 315 564 l 57 564 l 74 732 l 646 732 l 646 560 l 400 184 z "},"{":{"ha":789,"x_min":157,"x_max":631,"o":"m 258 715 q 283 866 258 795 q 355 992 307 938 q 472 1078 402 1046 q 631 1109 541 1109 l 631 956 q 592 940 606 956 q 572 899 578 924 q 565 842 566 874 q 564 777 564 810 q 551 697 564 739 q 514 621 539 656 q 451 557 489 585 q 360 517 412 529 q 451 474 412 504 q 514 405 489 444 q 551 322 539 366 q 564 237 564 278 q 565 179 564 208 q 572 128 566 151 q 592 92 578 106 q 631 79 606 79 l 631 -75 q 472 -43 541 -75 q 355 42 402 -12 q 283 168 307 96 q 258 319 258 239 q 250 361 258 344 q 228 390 242 379 q 196 405 214 400 q 157 410 178 410 l 157 625 q 196 629 178 625 q 228 645 214 634 q 250 672 242 655 q 258 715 258 690 z "},"|":{"ha":591,"x_min":160,"x_max":431,"o":"m 160 1085 l 431 1085 l 431 -68 l 160 -68 l 160 1085 z "},"}":{"ha":789,"x_min":157,"x_max":631,"o":"m 530 715 q 538 672 530 690 q 560 645 546 655 q 592 629 574 634 q 631 625 610 625 l 631 410 q 592 405 610 410 q 560 390 574 400 q 538 361 546 379 q 530 319 530 344 q 505 168 530 239 q 433 42 481 96 q 316 -43 386 -12 q 157 -75 247 -75 l 157 79 q 196 92 182 79 q 216 128 210 106 q 223 179 222 151 q 224 237 224 208 q 237 322 224 278 q 274 405 249 366 q 337 474 299 444 q 428 517 376 504 q 337 557 376 529 q 274 621 299 585 q 237 697 249 656 q 224 777 224 739 q 223 842 224 810 q 216 899 222 874 q 196 940 210 924 q 157 956 182 956 l 157 1109 q 316 1078 247 1109 q 433 992 386 1046 q 505 866 481 938 q 530 715 530 795 z "},"~":{"ha":1135,"x_min":134,"x_max":1001,"o":"m 696 567 q 645 576 670 567 q 594 601 619 586 q 544 632 568 615 q 494 663 519 648 q 446 687 470 677 q 398 696 422 696 q 330 674 359 696 q 290 606 301 652 l 134 662 q 192 778 158 729 q 265 859 225 827 q 349 907 304 891 q 441 922 394 922 q 493 913 467 922 q 544 889 519 903 q 594 858 570 874 q 644 826 619 841 q 692 802 668 812 q 739 793 715 793 q 805 809 778 793 q 844 863 833 826 l 1001 806 q 944 700 977 745 q 872 625 911 654 q 788 581 832 595 q 696 567 743 567 z "}," ":{"ha":484,"x_min":0,"x_max":0,"o":""},"¡":{"ha":701,"x_min":176,"x_max":524,"o":"m 198 0 l 502 0 l 458 610 l 241 610 l 198 0 m 350 977 q 273 966 306 977 q 219 937 240 954 q 187 897 197 920 q 176 850 176 873 q 188 802 176 825 q 220 760 199 779 q 275 730 242 741 q 350 719 307 719 q 425 730 393 719 q 480 760 458 741 q 513 801 502 778 q 524 849 524 825 q 514 896 524 873 q 481 937 503 920 q 427 966 460 954 q 350 977 395 977 z "},"¢":{"ha":823,"x_min":54,"x_max":738,"o":"m 570 0 l 422 0 l 422 92 q 300 115 358 96 q 173 185 227 138 q 86 305 118 233 q 54 477 54 378 q 86 648 54 576 q 173 768 118 721 q 300 839 227 816 q 422 861 358 857 l 422 977 l 570 977 l 570 852 q 602 846 586 849 q 673 826 639 838 q 738 799 708 814 l 694 623 q 606 659 649 646 q 570 667 588 664 l 570 286 q 606 294 588 289 q 694 331 649 308 l 738 155 q 673 127 708 139 q 602 107 639 115 q 570 101 586 104 l 570 0 m 347 476 q 359 390 347 427 q 393 329 371 353 q 422 304 406 315 l 422 649 q 393 624 406 639 q 359 563 371 600 q 347 476 347 526 z "},"£":{"ha":949,"x_min":78,"x_max":881,"o":"m 199 564 q 241 766 213 686 q 314 893 269 846 q 424 959 359 940 q 577 977 489 977 q 718 958 663 977 q 804 903 772 939 q 847 814 836 867 q 859 694 859 762 l 686 694 q 683 736 686 717 q 671 771 680 756 q 645 794 662 785 q 599 803 628 803 q 551 790 570 803 q 518 749 531 777 q 499 675 506 720 q 490 564 493 629 l 664 564 l 664 391 l 490 391 l 490 282 q 489 236 490 260 q 487 192 488 212 q 517 187 500 190 q 549 181 533 184 q 578 176 565 178 q 599 174 591 174 q 636 181 623 174 q 656 201 650 189 q 663 229 662 214 q 664 260 664 245 l 881 260 q 858 125 881 179 q 799 39 836 71 q 715 -6 762 7 q 621 -20 668 -20 q 511 -13 555 -20 q 436 6 466 -5 q 388 34 406 18 q 360 65 370 49 q 242 13 313 26 q 78 0 171 0 l 78 174 q 118 178 99 174 q 153 192 138 182 q 177 218 168 201 q 186 260 186 235 l 186 391 l 78 391 l 78 564 l 199 564 z "},"¤":{"ha":875,"x_min":148,"x_max":720,"o":"m 434 199 q 310 222 363 199 q 220 285 256 246 q 166 373 184 323 q 148 475 148 422 q 166 576 148 527 q 220 665 184 626 q 309 727 256 703 q 434 750 363 750 q 558 727 505 750 q 648 665 612 703 q 702 576 684 626 q 720 475 720 527 q 701 373 720 422 q 647 285 683 323 q 557 222 611 246 q 434 199 504 199 m 433 318 q 497 332 469 318 q 544 367 525 345 q 572 417 562 389 q 581 475 581 445 q 572 532 581 504 q 544 582 562 560 q 497 617 525 604 q 433 631 470 631 q 369 617 397 631 q 322 582 340 604 q 294 532 303 560 q 284 475 284 504 q 294 417 284 445 q 322 367 303 389 q 369 332 341 345 q 433 318 397 318 z "},"¥":{"ha":876,"x_min":16,"x_max":861,"o":"m 542 959 l 861 959 l 655 586 l 845 586 l 845 412 l 574 412 l 574 304 l 845 304 l 845 130 l 574 130 l 574 0 l 302 0 l 302 130 l 31 130 l 31 304 l 302 304 l 302 412 l 31 412 l 31 586 l 221 586 l 16 959 l 334 959 l 438 696 l 542 959 z "},"¦":{"ha":473,"x_min":110,"x_max":370,"o":"m 110 1085 l 370 1085 l 370 586 l 110 586 l 110 1085 m 110 434 l 370 434 l 370 -65 l 110 -65 l 110 434 z "},"§":{"ha":638,"x_min":9,"x_max":633,"o":"m 9 770 q 32 857 9 814 q 97 931 54 899 q 204 983 140 964 q 352 1003 269 1003 q 446 995 397 1003 q 551 967 495 986 l 551 798 q 520 809 539 804 q 477 818 501 814 q 427 824 454 822 q 372 827 399 827 q 328 823 349 827 q 289 812 306 820 q 262 791 272 804 q 252 757 252 777 q 267 733 252 743 q 308 713 283 723 q 366 693 334 703 q 432 669 398 682 q 498 637 466 655 q 556 596 530 620 q 597 540 581 572 q 612 466 612 508 q 597 395 612 431 q 549 330 581 360 q 582 296 567 315 q 609 255 597 278 q 626 204 620 232 q 633 143 633 176 q 613 54 633 97 q 551 -22 593 12 q 446 -75 509 -55 q 294 -94 382 -94 q 186 -87 245 -94 q 64 -67 128 -81 l 64 109 q 187 85 134 92 q 280 78 239 78 q 358 96 333 78 q 383 142 383 113 q 367 166 383 155 q 326 186 351 176 q 267 207 300 196 q 199 231 234 217 q 132 262 165 244 q 73 304 99 280 q 32 360 47 328 q 16 435 16 393 q 32 511 16 473 q 83 581 49 549 q 30 657 51 612 q 9 770 9 702 m 412 435 q 397 458 412 447 q 357 481 382 469 q 298 504 332 492 q 229 530 265 516 q 218 504 223 519 q 214 470 214 488 q 229 448 214 458 q 270 428 244 438 q 329 406 295 417 q 399 383 362 395 q 409 409 406 395 q 412 435 412 422 z "},"¨":{"ha":920,"x_min":121,"x_max":799,"o":"m 262 812 q 201 824 227 812 q 156 855 174 836 q 130 899 138 874 q 121 949 121 923 q 130 999 121 975 q 156 1043 138 1023 q 200 1074 174 1062 q 262 1085 227 1085 q 323 1074 297 1085 q 368 1043 350 1062 q 394 999 385 1023 q 404 949 404 975 q 394 899 404 923 q 368 855 385 874 q 323 824 350 836 q 262 812 297 812 m 657 812 q 596 824 623 812 q 552 855 570 836 q 525 899 534 874 q 516 949 516 923 q 525 999 516 975 q 551 1043 534 1023 q 595 1074 569 1062 q 657 1085 622 1085 q 719 1074 692 1085 q 763 1043 745 1062 q 790 999 781 1023 q 799 949 799 975 q 790 899 799 923 q 763 855 781 874 q 719 824 745 836 q 657 812 692 812 z "},"©":{"ha":1568,"x_min":174,"x_max":1394,"o":"m 784 60 q 914 76 854 60 q 1020 121 973 92 q 1103 189 1067 150 q 1162 275 1139 229 q 1198 372 1186 321 q 1210 475 1210 423 q 1198 577 1210 526 q 1162 675 1186 629 q 1103 760 1139 721 q 1020 828 1067 800 q 914 873 973 857 q 784 890 854 890 q 654 873 713 890 q 547 828 595 857 q 465 760 500 800 q 406 675 429 721 q 370 577 382 629 q 358 475 358 526 q 370 372 358 422 q 406 275 382 321 q 465 189 429 229 q 547 121 500 150 q 654 76 595 92 q 784 60 713 60 m 784 1045 q 970 1023 886 1045 q 1122 961 1055 1000 q 1241 867 1190 921 q 1326 749 1292 812 q 1377 616 1360 686 q 1394 475 1394 546 q 1377 333 1394 404 q 1326 200 1360 263 q 1241 82 1292 136 q 1122 -11 1190 28 q 970 -73 1055 -51 q 784 -96 886 -96 q 597 -73 682 -96 q 445 -11 513 -51 q 327 82 377 28 q 242 200 276 136 q 191 333 208 263 q 174 475 174 404 q 191 616 174 546 q 242 749 208 686 q 327 867 276 812 q 445 961 377 921 q 597 1023 513 1000 q 784 1045 682 1045 m 797 161 q 680 182 734 161 q 585 242 625 202 q 520 342 544 282 q 496 484 496 403 q 516 598 496 543 q 573 696 536 654 q 666 763 611 738 q 790 788 720 788 q 893 778 842 788 q 996 743 945 767 l 985 586 q 920 612 957 604 q 848 621 882 621 q 793 611 818 621 q 750 583 768 602 q 722 538 732 565 q 711 476 711 511 q 746 367 711 404 q 843 330 781 330 q 988 365 918 330 l 1006 210 q 907 174 959 186 q 797 161 854 161 z "},"ª":{"ha":701,"x_min":50,"x_max":611,"o":"m 210 224 q 150 233 178 224 q 99 260 121 242 q 63 307 77 279 q 50 372 50 334 q 62 436 50 409 q 94 482 74 463 q 141 514 114 501 q 198 533 168 526 q 260 543 228 541 q 321 546 292 546 q 362 545 342 546 q 397 543 381 544 q 386 594 397 574 q 357 627 375 615 q 316 644 340 640 q 266 649 292 649 q 216 646 241 649 q 166 637 191 642 q 120 627 142 633 q 82 618 98 622 l 82 756 q 134 767 106 762 q 192 775 162 772 q 253 782 222 779 q 315 784 285 784 q 426 773 372 784 q 520 735 479 762 q 586 661 562 707 q 611 543 611 614 l 611 239 l 408 239 l 408 327 q 375 284 396 303 q 327 252 353 265 q 270 232 300 239 q 210 224 239 224 m 294 340 q 325 348 307 340 q 359 371 343 355 q 386 411 375 387 q 397 469 397 435 l 381 469 q 333 464 357 469 q 287 449 308 459 q 253 425 267 439 q 240 392 240 411 q 245 367 240 377 q 257 351 250 357 q 275 343 265 345 q 294 340 284 340 z "},"«":{"ha":875,"x_min":63,"x_max":782,"o":"m 401 170 l 63 407 l 63 610 l 401 848 l 401 631 l 193 509 l 401 387 l 401 170 m 782 170 l 444 407 l 444 610 l 782 848 l 782 631 l 574 509 l 782 387 l 782 170 z "},"¬":{"ha":798,"x_min":134,"x_max":676,"o":"m 676 564 l 676 359 l 286 359 l 286 195 l 134 195 l 134 564 l 676 564 z "},"­":{"ha":1158,"x_min":0,"x_max":0,"o":""},"®":{"ha":1568,"x_min":180,"x_max":1387,"o":"m 568 785 l 778 785 q 898 771 846 785 q 985 733 950 757 q 1038 677 1020 709 q 1055 610 1055 645 q 1049 563 1055 586 q 1029 518 1044 539 q 989 480 1015 497 q 926 453 964 463 q 948 379 934 416 q 980 309 962 343 q 1017 244 998 275 q 1055 185 1037 212 l 859 185 q 814 283 838 223 q 772 435 791 342 l 747 435 l 747 182 l 568 182 l 568 785 m 761 528 q 815 534 793 528 q 851 549 838 540 q 871 571 865 559 q 877 595 877 583 q 868 638 877 623 q 843 661 859 653 q 806 670 827 668 q 760 671 785 671 l 747 671 l 747 528 l 761 528 m 784 60 q 914 76 854 60 q 1020 121 973 92 q 1103 189 1067 150 q 1162 275 1139 229 q 1198 372 1186 321 q 1210 475 1210 423 q 1198 577 1210 526 q 1162 675 1186 629 q 1103 760 1139 721 q 1020 828 1067 800 q 914 873 973 857 q 784 890 854 890 q 654 873 713 890 q 547 828 595 857 q 465 760 500 800 q 406 675 429 721 q 370 577 382 629 q 358 475 358 526 q 370 372 358 422 q 406 275 382 321 q 465 189 429 229 q 547 121 500 150 q 654 76 595 92 q 784 60 713 60 m 784 1045 q 968 1023 884 1045 q 1119 961 1052 1000 q 1236 867 1186 921 q 1320 749 1286 812 q 1370 616 1354 686 q 1387 475 1387 546 q 1370 333 1387 404 q 1320 200 1354 263 q 1236 82 1286 136 q 1119 -11 1186 28 q 968 -73 1052 -51 q 784 -96 884 -96 q 600 -73 684 -96 q 449 -11 516 -51 q 331 82 382 28 q 247 200 281 136 q 197 333 214 263 q 180 475 180 404 q 197 616 180 546 q 247 749 214 686 q 331 867 281 812 q 449 961 382 921 q 600 1023 516 1000 q 784 1045 684 1045 z "},"¯":{"ha":669,"x_min":64,"x_max":606,"o":"m 606 1048 l 606 882 l 64 882 l 64 1048 l 606 1048 z "},"°":{"ha":672,"x_min":110,"x_max":533,"o":"m 321 558 q 229 576 269 558 q 163 623 190 593 q 123 688 137 652 q 110 764 110 725 q 123 838 110 802 q 163 903 136 875 q 229 949 189 932 q 321 967 268 967 q 413 949 374 967 q 479 903 453 932 q 519 838 506 875 q 533 764 533 802 q 519 688 533 725 q 479 623 506 652 q 413 576 453 593 q 321 558 374 558 m 320 667 q 359 675 342 667 q 387 697 376 683 q 405 728 399 711 q 411 764 411 745 q 405 799 411 782 q 388 829 399 816 q 359 850 376 842 q 320 859 342 859 q 281 850 298 859 q 252 829 264 842 q 234 799 240 816 q 229 764 229 782 q 235 728 229 745 q 252 697 241 711 q 281 675 264 683 q 320 667 298 667 z "},"±":{"ha":1136,"x_min":134,"x_max":608,"o":"m 269 410 l 134 410 l 134 583 l 269 583 l 269 751 l 473 751 l 473 583 l 608 583 l 608 410 l 473 410 l 473 244 l 269 244 l 269 410 m 608 169 l 608 0 l 134 0 l 134 169 l 608 169 z "},"²":{"ha":721,"x_min":87,"x_max":606,"o":"m 321 416 l 599 416 l 599 237 l 114 237 l 87 418 q 140 464 110 440 q 203 513 170 488 q 267 566 235 538 q 322 621 298 593 q 362 680 347 650 q 377 742 377 711 q 368 775 377 762 q 346 797 359 789 q 314 809 332 806 q 280 812 297 812 q 238 809 259 812 q 196 802 216 806 q 159 791 176 798 q 130 780 142 785 l 97 943 q 211 970 155 963 q 317 977 267 977 q 445 959 391 977 q 536 911 500 941 q 589 842 572 882 q 606 758 606 802 q 584 661 606 709 q 522 567 561 612 q 431 484 483 523 q 321 416 379 446 z "},"³":{"ha":705,"x_min":85,"x_max":623,"o":"m 169 673 q 272 678 233 673 q 334 691 312 682 q 363 714 355 701 q 371 747 371 728 q 362 784 371 768 q 337 808 353 799 q 302 822 322 818 q 260 827 282 827 q 216 824 239 827 q 171 817 193 822 q 126 805 148 812 q 85 789 104 798 l 85 932 q 186 966 134 956 q 303 977 239 977 q 410 968 364 977 q 490 944 456 959 q 546 908 524 928 q 582 863 568 888 q 601 813 595 839 q 606 760 606 787 q 593 691 606 720 q 558 644 579 663 q 514 615 538 625 q 470 600 490 604 q 520 586 493 595 q 570 556 547 576 q 608 506 593 536 q 623 431 623 476 q 617 373 623 401 q 596 319 611 345 q 557 273 582 294 q 497 236 533 252 q 410 213 460 221 q 294 204 359 204 q 183 213 233 204 q 85 242 132 222 l 85 391 q 125 376 103 382 q 170 364 147 369 q 217 356 193 359 q 260 354 240 354 q 301 358 281 354 q 337 374 321 363 q 362 401 353 385 q 371 443 371 418 q 364 481 371 464 q 336 512 357 499 q 275 532 315 525 q 169 539 235 539 l 169 673 z "},"´":{"ha":817,"x_min":224,"x_max":593,"o":"m 224 827 l 289 1257 l 593 1257 l 419 827 l 224 827 z "},"µ":{"ha":1029,"x_min":98,"x_max":923,"o":"m 923 0 l 631 0 l 637 47 q 642 96 640 68 q 645 152 644 123 q 594 80 625 112 q 526 26 563 49 q 446 -7 488 4 q 381 -19 414 -17 l 381 -239 l 98 -239 l 98 732 l 391 732 l 391 320 q 399 250 391 278 q 420 203 407 221 q 452 178 434 186 q 489 170 469 170 q 535 180 512 170 q 578 205 559 189 q 611 244 597 222 q 630 291 625 266 l 630 732 l 923 732 l 923 0 z "},"¶":{"ha":984,"x_min":79,"x_max":905,"o":"m 905 0 l 701 0 l 701 784 l 566 784 l 566 0 l 362 0 l 362 477 q 224 498 279 477 q 137 553 169 519 q 92 630 105 587 q 79 715 79 673 q 95 812 79 767 q 149 889 110 857 q 257 940 189 922 q 433 959 326 959 l 905 959 l 905 0 z "},"·":{"ha":629,"x_min":129,"x_max":503,"o":"m 315 340 q 233 353 269 340 q 175 388 198 366 q 140 436 152 409 q 129 492 129 464 q 141 551 129 522 q 177 603 153 580 q 235 639 200 625 q 316 653 270 653 q 397 639 361 653 q 455 603 432 625 q 491 551 479 580 q 503 493 503 522 q 492 436 503 464 q 457 388 480 409 q 398 353 433 366 q 315 340 363 340 z "},"¸":{"ha":698,"x_min":161,"x_max":536,"o":"m 161 0 l 297 0 l 297 -68 q 400 -87 355 -68 q 475 -139 445 -107 q 521 -213 505 -172 q 536 -297 536 -254 q 520 -384 536 -341 q 469 -460 503 -427 q 381 -514 434 -494 q 258 -534 329 -534 q 211 -532 235 -534 q 161 -525 187 -530 l 161 -324 q 223 -330 196 -330 q 270 -323 250 -330 q 303 -303 290 -315 q 323 -276 316 -292 q 330 -245 330 -261 q 323 -214 330 -229 q 304 -188 317 -199 q 272 -169 292 -176 q 227 -161 253 -161 q 161 -174 197 -161 l 161 0 z "},"¹":{"ha":595,"x_min":77,"x_max":448,"o":"m 448 235 l 212 235 l 212 746 l 77 718 l 77 863 q 118 879 96 869 q 166 900 140 888 q 222 929 192 912 q 290 967 253 945 l 448 967 l 448 235 z "},"º":{"ha":770,"x_min":119,"x_max":640,"o":"m 379 629 q 311 598 330 629 q 292 509 292 567 q 311 419 292 448 q 379 391 330 391 q 447 419 428 391 q 466 509 466 448 q 447 598 466 567 q 379 629 428 629 m 379 760 q 502 738 452 760 q 583 681 552 716 q 626 602 613 646 q 640 510 640 557 q 627 418 640 463 q 584 338 614 374 q 506 282 554 303 q 387 260 458 260 q 260 281 311 260 q 177 335 208 301 q 132 415 146 370 q 119 510 119 460 q 132 602 119 557 q 176 681 145 646 q 256 738 206 716 q 379 760 306 760 z "},"»":{"ha":875,"x_min":62,"x_max":782,"o":"m 444 170 l 782 407 l 782 610 l 444 848 l 444 631 l 652 509 l 444 387 l 444 170 m 63 170 l 401 407 l 401 610 l 63 848 l 63 631 l 271 509 l 63 387 l 63 170 z "},"¼":{"ha":1755,"x_min":77,"x_max":1731,"o":"m 1076 977 l 708 0 l 460 0 l 810 977 l 1076 977 m 448 235 l 212 235 l 212 746 l 77 718 l 77 863 q 118 879 96 869 q 166 900 140 888 q 222 929 192 912 q 290 967 253 945 l 448 967 l 448 235 m 1613 264 l 1731 264 l 1731 102 l 1613 102 l 1613 -37 l 1313 -37 l 1313 102 l 972 102 l 972 264 l 1208 715 l 1613 715 l 1613 264 m 1337 567 l 1174 264 l 1354 264 l 1354 567 l 1337 567 z "},"½":{"ha":1666,"x_min":77,"x_max":1595,"o":"m 1083 977 l 715 0 l 467 0 l 817 977 l 1083 977 m 448 235 l 212 235 l 212 746 l 77 718 l 77 863 q 118 879 96 869 q 166 900 140 888 q 222 929 192 912 q 290 967 253 945 l 448 967 l 448 235 m 1310 179 l 1588 179 l 1588 0 l 1103 0 l 1076 180 q 1129 227 1099 203 q 1192 276 1159 251 q 1255 328 1224 301 q 1311 384 1286 355 q 1351 443 1336 412 q 1366 505 1366 473 q 1357 538 1366 524 q 1334 560 1348 551 q 1303 572 1320 568 q 1269 575 1286 575 q 1226 572 1248 575 q 1185 565 1205 569 q 1148 554 1165 560 q 1119 543 1131 548 l 1086 706 q 1199 733 1143 726 q 1305 740 1255 740 q 1434 722 1379 740 q 1525 674 1489 704 q 1578 604 1560 644 q 1595 520 1595 564 q 1572 423 1595 472 q 1511 330 1550 374 q 1420 247 1472 286 q 1310 179 1368 208 z "},"¾":{"ha":1914,"x_min":85,"x_max":1870,"o":"m 1213 977 l 844 0 l 596 0 l 947 977 l 1213 977 m 1752 264 l 1870 264 l 1870 102 l 1752 102 l 1752 -37 l 1452 -37 l 1452 102 l 1112 102 l 1112 264 l 1348 715 l 1752 715 l 1752 264 m 1476 567 l 1313 264 l 1493 264 l 1493 567 l 1476 567 m 169 673 q 272 678 233 673 q 334 691 312 682 q 363 714 355 701 q 371 747 371 728 q 362 784 371 768 q 337 808 353 799 q 302 822 322 818 q 260 827 282 827 q 216 824 239 827 q 171 817 193 822 q 126 805 148 812 q 85 789 104 798 l 85 932 q 186 966 134 956 q 303 977 239 977 q 410 968 364 977 q 490 944 456 959 q 546 908 524 928 q 582 863 568 888 q 601 813 595 839 q 606 760 606 787 q 593 691 606 720 q 558 644 579 663 q 514 615 538 625 q 470 600 490 604 q 520 586 493 595 q 570 556 547 576 q 608 506 593 536 q 623 431 623 476 q 617 373 623 401 q 596 319 611 345 q 557 273 582 294 q 497 236 533 252 q 410 213 460 221 q 294 204 359 204 q 183 213 233 204 q 85 242 132 222 l 85 391 q 125 376 103 382 q 170 364 147 369 q 217 356 193 359 q 260 354 240 354 q 301 358 281 354 q 337 374 321 363 q 362 401 353 385 q 371 443 371 418 q 364 481 371 464 q 336 512 357 499 q 275 532 315 525 q 169 539 235 539 l 169 673 z "},"¿":{"ha":906,"x_min":100,"x_max":793,"o":"m 671 435 q 544 420 597 429 q 456 398 492 410 q 400 372 421 386 q 368 341 379 357 q 354 308 357 326 q 351 273 351 291 q 360 228 351 248 q 386 194 370 208 q 422 172 401 180 q 467 164 444 164 q 504 170 486 164 q 536 189 522 176 q 559 221 550 202 q 568 266 568 240 l 793 266 q 770 152 793 205 q 704 62 748 100 q 596 2 661 24 q 446 -20 531 -20 q 289 4 355 -20 q 181 67 223 28 q 119 159 139 107 q 100 266 100 210 q 120 363 100 315 q 181 450 140 411 q 283 517 222 490 q 426 551 344 544 l 426 653 l 650 653 l 671 435 m 524 977 q 592 967 563 977 q 640 939 621 956 q 668 899 659 922 q 677 854 677 877 q 668 808 677 831 q 638 769 658 786 q 590 741 619 751 q 524 730 562 730 q 458 741 487 730 q 410 769 429 751 q 381 808 391 786 q 371 853 371 830 q 380 899 371 877 q 408 939 389 922 q 456 967 427 956 q 524 977 485 977 z "},"À":{"ha":946,"x_min":7,"x_max":939,"o":"m 939 0 l 577 0 l 532 204 l 294 204 l 252 0 l 7 0 l 251 959 l 675 959 l 939 0 m 416 810 l 323 363 l 517 363 l 437 810 l 416 810 m 462 1080 l 288 1510 l 592 1510 l 657 1080 l 462 1080 z "},"Á":{"ha":946,"x_min":7,"x_max":939,"o":"m 939 0 l 577 0 l 532 204 l 294 204 l 252 0 l 7 0 l 251 959 l 675 959 l 939 0 m 416 810 l 323 363 l 517 363 l 437 810 l 416 810 m 288 1042 l 353 1472 l 657 1472 l 484 1042 l 288 1042 z "},"Â":{"ha":946,"x_min":7,"x_max":939,"o":"m 939 0 l 577 0 l 532 204 l 294 204 l 252 0 l 7 0 l 251 959 l 675 959 l 939 0 m 416 810 l 323 363 l 517 363 l 437 810 l 416 810 m 574 1072 l 473 1344 l 371 1072 l 168 1072 l 303 1440 l 642 1440 l 778 1072 l 574 1072 z "},"Ã":{"ha":946,"x_min":7,"x_max":939,"o":"m 939 0 l 577 0 l 532 204 l 294 204 l 252 0 l 7 0 l 251 959 l 675 959 l 939 0 m 416 810 l 323 363 l 517 363 l 437 810 l 416 810 m 597 1097 q 529 1112 564 1097 q 461 1145 495 1127 q 394 1178 427 1163 q 330 1193 361 1193 q 293 1171 308 1193 q 274 1101 278 1149 l 115 1135 q 148 1245 126 1198 q 197 1325 169 1293 q 257 1373 224 1357 q 324 1390 290 1390 q 397 1375 360 1390 q 472 1342 435 1360 q 544 1309 509 1324 q 613 1294 580 1294 q 652 1316 636 1294 q 671 1386 667 1337 l 831 1352 q 793 1242 817 1289 q 739 1162 770 1194 q 671 1114 707 1130 q 597 1097 635 1097 z "},"Ä":{"ha":946,"x_min":7,"x_max":939,"o":"m 939 0 l 577 0 l 532 204 l 294 204 l 252 0 l 7 0 l 251 959 l 675 959 l 939 0 m 416 810 l 323 363 l 517 363 l 437 810 l 416 810 m 275 1065 q 214 1077 240 1065 q 169 1108 187 1088 q 142 1152 151 1127 q 134 1202 134 1176 q 142 1252 134 1227 q 169 1296 151 1276 q 213 1326 186 1315 q 275 1338 239 1338 q 336 1326 310 1338 q 380 1296 363 1315 q 407 1252 398 1276 q 416 1202 416 1227 q 407 1152 416 1176 q 380 1108 398 1127 q 336 1077 363 1088 q 275 1065 310 1065 m 670 1065 q 609 1077 635 1065 q 565 1108 583 1088 q 538 1152 547 1127 q 529 1202 529 1176 q 538 1252 529 1227 q 564 1296 547 1276 q 608 1326 582 1315 q 670 1338 635 1338 q 732 1326 705 1338 q 776 1296 758 1315 q 803 1252 793 1276 q 812 1202 812 1227 q 803 1152 812 1176 q 776 1108 793 1127 q 732 1077 758 1088 q 670 1065 705 1065 z "},"Å":{"ha":946,"x_min":7,"x_max":939,"o":"m 939 0 l 577 0 l 532 204 l 294 204 l 252 0 l 7 0 l 251 959 l 675 959 l 939 0 m 416 810 l 323 363 l 517 363 l 437 810 l 416 810 m 408 1208 q 425 1161 408 1179 q 473 1143 442 1143 q 520 1161 503 1143 q 538 1208 538 1179 q 520 1255 538 1236 q 473 1273 503 1273 q 425 1255 442 1273 q 408 1208 408 1236 m 321 1208 q 331 1257 321 1233 q 360 1298 340 1280 q 408 1327 379 1316 q 473 1338 436 1338 q 538 1327 509 1338 q 586 1298 566 1316 q 615 1257 605 1280 q 625 1208 625 1233 q 615 1159 625 1182 q 586 1117 605 1135 q 538 1088 566 1099 q 473 1078 509 1078 q 408 1088 436 1078 q 360 1117 379 1099 q 331 1159 340 1135 q 321 1208 321 1182 z "},"Æ":{"ha":1341,"x_min":7,"x_max":1312,"o":"m 1312 0 l 576 0 l 561 204 l 323 204 l 251 0 l 7 0 l 387 959 l 1175 959 l 1200 781 l 835 781 l 861 578 l 1185 578 l 1211 405 l 886 405 l 916 195 l 1284 195 l 1312 0 m 531 810 l 374 363 l 568 363 l 552 810 l 531 810 z "},"Ç":{"ha":968,"x_min":62,"x_max":886,"o":"m 62 477 q 104 686 62 593 q 217 843 146 779 q 382 943 288 908 q 583 977 477 977 q 733 963 656 977 q 886 911 810 949 l 844 694 q 726 743 784 727 q 618 760 667 760 q 513 740 559 760 q 433 684 466 721 q 384 595 401 648 q 366 477 366 543 q 384 359 366 412 q 433 271 401 307 q 513 215 466 234 q 618 195 559 195 q 726 212 667 195 q 844 260 784 228 l 886 43 q 733 -6 810 7 q 583 -20 656 -20 q 382 15 477 -20 q 217 113 288 49 q 104 269 146 177 q 62 477 62 361 m 448 0 l 584 0 l 584 -68 q 687 -87 642 -68 q 762 -139 732 -107 q 808 -213 792 -172 q 823 -297 823 -254 q 807 -384 823 -341 q 755 -460 790 -427 q 668 -514 721 -494 q 545 -534 616 -534 q 498 -532 522 -534 q 448 -525 474 -530 l 448 -324 q 510 -330 483 -330 q 556 -323 536 -330 q 590 -303 576 -315 q 610 -276 603 -292 q 616 -245 616 -261 q 610 -214 616 -229 q 591 -188 604 -199 q 559 -169 578 -176 q 514 -161 540 -161 q 448 -174 484 -161 l 448 0 z "},"È":{"ha":895,"x_min":116,"x_max":789,"o":"m 116 959 l 789 959 l 789 781 l 420 781 l 420 578 l 745 578 l 745 405 l 420 405 l 420 195 l 789 195 l 789 0 l 116 0 l 116 959 m 436 1080 l 262 1510 l 566 1510 l 631 1080 l 436 1080 z "},"É":{"ha":895,"x_min":116,"x_max":789,"o":"m 116 959 l 789 959 l 789 781 l 420 781 l 420 578 l 745 578 l 745 405 l 420 405 l 420 195 l 789 195 l 789 0 l 116 0 l 116 959 m 262 1042 l 328 1472 l 631 1472 l 458 1042 l 262 1042 z "},"Ê":{"ha":895,"x_min":116,"x_max":789,"o":"m 116 959 l 789 959 l 789 781 l 420 781 l 420 578 l 745 578 l 745 405 l 420 405 l 420 195 l 789 195 l 789 0 l 116 0 l 116 959 m 549 1069 l 447 1342 l 345 1069 l 142 1069 l 277 1438 l 616 1438 l 752 1069 l 549 1069 z "},"Ë":{"ha":895,"x_min":110,"x_max":789,"o":"m 116 959 l 789 959 l 789 781 l 420 781 l 420 578 l 745 578 l 745 405 l 420 405 l 420 195 l 789 195 l 789 0 l 116 0 l 116 959 m 251 1065 q 190 1077 216 1065 q 145 1108 163 1088 q 119 1152 127 1127 q 110 1202 110 1176 q 119 1252 110 1227 q 145 1296 127 1276 q 189 1326 163 1315 q 251 1338 216 1338 q 313 1326 286 1338 q 357 1296 339 1315 q 384 1252 374 1276 q 393 1202 393 1227 q 384 1152 393 1176 q 357 1108 374 1127 q 313 1077 339 1088 q 251 1065 286 1065 m 646 1065 q 585 1077 612 1065 q 541 1108 559 1088 q 514 1152 523 1127 q 505 1202 505 1176 q 514 1252 505 1227 q 541 1296 523 1276 q 585 1326 558 1315 q 646 1338 611 1338 q 708 1326 682 1338 q 752 1296 734 1315 q 779 1252 770 1276 q 788 1202 788 1227 q 779 1152 788 1176 q 752 1108 770 1127 q 708 1077 734 1088 q 646 1065 682 1065 z "},"Ì":{"ha":536,"x_min":52,"x_max":421,"o":"m 116 959 l 420 959 l 420 0 l 116 0 l 116 959 m 226 1041 l 52 1471 l 356 1471 l 421 1041 l 226 1041 z "},"Í":{"ha":536,"x_min":85,"x_max":454,"o":"m 116 959 l 420 959 l 420 0 l 116 0 l 116 959 m 85 1042 l 150 1472 l 454 1472 l 280 1042 l 85 1042 z "},"Î":{"ha":536,"x_min":-36,"x_max":574,"o":"m 116 959 l 420 959 l 420 0 l 116 0 l 116 959 m 371 1072 l 269 1344 l 168 1072 l -36 1072 l 100 1440 l 439 1440 l 574 1072 l 371 1072 z "},"Ï":{"ha":536,"x_min":-70,"x_max":608,"o":"m 116 959 l 420 959 l 420 0 l 116 0 l 116 959 m 71 1065 q 10 1077 37 1065 q -34 1108 -16 1088 q -61 1152 -52 1127 q -70 1202 -70 1176 q -61 1252 -70 1227 q -35 1296 -52 1276 q 9 1326 -17 1315 q 71 1338 36 1338 q 133 1326 106 1338 q 177 1296 159 1315 q 204 1252 195 1276 q 213 1202 213 1227 q 204 1152 213 1176 q 177 1108 195 1127 q 133 1077 159 1088 q 71 1065 106 1065 m 467 1065 q 406 1077 432 1065 q 361 1108 379 1088 q 334 1152 343 1127 q 326 1202 326 1176 q 334 1252 326 1227 q 361 1296 343 1276 q 405 1326 378 1315 q 467 1338 431 1338 q 528 1326 502 1338 q 572 1296 555 1315 q 599 1252 590 1276 q 608 1202 608 1227 q 599 1152 608 1176 q 572 1108 590 1127 q 528 1077 555 1088 q 467 1065 502 1065 z "},"Ð":{"ha":1044,"x_min":0,"x_max":978,"o":"m 115 0 l 115 401 l 0 401 l 0 564 l 115 564 l 115 959 l 449 959 q 671 930 572 959 q 837 843 769 901 q 942 695 905 784 q 978 488 978 607 q 959 325 978 397 q 906 199 941 254 q 824 107 872 145 q 716 46 775 70 q 589 11 657 22 q 446 0 521 0 l 115 0 m 419 217 l 439 217 q 536 227 492 217 q 610 266 579 237 q 657 348 641 295 q 674 488 674 401 q 659 619 674 566 q 615 703 644 671 q 543 748 586 734 q 446 761 500 761 l 419 761 l 419 564 l 543 564 l 543 401 l 419 401 l 419 217 z "},"Ñ":{"ha":1122,"x_min":115,"x_max":1006,"o":"m 115 959 l 409 959 l 774 477 l 774 959 l 1006 959 l 1006 0 l 705 0 l 345 510 l 345 0 l 115 0 l 115 959 m 685 1097 q 617 1112 652 1097 q 549 1145 583 1127 q 482 1178 515 1163 q 418 1193 449 1193 q 381 1171 396 1193 q 362 1101 366 1149 l 203 1135 q 236 1245 214 1198 q 285 1325 257 1293 q 345 1373 313 1357 q 412 1390 378 1390 q 486 1375 448 1390 q 560 1342 523 1360 q 632 1309 597 1324 q 701 1294 668 1294 q 740 1316 724 1294 q 760 1386 755 1337 l 919 1352 q 882 1242 905 1289 q 827 1162 858 1194 q 759 1114 795 1130 q 685 1097 723 1097 z "},"Ò":{"ha":1080,"x_min":62,"x_max":1017,"o":"m 539 -20 q 380 0 450 -20 q 257 53 311 19 q 167 135 204 87 q 107 237 130 182 q 73 353 83 292 q 62 477 62 414 q 75 601 62 540 q 114 718 88 663 q 179 821 140 774 q 271 903 218 869 q 391 958 324 938 q 539 977 458 977 q 687 958 621 977 q 807 903 754 938 q 900 821 861 869 q 965 718 939 774 q 1004 601 991 663 q 1017 477 1017 540 q 1006 353 1017 414 q 972 237 996 292 q 911 135 949 182 q 821 53 874 87 q 698 0 768 19 q 539 -20 628 -20 m 366 477 q 378 338 366 396 q 412 244 390 281 q 466 191 434 208 q 539 174 498 174 q 612 191 580 174 q 667 244 644 208 q 702 338 690 281 q 713 477 713 396 q 702 617 713 559 q 667 712 690 675 q 612 766 644 749 q 539 784 580 784 q 466 766 498 784 q 412 712 434 749 q 378 617 390 675 q 366 477 366 559 m 473 1040 l 299 1470 l 603 1470 l 668 1040 l 473 1040 z "},"Ó":{"ha":1080,"x_min":62,"x_max":1017,"o":"m 539 -20 q 380 0 450 -20 q 257 53 311 19 q 167 135 204 87 q 107 237 130 182 q 73 353 83 292 q 62 477 62 414 q 75 601 62 540 q 114 718 88 663 q 179 821 140 774 q 271 903 218 869 q 391 958 324 938 q 539 977 458 977 q 687 958 621 977 q 807 903 754 938 q 900 821 861 869 q 965 718 939 774 q 1004 601 991 663 q 1017 477 1017 540 q 1006 353 1017 414 q 972 237 996 292 q 911 135 949 182 q 821 53 874 87 q 698 0 768 19 q 539 -20 628 -20 m 366 477 q 378 338 366 396 q 412 244 390 281 q 466 191 434 208 q 539 174 498 174 q 612 191 580 174 q 667 244 644 208 q 702 338 690 281 q 713 477 713 396 q 702 617 713 559 q 667 712 690 675 q 612 766 644 749 q 539 784 580 784 q 466 766 498 784 q 412 712 434 749 q 378 617 390 675 q 366 477 366 559 m 355 1041 l 420 1471 l 724 1471 l 551 1041 l 355 1041 z "},"Ô":{"ha":1080,"x_min":62,"x_max":1017,"o":"m 539 -20 q 380 0 450 -20 q 257 53 311 19 q 167 135 204 87 q 107 237 130 182 q 73 353 83 292 q 62 477 62 414 q 75 601 62 540 q 114 718 88 663 q 179 821 140 774 q 271 903 218 869 q 391 958 324 938 q 539 977 458 977 q 687 958 621 977 q 807 903 754 938 q 900 821 861 869 q 965 718 939 774 q 1004 601 991 663 q 1017 477 1017 540 q 1006 353 1017 414 q 972 237 996 292 q 911 135 949 182 q 821 53 874 87 q 698 0 768 19 q 539 -20 628 -20 m 366 477 q 378 338 366 396 q 412 244 390 281 q 466 191 434 208 q 539 174 498 174 q 612 191 580 174 q 667 244 644 208 q 702 338 690 281 q 713 477 713 396 q 702 617 713 559 q 667 712 690 675 q 612 766 644 749 q 539 784 580 784 q 466 766 498 784 q 412 712 434 749 q 378 617 390 675 q 366 477 366 559 m 642 1069 l 540 1342 l 438 1069 l 235 1069 l 370 1438 l 709 1438 l 845 1069 l 642 1069 z "},"Õ":{"ha":1080,"x_min":62,"x_max":1017,"o":"m 539 -20 q 380 0 450 -20 q 257 53 311 19 q 167 135 204 87 q 107 237 130 182 q 73 353 83 292 q 62 477 62 414 q 75 601 62 540 q 114 718 88 663 q 179 821 140 774 q 271 903 218 869 q 391 958 324 938 q 539 977 458 977 q 687 958 621 977 q 807 903 754 938 q 900 821 861 869 q 965 718 939 774 q 1004 601 991 663 q 1017 477 1017 540 q 1006 353 1017 414 q 972 237 996 292 q 911 135 949 182 q 821 53 874 87 q 698 0 768 19 q 539 -20 628 -20 m 366 477 q 378 338 366 396 q 412 244 390 281 q 466 191 434 208 q 539 174 498 174 q 612 191 580 174 q 667 244 644 208 q 702 338 690 281 q 713 477 713 396 q 702 617 713 559 q 667 712 690 675 q 612 766 644 749 q 539 784 580 784 q 466 766 498 784 q 412 712 434 749 q 378 617 390 675 q 366 477 366 559 m 664 1097 q 596 1112 631 1097 q 528 1145 562 1127 q 461 1178 494 1163 q 397 1193 428 1193 q 360 1171 375 1193 q 341 1101 345 1149 l 182 1135 q 215 1245 193 1198 q 264 1325 236 1293 q 324 1373 292 1357 q 391 1390 357 1390 q 465 1375 427 1390 q 539 1342 502 1360 q 611 1309 576 1324 q 680 1294 647 1294 q 719 1316 703 1294 q 739 1386 734 1337 l 898 1352 q 861 1242 884 1289 q 806 1162 837 1194 q 738 1114 774 1130 q 664 1097 702 1097 z "},"Ö":{"ha":1080,"x_min":62,"x_max":1017,"o":"m 539 -20 q 380 0 450 -20 q 257 53 311 19 q 167 135 204 87 q 107 237 130 182 q 73 353 83 292 q 62 477 62 414 q 75 601 62 540 q 114 718 88 663 q 179 821 140 774 q 271 903 218 869 q 391 958 324 938 q 539 977 458 977 q 687 958 621 977 q 807 903 754 938 q 900 821 861 869 q 965 718 939 774 q 1004 601 991 663 q 1017 477 1017 540 q 1006 353 1017 414 q 972 237 996 292 q 911 135 949 182 q 821 53 874 87 q 698 0 768 19 q 539 -20 628 -20 m 366 477 q 378 338 366 396 q 412 244 390 281 q 466 191 434 208 q 539 174 498 174 q 612 191 580 174 q 667 244 644 208 q 702 338 690 281 q 713 477 713 396 q 702 617 713 559 q 667 712 690 675 q 612 766 644 749 q 539 784 580 784 q 466 766 498 784 q 412 712 434 749 q 378 617 390 675 q 366 477 366 559 m 342 1065 q 281 1077 307 1065 q 236 1108 254 1088 q 210 1152 218 1127 q 201 1202 201 1176 q 210 1252 201 1227 q 236 1296 218 1276 q 280 1326 254 1315 q 342 1338 307 1338 q 404 1326 377 1338 q 448 1296 430 1315 q 474 1252 465 1276 q 484 1202 484 1227 q 474 1152 484 1176 q 448 1108 465 1127 q 404 1077 430 1088 q 342 1065 377 1065 m 737 1065 q 676 1077 703 1065 q 632 1108 650 1088 q 605 1152 614 1127 q 596 1202 596 1176 q 605 1252 596 1227 q 631 1296 614 1276 q 675 1326 649 1315 q 737 1338 702 1338 q 799 1326 772 1338 q 843 1296 825 1315 q 870 1252 861 1276 q 879 1202 879 1227 q 870 1152 879 1176 q 843 1108 861 1127 q 799 1077 825 1088 q 737 1065 772 1065 z "},"×":{"ha":862,"x_min":157,"x_max":709,"o":"m 576 464 l 709 332 l 564 188 l 433 319 l 301 188 l 157 332 l 288 464 l 157 596 l 301 741 l 433 608 l 564 741 l 709 596 l 576 464 z "},"Ø":{"ha":1080,"x_min":62,"x_max":1017,"o":"m 539 -20 q 380 0 450 -20 l 380 0 l 309 -136 l 173 -68 l 242 63 q 167 134 199 94 q 107 237 130 182 q 73 353 83 292 q 62 477 62 414 q 75 601 62 540 q 114 718 88 663 q 179 821 140 774 q 271 903 218 869 q 391 958 324 938 q 539 977 458 977 q 687 958 621 977 q 711 949 700 954 l 783 1085 l 919 1017 l 844 876 q 900 821 875 851 q 965 718 939 774 q 1004 601 991 663 q 1017 477 1017 540 q 1006 353 1017 414 q 972 237 996 292 q 911 135 949 182 q 821 53 874 87 q 698 0 768 19 q 539 -20 628 -20 m 366 477 q 378 338 366 396 q 381 325 379 332 l 614 765 q 612 766 613 766 q 539 784 580 784 q 466 766 498 784 q 412 712 434 749 q 378 617 390 675 q 366 477 366 559 m 539 174 q 612 191 580 174 q 667 244 644 208 q 702 338 690 281 q 713 477 713 396 q 703 610 713 554 l 478 184 q 539 174 506 174 z "},"Ù":{"ha":1071,"x_min":115,"x_max":955,"o":"m 549 -20 q 368 10 448 -20 q 231 99 288 39 q 145 248 175 158 q 115 457 115 337 l 115 959 l 419 959 l 419 456 q 426 336 419 389 q 449 248 433 284 q 492 193 465 212 q 560 174 519 174 q 632 193 605 174 q 675 248 660 212 q 696 336 690 284 q 701 456 701 389 l 701 959 l 955 959 l 955 457 q 931 247 955 336 q 858 98 907 157 q 731 9 808 39 q 549 -20 655 -20 m 524 1041 l 351 1471 l 654 1471 l 720 1041 l 524 1041 z "},"Ú":{"ha":1071,"x_min":115,"x_max":955,"o":"m 549 -20 q 368 10 448 -20 q 231 99 288 39 q 145 248 175 158 q 115 457 115 337 l 115 959 l 419 959 l 419 456 q 426 336 419 389 q 449 248 433 284 q 492 193 465 212 q 560 174 519 174 q 632 193 605 174 q 675 248 660 212 q 696 336 690 284 q 701 456 701 389 l 701 959 l 955 959 l 955 457 q 931 247 955 336 q 858 98 907 157 q 731 9 808 39 q 549 -20 655 -20 m 351 1042 l 416 1472 l 720 1472 l 546 1042 l 351 1042 z "},"Û":{"ha":1071,"x_min":115,"x_max":955,"o":"m 549 -20 q 368 10 448 -20 q 231 99 288 39 q 145 248 175 158 q 115 457 115 337 l 115 959 l 419 959 l 419 456 q 426 336 419 389 q 449 248 433 284 q 492 193 465 212 q 560 174 519 174 q 632 193 605 174 q 675 248 660 212 q 696 336 690 284 q 701 456 701 389 l 701 959 l 955 959 l 955 457 q 931 247 955 336 q 858 98 907 157 q 731 9 808 39 q 549 -20 655 -20 m 637 1073 l 535 1345 l 433 1073 l 230 1073 l 366 1442 l 705 1442 l 840 1073 l 637 1073 z "},"Ü":{"ha":1071,"x_min":115,"x_max":955,"o":"m 549 -20 q 368 10 448 -20 q 231 99 288 39 q 145 248 175 158 q 115 457 115 337 l 115 959 l 419 959 l 419 456 q 426 336 419 389 q 449 248 433 284 q 492 193 465 212 q 560 174 519 174 q 632 193 605 174 q 675 248 660 212 q 696 336 690 284 q 701 456 701 389 l 701 959 l 955 959 l 955 457 q 931 247 955 336 q 858 98 907 157 q 731 9 808 39 q 549 -20 655 -20 m 337 1065 q 276 1077 302 1065 q 232 1108 250 1088 q 205 1152 214 1127 q 196 1202 196 1176 q 205 1252 196 1227 q 231 1296 214 1276 q 275 1326 249 1315 q 337 1338 302 1338 q 399 1326 372 1338 q 443 1296 425 1315 q 470 1252 460 1276 q 479 1202 479 1227 q 470 1152 479 1176 q 443 1108 460 1127 q 399 1077 425 1088 q 337 1065 372 1065 m 732 1065 q 671 1077 698 1065 q 627 1108 645 1088 q 600 1152 609 1127 q 591 1202 591 1176 q 600 1252 591 1227 q 627 1296 609 1276 q 671 1326 644 1315 q 732 1338 697 1338 q 794 1326 768 1338 q 838 1296 821 1315 q 865 1252 856 1276 q 874 1202 874 1227 q 865 1152 874 1176 q 838 1108 856 1127 q 794 1077 821 1088 q 732 1065 768 1065 z "},"Ý":{"ha":838,"x_min":-16,"x_max":852,"o":"m 281 0 l 281 330 l -16 959 l 333 959 l 450 614 l 557 959 l 852 959 l 585 338 l 585 0 l 281 0 m 234 1042 l 299 1472 l 603 1472 l 429 1042 l 234 1042 z "},"Þ":{"ha":1008,"x_min":115,"x_max":940,"o":"m 115 959 l 419 959 l 419 868 l 486 868 q 646 856 577 868 q 766 823 715 844 q 850 771 817 802 q 904 705 884 741 q 932 628 924 669 q 940 543 940 587 q 921 432 940 486 q 854 335 901 378 q 727 265 807 292 q 528 239 648 239 l 419 239 l 419 0 l 115 0 l 115 959 m 419 391 l 506 391 q 588 402 555 391 q 642 435 621 414 q 671 483 662 455 q 680 543 680 511 q 667 616 680 587 q 630 663 654 646 q 575 687 607 680 q 506 694 543 694 l 419 694 l 419 391 z "},"ß":{"ha":1011,"x_min":106,"x_max":1010,"o":"m 399 0 l 106 0 l 106 684 q 124 791 106 745 q 174 869 142 836 q 246 923 205 902 q 334 956 288 944 q 429 972 380 968 q 524 977 478 977 q 700 957 627 977 q 821 902 774 936 q 890 826 868 869 q 912 739 912 783 q 901 673 912 706 q 869 610 890 640 q 817 556 848 580 q 747 517 787 532 q 859 488 810 510 q 942 432 908 465 q 992 359 975 399 q 1010 275 1010 318 q 980 164 1010 219 q 887 65 950 109 q 728 -6 825 21 q 498 -34 631 -34 l 498 136 q 595 147 554 136 q 665 177 637 158 q 706 219 692 195 q 720 267 720 243 q 707 314 720 291 q 667 355 694 337 q 601 384 641 373 q 509 395 562 395 l 509 562 q 582 573 551 562 q 632 602 612 585 q 661 642 652 620 q 670 685 670 664 q 641 769 670 738 q 548 800 611 800 q 439 769 478 800 q 399 685 400 738 l 399 0 z "},"à":{"ha":924,"x_min":62,"x_max":833,"o":"m 282 -20 q 199 -7 239 -20 q 129 30 159 5 q 80 93 98 55 q 62 184 62 132 q 79 271 62 234 q 122 334 95 308 q 187 378 150 361 q 265 405 224 395 q 350 419 307 415 q 435 422 394 422 q 490 421 464 422 q 540 418 517 420 q 524 489 538 460 q 484 533 509 517 q 427 557 460 550 q 359 564 395 564 q 291 559 326 564 q 222 548 256 555 q 159 534 189 542 q 106 521 129 527 l 106 711 q 177 725 139 718 q 257 738 216 732 q 341 747 298 743 q 427 750 385 750 q 529 744 479 750 q 625 722 580 737 q 708 682 670 707 q 774 620 747 657 q 817 533 802 583 q 833 417 833 483 l 833 0 l 553 0 l 553 121 q 508 62 537 88 q 442 18 479 36 q 364 -10 406 -1 q 282 -20 323 -20 m 397 140 q 440 150 416 140 q 487 182 465 161 q 525 237 509 204 q 540 317 540 271 l 517 317 q 451 310 485 317 q 388 290 416 303 q 341 256 359 276 q 323 211 323 237 q 330 177 323 191 q 347 155 336 163 q 371 143 357 146 q 397 140 384 140 m 451 827 l 277 1257 l 581 1257 l 646 827 l 451 827 z "},"á":{"ha":924,"x_min":62,"x_max":833,"o":"m 282 -20 q 199 -7 239 -20 q 129 30 159 5 q 80 93 98 55 q 62 184 62 132 q 79 271 62 234 q 122 334 95 308 q 187 378 150 361 q 265 405 224 395 q 350 419 307 415 q 435 422 394 422 q 490 421 464 422 q 540 418 517 420 q 524 489 538 460 q 484 533 509 517 q 427 557 460 550 q 359 564 395 564 q 291 559 326 564 q 222 548 256 555 q 159 534 189 542 q 106 521 129 527 l 106 711 q 177 725 139 718 q 257 738 216 732 q 341 747 298 743 q 427 750 385 750 q 529 744 479 750 q 625 722 580 737 q 708 682 670 707 q 774 620 747 657 q 817 533 802 583 q 833 417 833 483 l 833 0 l 553 0 l 553 121 q 508 62 537 88 q 442 18 479 36 q 364 -10 406 -1 q 282 -20 323 -20 m 397 140 q 440 150 416 140 q 487 182 465 161 q 525 237 509 204 q 540 317 540 271 l 517 317 q 451 310 485 317 q 388 290 416 303 q 341 256 359 276 q 323 211 323 237 q 330 177 323 191 q 347 155 336 163 q 371 143 357 146 q 397 140 384 140 m 277 827 l 342 1257 l 646 1257 l 473 827 l 277 827 z "},"â":{"ha":924,"x_min":62,"x_max":833,"o":"m 282 -20 q 199 -7 239 -20 q 129 30 159 5 q 80 93 98 55 q 62 184 62 132 q 79 271 62 234 q 122 334 95 308 q 187 378 150 361 q 265 405 224 395 q 350 419 307 415 q 435 422 394 422 q 490 421 464 422 q 540 418 517 420 q 524 489 538 460 q 484 533 509 517 q 427 557 460 550 q 359 564 395 564 q 291 559 326 564 q 222 548 256 555 q 159 534 189 542 q 106 521 129 527 l 106 711 q 177 725 139 718 q 257 738 216 732 q 341 747 298 743 q 427 750 385 750 q 529 744 479 750 q 625 722 580 737 q 708 682 670 707 q 774 620 747 657 q 817 533 802 583 q 833 417 833 483 l 833 0 l 553 0 l 553 121 q 508 62 537 88 q 442 18 479 36 q 364 -10 406 -1 q 282 -20 323 -20 m 397 140 q 440 150 416 140 q 487 182 465 161 q 525 237 509 204 q 540 317 540 271 l 517 317 q 451 310 485 317 q 388 290 416 303 q 341 256 359 276 q 323 211 323 237 q 330 177 323 191 q 347 155 336 163 q 371 143 357 146 q 397 140 384 140 m 564 846 l 462 1119 l 360 846 l 157 846 l 292 1215 l 631 1215 l 767 846 l 564 846 z "},"ã":{"ha":924,"x_min":62,"x_max":833,"o":"m 282 -20 q 199 -7 239 -20 q 129 30 159 5 q 80 93 98 55 q 62 184 62 132 q 79 271 62 234 q 122 334 95 308 q 187 378 150 361 q 265 405 224 395 q 350 419 307 415 q 435 422 394 422 q 490 421 464 422 q 540 418 517 420 q 524 489 538 460 q 484 533 509 517 q 427 557 460 550 q 359 564 395 564 q 291 559 326 564 q 222 548 256 555 q 159 534 189 542 q 106 521 129 527 l 106 711 q 177 725 139 718 q 257 738 216 732 q 341 747 298 743 q 427 750 385 750 q 529 744 479 750 q 625 722 580 737 q 708 682 670 707 q 774 620 747 657 q 817 533 802 583 q 833 417 833 483 l 833 0 l 553 0 l 553 121 q 508 62 537 88 q 442 18 479 36 q 364 -10 406 -1 q 282 -20 323 -20 m 397 140 q 440 150 416 140 q 487 182 465 161 q 525 237 509 204 q 540 317 540 271 l 517 317 q 451 310 485 317 q 388 290 416 303 q 341 256 359 276 q 323 211 323 237 q 330 177 323 191 q 347 155 336 163 q 371 143 357 146 q 397 140 384 140 m 586 844 q 518 859 553 844 q 450 892 484 874 q 383 925 416 910 q 319 940 350 940 q 282 918 297 940 q 263 848 267 897 l 104 882 q 137 992 115 945 q 186 1072 158 1040 q 246 1120 214 1104 q 313 1137 279 1137 q 387 1122 349 1137 q 461 1089 424 1107 q 533 1056 498 1071 q 602 1041 569 1041 q 641 1063 625 1041 q 661 1133 656 1084 l 820 1099 q 783 989 806 1036 q 728 909 759 941 q 660 861 696 877 q 586 844 624 844 z "},"ä":{"ha":924,"x_min":62,"x_max":833,"o":"m 282 -20 q 199 -7 239 -20 q 129 30 159 5 q 80 93 98 55 q 62 184 62 132 q 79 271 62 234 q 122 334 95 308 q 187 378 150 361 q 265 405 224 395 q 350 419 307 415 q 435 422 394 422 q 490 421 464 422 q 540 418 517 420 q 524 489 538 460 q 484 533 509 517 q 427 557 460 550 q 359 564 395 564 q 291 559 326 564 q 222 548 256 555 q 159 534 189 542 q 106 521 129 527 l 106 711 q 177 725 139 718 q 257 738 216 732 q 341 747 298 743 q 427 750 385 750 q 529 744 479 750 q 625 722 580 737 q 708 682 670 707 q 774 620 747 657 q 817 533 802 583 q 833 417 833 483 l 833 0 l 553 0 l 553 121 q 508 62 537 88 q 442 18 479 36 q 364 -10 406 -1 q 282 -20 323 -20 m 397 140 q 440 150 416 140 q 487 182 465 161 q 525 237 509 204 q 540 317 540 271 l 517 317 q 451 310 485 317 q 388 290 416 303 q 341 256 359 276 q 323 211 323 237 q 330 177 323 191 q 347 155 336 163 q 371 143 357 146 q 397 140 384 140 m 264 812 q 203 824 229 812 q 158 855 176 836 q 132 899 140 874 q 123 949 123 923 q 132 999 123 975 q 158 1043 140 1023 q 202 1074 176 1062 q 264 1085 229 1085 q 326 1074 299 1085 q 370 1043 352 1062 q 396 999 387 1023 q 406 949 406 975 q 396 899 406 923 q 370 855 387 874 q 326 824 352 836 q 264 812 299 812 m 659 812 q 598 824 625 812 q 554 855 572 836 q 527 899 536 874 q 518 949 518 923 q 527 999 518 975 q 553 1043 536 1023 q 597 1074 571 1062 q 659 1085 624 1085 q 721 1074 694 1085 q 765 1043 747 1062 q 792 999 783 1023 q 801 949 801 975 q 792 899 801 923 q 765 855 783 874 q 721 824 747 836 q 659 812 694 812 z "},"å":{"ha":924,"x_min":62,"x_max":833,"o":"m 282 -20 q 199 -7 239 -20 q 129 30 159 5 q 80 93 98 55 q 62 184 62 132 q 79 271 62 234 q 122 334 95 308 q 187 378 150 361 q 265 405 224 395 q 350 419 307 415 q 435 422 394 422 q 490 421 464 422 q 540 418 517 420 q 524 489 538 460 q 484 533 509 517 q 427 557 460 550 q 359 564 395 564 q 291 559 326 564 q 222 548 256 555 q 159 534 189 542 q 106 521 129 527 l 106 711 q 177 725 139 718 q 257 738 216 732 q 341 747 298 743 q 427 750 385 750 q 529 744 479 750 q 625 722 580 737 q 708 682 670 707 q 774 620 747 657 q 817 533 802 583 q 833 417 833 483 l 833 0 l 553 0 l 553 121 q 508 62 537 88 q 442 18 479 36 q 364 -10 406 -1 q 282 -20 323 -20 m 397 140 q 440 150 416 140 q 487 182 465 161 q 525 237 509 204 q 540 317 540 271 l 517 317 q 451 310 485 317 q 388 290 416 303 q 341 256 359 276 q 323 211 323 237 q 330 177 323 191 q 347 155 336 163 q 371 143 357 146 q 397 140 384 140 m 397 955 q 414 908 397 926 q 462 890 431 890 q 510 908 492 890 q 527 955 527 926 q 510 1002 527 983 q 462 1020 492 1020 q 414 1002 431 1020 q 397 955 397 983 m 310 955 q 320 1004 310 980 q 349 1045 330 1027 q 397 1074 368 1063 q 462 1085 425 1085 q 527 1074 498 1085 q 575 1045 555 1063 q 604 1004 594 1027 q 614 955 614 980 q 604 906 614 929 q 575 864 594 882 q 527 836 555 846 q 462 825 498 825 q 397 836 425 825 q 349 864 368 846 q 320 906 330 882 q 310 955 310 929 z "},"æ":{"ha":1341,"x_min":62,"x_max":1293,"o":"m 1271 29 q 1133 -6 1207 8 q 979 -20 1059 -20 q 795 8 882 -20 q 648 98 709 37 q 578 48 619 70 q 489 11 537 26 q 388 -12 441 -4 q 282 -20 335 -20 q 199 -7 239 -20 q 129 30 159 5 q 80 93 98 55 q 62 184 62 132 q 79 271 62 234 q 122 334 95 308 q 187 378 150 361 q 265 405 224 395 q 350 419 307 415 q 435 422 394 422 q 490 421 464 422 q 540 418 517 420 q 524 489 538 460 q 484 533 509 517 q 427 557 460 550 q 359 564 395 564 q 291 559 326 564 q 222 548 256 555 q 159 534 189 542 q 106 521 129 527 l 106 711 q 177 725 139 718 q 257 738 216 732 q 341 747 298 743 q 427 750 385 750 q 584 733 509 750 q 718 675 660 717 q 843 731 776 712 q 975 750 909 750 q 1113 733 1053 750 q 1212 686 1173 715 q 1272 618 1252 657 q 1293 536 1293 580 q 1275 446 1293 484 q 1226 384 1257 409 q 1157 343 1196 358 q 1073 321 1117 329 q 983 311 1029 313 q 896 309 937 309 q 868 310 882 309 q 842 310 855 310 q 864 245 848 271 q 904 202 880 218 q 959 178 928 185 q 1027 171 991 171 q 1085 175 1054 171 q 1147 186 1116 179 q 1210 202 1179 193 q 1271 222 1242 212 l 1271 29 m 836 414 q 878 416 852 415 q 932 421 903 418 q 989 431 960 425 q 1040 446 1017 437 q 1078 470 1063 456 q 1092 505 1092 484 q 1064 560 1092 539 q 988 581 1037 581 q 940 574 966 581 q 892 549 914 568 q 854 498 869 531 q 836 414 838 466 m 397 140 q 440 150 416 140 q 487 182 465 161 q 525 237 509 204 q 540 317 540 271 l 517 317 q 451 310 485 317 q 388 290 416 303 q 341 256 359 276 q 323 211 323 237 q 330 177 323 191 q 347 155 336 163 q 371 143 357 146 q 397 140 384 140 z "},"ç":{"ha":823,"x_min":54,"x_max":738,"o":"m 347 365 q 359 279 347 315 q 393 218 371 242 q 445 182 414 194 q 513 170 475 170 q 606 183 562 170 q 694 220 649 197 l 738 43 q 673 16 708 28 q 602 -4 639 4 q 528 -16 566 -12 q 454 -20 490 -20 q 300 3 372 -20 q 173 74 227 26 q 86 194 118 121 q 54 366 54 267 q 86 537 54 465 q 173 657 118 610 q 300 728 227 705 q 454 751 372 751 q 528 747 490 751 q 602 735 566 743 q 673 715 639 727 q 738 688 708 703 l 694 511 q 606 548 649 534 q 513 561 562 561 q 445 549 475 561 q 393 513 414 537 q 359 451 371 488 q 347 365 347 414 m 360 0 l 496 0 l 496 -68 q 599 -87 554 -68 q 674 -139 644 -107 q 720 -213 704 -172 q 735 -297 735 -254 q 719 -384 735 -341 q 667 -460 702 -427 q 580 -514 633 -494 q 456 -534 528 -534 q 410 -532 434 -534 q 360 -525 386 -530 l 360 -324 q 422 -330 395 -330 q 468 -323 448 -330 q 502 -303 488 -315 q 522 -276 515 -292 q 528 -245 528 -261 q 522 -214 528 -229 q 503 -188 515 -199 q 471 -169 490 -176 q 426 -161 452 -161 q 360 -174 395 -161 l 360 0 z "},"è":{"ha":880,"x_min":54,"x_max":806,"o":"m 784 29 q 646 -6 720 8 q 492 -20 572 -20 q 326 3 405 -20 q 186 75 246 26 q 90 199 125 124 q 54 378 54 274 q 73 487 54 437 q 122 579 91 538 q 196 652 154 621 q 287 706 239 684 q 387 739 336 728 q 488 750 439 750 q 626 733 566 750 q 725 686 686 715 q 785 618 765 657 q 806 536 806 580 q 788 446 806 484 q 740 384 770 409 q 670 343 709 358 q 586 321 630 329 q 496 311 542 313 q 409 309 450 309 q 381 310 395 309 q 355 310 368 310 q 377 245 361 271 q 417 202 393 218 q 472 178 441 185 q 540 171 504 171 q 598 175 567 171 q 660 186 629 179 q 723 202 692 193 q 784 222 755 212 l 784 29 m 349 414 q 391 416 366 415 q 445 421 416 418 q 502 431 473 425 q 553 446 530 437 q 591 470 576 456 q 605 505 605 484 q 577 560 605 539 q 501 581 550 581 q 453 574 479 581 q 405 549 427 568 q 367 498 382 531 q 349 414 351 466 m 429 827 l 255 1257 l 559 1257 l 624 827 l 429 827 z "},"é":{"ha":880,"x_min":54,"x_max":806,"o":"m 784 29 q 646 -6 720 8 q 492 -20 572 -20 q 326 3 405 -20 q 186 75 246 26 q 90 199 125 124 q 54 378 54 274 q 73 487 54 437 q 122 579 91 538 q 196 652 154 621 q 287 706 239 684 q 387 739 336 728 q 488 750 439 750 q 626 733 566 750 q 725 686 686 715 q 785 618 765 657 q 806 536 806 580 q 788 446 806 484 q 740 384 770 409 q 670 343 709 358 q 586 321 630 329 q 496 311 542 313 q 409 309 450 309 q 381 310 395 309 q 355 310 368 310 q 377 245 361 271 q 417 202 393 218 q 472 178 441 185 q 540 171 504 171 q 598 175 567 171 q 660 186 629 179 q 723 202 692 193 q 784 222 755 212 l 784 29 m 349 414 q 391 416 366 415 q 445 421 416 418 q 502 431 473 425 q 553 446 530 437 q 591 470 576 456 q 605 505 605 484 q 577 560 605 539 q 501 581 550 581 q 453 574 479 581 q 405 549 427 568 q 367 498 382 531 q 349 414 351 466 m 255 827 l 320 1257 l 624 1257 l 450 827 l 255 827 z "},"ê":{"ha":880,"x_min":54,"x_max":806,"o":"m 784 29 q 646 -6 720 8 q 492 -20 572 -20 q 326 3 405 -20 q 186 75 246 26 q 90 199 125 124 q 54 378 54 274 q 73 487 54 437 q 122 579 91 538 q 196 652 154 621 q 287 706 239 684 q 387 739 336 728 q 488 750 439 750 q 626 733 566 750 q 725 686 686 715 q 785 618 765 657 q 806 536 806 580 q 788 446 806 484 q 740 384 770 409 q 670 343 709 358 q 586 321 630 329 q 496 311 542 313 q 409 309 450 309 q 381 310 395 309 q 355 310 368 310 q 377 245 361 271 q 417 202 393 218 q 472 178 441 185 q 540 171 504 171 q 598 175 567 171 q 660 186 629 179 q 723 202 692 193 q 784 222 755 212 l 784 29 m 349 414 q 391 416 366 415 q 445 421 416 418 q 502 431 473 425 q 553 446 530 437 q 591 470 576 456 q 605 505 605 484 q 577 560 605 539 q 501 581 550 581 q 453 574 479 581 q 405 549 427 568 q 367 498 382 531 q 349 414 351 466 m 541 846 l 439 1119 l 338 846 l 134 846 l 270 1215 l 609 1215 l 745 846 l 541 846 z "},"ë":{"ha":880,"x_min":54,"x_max":806,"o":"m 784 29 q 646 -6 720 8 q 492 -20 572 -20 q 326 3 405 -20 q 186 75 246 26 q 90 199 125 124 q 54 378 54 274 q 73 487 54 437 q 122 579 91 538 q 196 652 154 621 q 287 706 239 684 q 387 739 336 728 q 488 750 439 750 q 626 733 566 750 q 725 686 686 715 q 785 618 765 657 q 806 536 806 580 q 788 446 806 484 q 740 384 770 409 q 670 343 709 358 q 586 321 630 329 q 496 311 542 313 q 409 309 450 309 q 381 310 395 309 q 355 310 368 310 q 377 245 361 271 q 417 202 393 218 q 472 178 441 185 q 540 171 504 171 q 598 175 567 171 q 660 186 629 179 q 723 202 692 193 q 784 222 755 212 l 784 29 m 349 414 q 391 416 366 415 q 445 421 416 418 q 502 431 473 425 q 553 446 530 437 q 591 470 576 456 q 605 505 605 484 q 577 560 605 539 q 501 581 550 581 q 453 574 479 581 q 405 549 427 568 q 367 498 382 531 q 349 414 351 466 m 243 812 q 182 824 209 812 q 138 855 156 836 q 111 899 120 874 q 102 949 102 923 q 111 999 102 975 q 138 1043 120 1023 q 182 1074 155 1062 q 243 1085 208 1085 q 305 1074 279 1085 q 349 1043 332 1062 q 376 999 367 1023 q 385 949 385 975 q 376 899 385 923 q 349 855 367 874 q 305 824 332 836 q 243 812 279 812 m 639 812 q 578 824 604 812 q 533 855 551 836 q 507 899 515 874 q 498 949 498 923 q 507 999 498 975 q 533 1043 515 1023 q 577 1074 551 1062 q 639 1085 604 1085 q 701 1074 674 1085 q 745 1043 727 1062 q 771 999 762 1023 q 781 949 781 975 q 771 899 781 923 q 745 855 762 874 q 701 824 727 836 q 639 812 674 812 z "},"ì":{"ha":454,"x_min":44,"x_max":413,"o":"m 110 732 l 403 732 l 403 0 l 110 0 l 110 732 m 218 827 l 44 1257 l 348 1257 l 413 827 l 218 827 z "},"í":{"ha":454,"x_min":44,"x_max":413,"o":"m 110 732 l 403 732 l 403 0 l 110 0 l 110 732 m 44 827 l 109 1257 l 413 1257 l 239 827 l 44 827 z "},"î":{"ha":454,"x_min":-77,"x_max":534,"o":"m 110 732 l 403 732 l 403 0 l 110 0 l 110 732 m 330 846 l 229 1119 l 127 846 l -77 846 l 59 1215 l 398 1215 l 534 846 l 330 846 z "},"ï":{"ha":454,"x_min":-83,"x_max":595,"o":"m 110 732 l 403 732 l 403 0 l 110 0 l 110 732 m 58 812 q -3 824 23 812 q -48 855 -30 836 q -75 899 -66 874 q -83 949 -83 923 q -75 999 -83 975 q -48 1043 -66 1023 q -4 1074 -31 1062 q 58 1085 22 1085 q 119 1074 93 1085 q 163 1043 146 1062 q 190 999 181 1023 q 199 949 199 975 q 190 899 199 923 q 163 855 181 874 q 119 824 146 836 q 58 812 93 812 m 453 812 q 392 824 418 812 q 348 855 366 836 q 321 899 330 874 q 312 949 312 923 q 321 999 312 975 q 347 1043 330 1023 q 391 1074 365 1062 q 453 1085 418 1085 q 515 1074 488 1085 q 559 1043 541 1062 q 586 999 576 1023 q 595 949 595 975 q 586 899 595 923 q 559 855 576 874 q 515 824 541 836 q 453 812 488 812 z "},"ð":{"ha":943,"x_min":54,"x_max":972,"o":"m 516 749 q 505 754 512 751 q 491 760 500 757 q 472 768 483 763 q 425 774 441 772 q 406 776 408 776 q 316 767 355 777 q 246 751 276 758 q 195 736 216 743 q 163 726 175 730 l 141 934 q 420 977 254 977 q 619 947 539 977 q 747 862 699 916 l 916 931 l 972 810 l 810 745 q 845 606 832 682 q 857 450 857 530 q 850 326 857 386 q 826 214 844 266 q 778 118 808 161 q 699 43 747 75 q 584 -5 651 12 q 427 -22 517 -22 q 295 -10 352 -22 q 197 23 239 2 q 129 73 156 44 q 84 134 101 101 q 61 203 68 167 q 54 275 54 239 q 80 388 54 338 q 150 472 106 437 q 250 525 193 507 q 366 544 306 544 q 471 532 417 544 q 575 500 524 520 q 573 533 575 513 q 569 573 571 553 q 563 611 566 593 q 558 638 560 629 l 451 580 l 390 672 l 516 749 m 445 391 q 384 382 408 391 q 343 357 359 373 q 321 320 328 341 q 315 277 315 300 q 321 233 315 255 q 341 192 328 210 q 374 163 354 174 q 423 153 395 153 q 488 159 460 153 q 535 191 516 166 q 565 262 555 215 q 575 391 575 310 l 445 391 z "},"ñ":{"ha":1066,"x_min":106,"x_max":968,"o":"m 106 732 l 399 732 q 391 672 395 709 q 387 597 387 636 q 445 660 410 632 q 522 708 479 688 q 611 739 564 728 q 706 750 658 750 q 806 734 759 750 q 890 684 854 718 q 947 594 926 649 q 968 460 968 538 l 968 0 l 675 0 l 675 417 q 666 487 675 459 q 642 531 657 515 q 605 554 626 547 q 558 561 583 561 q 505 552 531 561 q 456 527 478 543 q 419 490 435 511 q 399 446 404 469 l 399 0 l 106 0 l 106 732 m 657 844 q 590 859 624 844 q 521 892 555 874 q 454 925 487 910 q 391 940 421 940 q 353 918 368 940 q 334 848 338 897 l 175 882 q 208 992 186 945 q 257 1072 229 1040 q 317 1120 285 1104 q 385 1137 350 1137 q 458 1122 420 1137 q 532 1089 495 1107 q 605 1056 569 1071 q 673 1041 640 1041 q 712 1063 696 1041 q 732 1133 728 1084 l 891 1099 q 854 989 878 1036 q 799 909 830 941 q 731 861 768 877 q 657 844 695 844 z "},"ò":{"ha":955,"x_min":54,"x_max":901,"o":"m 477 -20 q 335 -5 397 -20 q 226 37 273 10 q 146 99 179 63 q 93 178 113 136 q 63 269 73 221 q 54 365 54 316 q 63 460 54 413 q 93 550 73 507 q 146 630 113 593 q 225 693 178 666 q 335 735 273 720 q 477 750 397 750 q 620 735 557 750 q 729 693 682 720 q 809 630 777 666 q 862 550 842 593 q 891 460 882 507 q 901 365 901 413 q 891 269 901 316 q 862 178 882 221 q 809 99 842 136 q 729 37 776 63 q 620 -5 682 10 q 477 -20 557 -20 m 347 365 q 354 293 347 328 q 376 231 361 258 q 416 187 391 203 q 477 170 441 170 q 539 187 514 170 q 579 231 564 203 q 601 293 594 258 q 608 365 608 328 q 601 436 608 401 q 579 499 594 471 q 539 543 564 526 q 477 560 514 560 q 416 543 441 560 q 376 499 391 526 q 354 436 361 471 q 347 365 347 401 m 467 827 l 293 1257 l 597 1257 l 662 827 l 467 827 z "},"ó":{"ha":955,"x_min":54,"x_max":901,"o":"m 477 -20 q 335 -5 397 -20 q 226 37 273 10 q 146 99 179 63 q 93 178 113 136 q 63 269 73 221 q 54 365 54 316 q 63 460 54 413 q 93 550 73 507 q 146 630 113 593 q 225 693 178 666 q 335 735 273 720 q 477 750 397 750 q 620 735 557 750 q 729 693 682 720 q 809 630 777 666 q 862 550 842 593 q 891 460 882 507 q 901 365 901 413 q 891 269 901 316 q 862 178 882 221 q 809 99 842 136 q 729 37 776 63 q 620 -5 682 10 q 477 -20 557 -20 m 347 365 q 354 293 347 328 q 376 231 361 258 q 416 187 391 203 q 477 170 441 170 q 539 187 514 170 q 579 231 564 203 q 601 293 594 258 q 608 365 608 328 q 601 436 608 401 q 579 499 594 471 q 539 543 564 526 q 477 560 514 560 q 416 543 441 560 q 376 499 391 526 q 354 436 361 471 q 347 365 347 401 m 350 827 l 415 1257 l 719 1257 l 545 827 l 350 827 z "},"ô":{"ha":955,"x_min":54,"x_max":901,"o":"m 477 -20 q 335 -5 397 -20 q 226 37 273 10 q 146 99 179 63 q 93 178 113 136 q 63 269 73 221 q 54 365 54 316 q 63 460 54 413 q 93 550 73 507 q 146 630 113 593 q 225 693 178 666 q 335 735 273 720 q 477 750 397 750 q 620 735 557 750 q 729 693 682 720 q 809 630 777 666 q 862 550 842 593 q 891 460 882 507 q 901 365 901 413 q 891 269 901 316 q 862 178 882 221 q 809 99 842 136 q 729 37 776 63 q 620 -5 682 10 q 477 -20 557 -20 m 347 365 q 354 293 347 328 q 376 231 361 258 q 416 187 391 203 q 477 170 441 170 q 539 187 514 170 q 579 231 564 203 q 601 293 594 258 q 608 365 608 328 q 601 436 608 401 q 579 499 594 471 q 539 543 564 526 q 477 560 514 560 q 416 543 441 560 q 376 499 391 526 q 354 436 361 471 q 347 365 347 401 m 579 846 l 477 1119 l 376 846 l 172 846 l 308 1215 l 647 1215 l 783 846 l 579 846 z "},"õ":{"ha":955,"x_min":54,"x_max":901,"o":"m 477 -20 q 335 -5 397 -20 q 226 37 273 10 q 146 99 179 63 q 93 178 113 136 q 63 269 73 221 q 54 365 54 316 q 63 460 54 413 q 93 550 73 507 q 146 630 113 593 q 225 693 178 666 q 335 735 273 720 q 477 750 397 750 q 620 735 557 750 q 729 693 682 720 q 809 630 777 666 q 862 550 842 593 q 891 460 882 507 q 901 365 901 413 q 891 269 901 316 q 862 178 882 221 q 809 99 842 136 q 729 37 776 63 q 620 -5 682 10 q 477 -20 557 -20 m 347 365 q 354 293 347 328 q 376 231 361 258 q 416 187 391 203 q 477 170 441 170 q 539 187 514 170 q 579 231 564 203 q 601 293 594 258 q 608 365 608 328 q 601 436 608 401 q 579 499 594 471 q 539 543 564 526 q 477 560 514 560 q 416 543 441 560 q 376 499 391 526 q 354 436 361 471 q 347 365 347 401 m 602 844 q 534 859 568 844 q 466 892 500 874 q 398 925 431 910 q 335 940 366 940 q 298 918 313 940 q 279 848 283 897 l 119 882 q 152 992 131 945 q 201 1072 174 1040 q 262 1120 229 1104 q 329 1137 294 1137 q 402 1122 365 1137 q 476 1089 439 1107 q 549 1056 513 1071 q 618 1041 585 1041 q 656 1063 641 1041 q 676 1133 672 1084 l 836 1099 q 798 989 822 1036 q 743 909 774 941 q 676 861 712 877 q 602 844 640 844 z "},"ö":{"ha":955,"x_min":54,"x_max":901,"o":"m 477 -20 q 335 -5 397 -20 q 226 37 273 10 q 146 99 179 63 q 93 178 113 136 q 63 269 73 221 q 54 365 54 316 q 63 460 54 413 q 93 550 73 507 q 146 630 113 593 q 225 693 178 666 q 335 735 273 720 q 477 750 397 750 q 620 735 557 750 q 729 693 682 720 q 809 630 777 666 q 862 550 842 593 q 891 460 882 507 q 901 365 901 413 q 891 269 901 316 q 862 178 882 221 q 809 99 842 136 q 729 37 776 63 q 620 -5 682 10 q 477 -20 557 -20 m 347 365 q 354 293 347 328 q 376 231 361 258 q 416 187 391 203 q 477 170 441 170 q 539 187 514 170 q 579 231 564 203 q 601 293 594 258 q 608 365 608 328 q 601 436 608 401 q 579 499 594 471 q 539 543 564 526 q 477 560 514 560 q 416 543 441 560 q 376 499 391 526 q 354 436 361 471 q 347 365 347 401 m 279 812 q 218 824 245 812 q 174 855 192 836 q 147 899 156 874 q 138 949 138 923 q 147 999 138 975 q 174 1043 156 1023 q 218 1074 191 1062 q 279 1085 244 1085 q 341 1074 315 1085 q 385 1043 368 1062 q 412 999 403 1023 q 421 949 421 975 q 412 899 421 923 q 385 855 403 874 q 341 824 368 836 q 279 812 315 812 m 675 812 q 614 824 640 812 q 569 855 587 836 q 543 899 551 874 q 534 949 534 923 q 543 999 534 975 q 569 1043 551 1023 q 613 1074 587 1062 q 675 1085 640 1085 q 736 1074 710 1085 q 781 1043 763 1062 q 807 999 798 1023 q 817 949 817 975 q 807 899 817 923 q 781 855 798 874 q 736 824 763 836 q 675 812 710 812 z "},"÷":{"ha":777,"x_min":134,"x_max":654,"o":"m 394 5 q 342 15 364 5 q 307 40 321 24 q 286 75 292 55 q 279 114 279 94 q 286 154 279 134 q 308 188 294 173 q 344 213 322 203 q 394 222 366 222 q 444 213 422 222 q 480 188 466 203 q 503 154 495 173 q 510 114 510 134 q 503 75 510 94 q 481 40 496 55 q 445 15 467 24 q 394 5 423 5 m 394 543 q 342 552 364 543 q 307 577 321 562 q 286 612 292 593 q 279 651 279 631 q 286 691 279 671 q 308 725 294 710 q 344 750 322 741 q 394 760 366 760 q 444 750 422 760 q 480 725 466 741 q 503 691 495 710 q 510 651 510 671 q 503 612 510 631 q 481 577 496 593 q 445 552 467 562 q 394 543 423 543 m 654 477 l 654 326 l 134 326 l 134 477 l 654 477 z "},"ø":{"ha":955,"x_min":54,"x_max":901,"o":"m 477 -20 q 349 -7 406 -20 l 277 -146 l 176 -96 l 240 28 q 226 37 233 33 q 146 99 179 63 q 93 178 113 136 q 63 269 73 221 q 54 365 54 316 q 63 460 54 413 q 93 550 73 507 q 146 630 113 593 q 225 693 178 666 q 335 735 273 720 q 477 750 397 750 q 605 738 548 750 l 685 894 l 795 836 l 722 697 q 729 692 726 694 q 809 630 777 666 q 862 550 842 593 q 891 460 882 507 q 901 365 901 413 q 891 269 901 316 q 862 178 882 221 q 809 99 842 136 q 729 37 776 63 q 620 -5 682 10 q 477 -20 557 -20 m 347 365 q 354 293 347 328 q 361 264 357 278 l 511 556 q 477 560 496 560 q 416 543 441 560 q 376 499 391 526 q 354 436 361 471 q 347 365 347 401 m 477 170 q 539 187 514 170 q 579 231 564 203 q 601 293 594 258 q 608 365 608 328 q 601 436 608 401 q 595 458 599 448 l 446 174 q 477 170 460 170 z "},"ù":{"ha":1029,"x_min":98,"x_max":923,"o":"m 923 0 l 631 0 l 637 47 q 642 96 640 68 q 645 152 644 123 q 594 80 625 112 q 526 26 563 49 q 446 -8 488 4 q 361 -20 404 -20 q 261 -2 309 -20 q 177 53 214 15 q 120 150 141 90 q 98 293 98 209 l 98 732 l 391 732 l 391 320 q 399 250 391 278 q 420 203 407 221 q 452 178 434 186 q 489 170 469 170 q 535 180 512 170 q 578 205 559 189 q 611 244 597 222 q 630 291 625 266 l 630 732 l 923 732 l 923 0 m 503 827 l 330 1257 l 633 1257 l 699 827 l 503 827 z "},"ú":{"ha":1029,"x_min":98,"x_max":923,"o":"m 923 0 l 631 0 l 637 47 q 642 96 640 68 q 645 152 644 123 q 594 80 625 112 q 526 26 563 49 q 446 -8 488 4 q 361 -20 404 -20 q 261 -2 309 -20 q 177 53 214 15 q 120 150 141 90 q 98 293 98 209 l 98 732 l 391 732 l 391 320 q 399 250 391 278 q 420 203 407 221 q 452 178 434 186 q 489 170 469 170 q 535 180 512 170 q 578 205 559 189 q 611 244 597 222 q 630 291 625 266 l 630 732 l 923 732 l 923 0 m 330 827 l 395 1257 l 699 1257 l 525 827 l 330 827 z "},"û":{"ha":1029,"x_min":98,"x_max":923,"o":"m 923 0 l 631 0 l 637 47 q 642 96 640 68 q 645 152 644 123 q 594 80 625 112 q 526 26 563 49 q 446 -8 488 4 q 361 -20 404 -20 q 261 -2 309 -20 q 177 53 214 15 q 120 150 141 90 q 98 293 98 209 l 98 732 l 391 732 l 391 320 q 399 250 391 278 q 420 203 407 221 q 452 178 434 186 q 489 170 469 170 q 535 180 512 170 q 578 205 559 189 q 611 244 597 222 q 630 291 625 266 l 630 732 l 923 732 l 923 0 m 616 846 l 514 1119 l 412 846 l 209 846 l 345 1215 l 684 1215 l 819 846 l 616 846 z "},"ü":{"ha":1029,"x_min":98,"x_max":923,"o":"m 923 0 l 631 0 l 637 47 q 642 96 640 68 q 645 152 644 123 q 594 80 625 112 q 526 26 563 49 q 446 -8 488 4 q 361 -20 404 -20 q 261 -2 309 -20 q 177 53 214 15 q 120 150 141 90 q 98 293 98 209 l 98 732 l 391 732 l 391 320 q 399 250 391 278 q 420 203 407 221 q 452 178 434 186 q 489 170 469 170 q 535 180 512 170 q 578 205 559 189 q 611 244 597 222 q 630 291 625 266 l 630 732 l 923 732 l 923 0 m 316 812 q 255 824 281 812 q 211 855 229 836 q 184 899 193 874 q 175 949 175 923 q 184 999 175 975 q 210 1043 193 1023 q 254 1074 228 1062 q 316 1085 281 1085 q 378 1074 351 1085 q 422 1043 404 1062 q 449 999 439 1023 q 458 949 458 975 q 449 899 458 923 q 422 855 439 874 q 378 824 404 836 q 316 812 351 812 m 711 812 q 650 824 677 812 q 606 855 624 836 q 579 899 588 874 q 570 949 570 923 q 579 999 570 975 q 606 1043 588 1023 q 650 1074 623 1062 q 711 1085 676 1085 q 773 1074 747 1085 q 817 1043 800 1062 q 844 999 835 1023 q 853 949 853 975 q 844 899 853 923 q 817 855 835 874 q 773 824 800 836 q 711 812 747 812 z "},"ý":{"ha":985,"x_min":98,"x_max":868,"o":"m 575 732 l 868 732 l 868 102 q 852 -35 868 26 q 809 -144 837 -96 q 743 -226 781 -192 q 659 -282 705 -260 q 560 -315 612 -304 q 453 -326 508 -326 q 304 -318 379 -326 q 168 -293 230 -311 l 189 -122 q 312 -144 262 -140 q 386 -149 362 -149 q 494 -130 454 -149 q 555 -69 534 -110 q 572 -29 566 -49 q 583 12 578 -9 q 588 55 587 33 q 589 106 589 78 q 551 60 575 80 q 496 27 526 41 q 434 7 467 14 q 370 0 401 0 q 267 17 315 0 q 180 69 218 33 q 120 160 142 104 q 98 293 98 216 l 98 732 l 359 732 l 359 301 q 369 242 359 267 q 394 202 378 218 q 431 178 410 186 q 472 170 451 170 q 510 177 492 170 q 543 196 529 183 q 566 227 557 208 q 575 269 575 245 l 575 732 m 308 827 l 373 1257 l 677 1257 l 503 827 l 308 827 z "},"þ":{"ha":1008,"x_min":106,"x_max":996,"o":"m 106 959 l 410 959 l 410 653 q 448 703 424 679 q 503 744 472 726 q 571 773 534 762 q 648 784 608 784 q 731 774 689 784 q 811 743 772 764 q 883 689 849 722 q 942 611 917 656 q 981 505 966 565 q 996 371 996 446 q 981 238 996 296 q 942 137 966 180 q 883 64 917 94 q 811 15 849 34 q 731 -12 772 -3 q 648 -20 689 -20 q 571 -13 608 -20 q 503 8 534 -5 q 448 43 472 22 q 410 89 424 63 l 410 -239 l 106 -239 l 106 959 m 410 369 q 420 280 410 317 q 449 220 431 243 q 491 185 467 196 q 540 174 514 174 q 568 175 552 174 q 602 181 585 176 q 635 199 618 187 q 664 233 651 211 q 684 288 676 254 q 692 371 692 321 q 684 452 692 419 q 664 507 676 486 q 635 541 651 529 q 602 558 618 553 q 568 565 585 564 q 540 566 552 566 q 491 557 514 566 q 449 527 467 548 q 420 470 431 505 q 410 382 410 435 l 410 369 z "},"ÿ":{"ha":985,"x_min":98,"x_max":868,"o":"m 575 732 l 868 732 l 868 102 q 852 -35 868 26 q 809 -144 837 -96 q 743 -226 781 -192 q 659 -282 705 -260 q 560 -315 612 -304 q 453 -326 508 -326 q 304 -318 379 -326 q 168 -293 230 -311 l 189 -122 q 312 -144 262 -140 q 386 -149 362 -149 q 494 -130 454 -149 q 555 -69 534 -110 q 572 -29 566 -49 q 583 12 578 -9 q 588 55 587 33 q 589 106 589 78 q 551 60 575 80 q 496 27 526 41 q 434 7 467 14 q 370 0 401 0 q 267 17 315 0 q 180 69 218 33 q 120 160 142 104 q 98 293 98 216 l 98 732 l 359 732 l 359 301 q 369 242 359 267 q 394 202 378 218 q 431 178 410 186 q 472 170 451 170 q 510 177 492 170 q 543 196 529 183 q 566 227 557 208 q 575 269 575 245 l 575 732 m 294 812 q 233 824 260 812 q 189 855 207 836 q 162 899 171 874 q 153 949 153 923 q 162 999 153 975 q 189 1043 171 1023 q 233 1074 206 1062 q 294 1085 259 1085 q 356 1074 330 1085 q 400 1043 382 1062 q 427 999 418 1023 q 436 949 436 975 q 427 899 436 923 q 400 855 418 874 q 356 824 382 836 q 294 812 330 812 m 690 812 q 629 824 655 812 q 584 855 602 836 q 557 899 566 874 q 549 949 549 923 q 557 999 549 975 q 584 1043 566 1023 q 628 1074 602 1062 q 690 1085 654 1085 q 751 1074 725 1085 q 795 1043 778 1062 q 822 999 813 1023 q 831 949 831 975 q 822 899 831 923 q 795 855 813 874 q 751 824 778 836 q 690 812 725 812 z "},"Ă":{"ha":946,"x_min":7,"x_max":939,"o":"m 939 0 l 577 0 l 532 204 l 294 204 l 252 0 l 7 0 l 251 959 l 675 959 l 939 0 m 416 810 l 323 363 l 517 363 l 437 810 l 416 810 m 725 1295 q 704 1188 725 1232 q 649 1116 684 1144 q 568 1074 614 1087 q 473 1061 522 1061 q 369 1074 416 1061 q 290 1116 323 1087 q 239 1188 257 1144 q 220 1295 220 1232 l 364 1295 q 373 1256 364 1272 q 398 1231 382 1240 q 433 1218 413 1222 q 473 1214 452 1214 q 512 1218 493 1214 q 547 1231 532 1222 q 572 1256 562 1240 q 581 1295 581 1272 l 725 1295 z "},"ă":{"ha":924,"x_min":62,"x_max":833,"o":"m 282 -20 q 199 -7 239 -20 q 129 30 159 5 q 80 93 98 55 q 62 184 62 132 q 79 271 62 234 q 122 334 95 308 q 187 378 150 361 q 265 405 224 395 q 350 419 307 415 q 435 422 394 422 q 490 421 464 422 q 540 418 517 420 q 524 489 538 460 q 484 533 509 517 q 427 557 460 550 q 359 564 395 564 q 291 559 326 564 q 222 548 256 555 q 159 534 189 542 q 106 521 129 527 l 106 711 q 177 725 139 718 q 257 738 216 732 q 341 747 298 743 q 427 750 385 750 q 529 744 479 750 q 625 722 580 737 q 708 682 670 707 q 774 620 747 657 q 817 533 802 583 q 833 417 833 483 l 833 0 l 553 0 l 553 121 q 508 62 537 88 q 442 18 479 36 q 364 -10 406 -1 q 282 -20 323 -20 m 397 140 q 440 150 416 140 q 487 182 465 161 q 525 237 509 204 q 540 317 540 271 l 517 317 q 451 310 485 317 q 388 290 416 303 q 341 256 359 276 q 323 211 323 237 q 330 177 323 191 q 347 155 336 163 q 371 143 357 146 q 397 140 384 140 m 714 1042 q 693 935 714 979 q 638 863 673 891 q 557 821 603 834 q 462 808 511 808 q 358 821 405 808 q 279 863 312 834 q 228 935 246 891 q 210 1042 210 979 l 353 1042 q 362 1003 353 1019 q 387 978 372 987 q 422 965 402 969 q 462 961 441 961 q 502 965 482 961 q 536 978 521 969 q 561 1003 551 987 q 570 1042 570 1019 l 714 1042 z "},"Ą":{"ha":950,"x_min":7,"x_max":939,"o":"m 939 0 l 577 0 l 532 204 l 294 204 l 252 0 l 7 0 l 251 959 l 675 959 l 939 0 m 416 810 l 323 363 l 517 363 l 437 810 l 416 810 m 844 -456 q 710 -436 770 -456 q 608 -382 650 -416 q 542 -306 565 -349 q 518 -217 518 -263 q 535 -116 518 -159 q 581 -41 552 -73 q 650 10 610 -10 q 733 43 689 31 q 826 60 778 55 q 920 64 873 64 l 920 0 q 867 -16 896 -5 q 814 -45 839 -26 q 773 -95 790 -64 q 757 -174 757 -126 q 764 -209 757 -193 q 784 -237 772 -225 q 812 -254 796 -248 q 844 -260 827 -260 l 844 -456 z "},"ą":{"ha":924,"x_min":62,"x_max":833,"o":"m 282 -20 q 199 -7 239 -20 q 129 30 159 5 q 80 93 98 55 q 62 184 62 132 q 79 271 62 234 q 122 334 95 308 q 187 378 150 361 q 265 405 224 395 q 350 419 307 415 q 435 422 394 422 q 490 421 464 422 q 540 418 517 420 q 524 489 538 460 q 484 533 509 517 q 427 557 460 550 q 359 564 395 564 q 291 559 326 564 q 222 548 256 555 q 159 534 189 542 q 106 521 129 527 l 106 711 q 177 725 139 718 q 257 738 216 732 q 341 747 298 743 q 427 750 385 750 q 529 744 479 750 q 625 722 580 737 q 708 682 670 707 q 774 620 747 657 q 817 533 802 583 q 833 417 833 483 l 833 0 l 553 0 l 553 121 q 508 62 537 88 q 442 18 479 36 q 364 -10 406 -1 q 282 -20 323 -20 m 397 140 q 440 150 416 140 q 487 182 465 161 q 525 237 509 204 q 540 317 540 271 l 517 317 q 451 310 485 317 q 388 290 416 303 q 341 256 359 276 q 323 211 323 237 q 330 177 323 191 q 347 155 336 163 q 371 143 357 146 q 397 140 384 140 m 757 -456 q 624 -436 684 -456 q 521 -382 564 -416 q 455 -306 478 -349 q 431 -217 431 -263 q 448 -116 431 -159 q 494 -41 465 -73 q 563 10 524 -10 q 647 43 602 31 q 739 60 691 55 q 833 64 787 64 l 833 0 q 781 -16 809 -5 q 728 -45 752 -26 q 687 -95 703 -64 q 670 -174 670 -126 q 677 -209 670 -193 q 697 -237 685 -225 q 725 -254 709 -248 q 757 -260 741 -260 l 757 -456 z "},"Ć":{"ha":968,"x_min":62,"x_max":886,"o":"m 62 477 q 104 686 62 593 q 217 843 146 779 q 382 943 288 908 q 583 977 477 977 q 733 963 656 977 q 886 911 810 949 l 844 694 q 726 743 784 727 q 618 760 667 760 q 513 740 559 760 q 433 684 466 721 q 384 595 401 648 q 366 477 366 543 q 384 359 366 412 q 433 271 401 307 q 513 215 466 234 q 618 195 559 195 q 726 212 667 195 q 844 260 784 228 l 886 43 q 733 -6 810 7 q 583 -20 656 -20 q 382 15 477 -20 q 217 113 288 49 q 104 269 146 177 q 62 477 62 361 m 408 1042 l 473 1472 l 777 1472 l 604 1042 l 408 1042 z "},"ć":{"ha":823,"x_min":54,"x_max":738,"o":"m 347 365 q 359 279 347 315 q 393 218 371 242 q 445 182 414 194 q 513 170 475 170 q 606 183 562 170 q 694 220 649 197 l 738 43 q 673 16 708 28 q 602 -4 639 4 q 528 -16 566 -12 q 454 -20 490 -20 q 300 3 372 -20 q 173 74 227 26 q 86 194 118 121 q 54 366 54 267 q 86 537 54 465 q 173 657 118 610 q 300 728 227 705 q 454 751 372 751 q 528 747 490 751 q 602 735 566 743 q 673 715 639 727 q 738 688 708 703 l 694 511 q 606 548 649 534 q 513 561 562 561 q 445 549 475 561 q 393 513 414 537 q 359 451 371 488 q 347 365 347 414 m 317 827 l 382 1257 l 686 1257 l 512 827 l 317 827 z "},"Č":{"ha":968,"x_min":62,"x_max":886,"o":"m 62 477 q 104 686 62 593 q 217 843 146 779 q 382 943 288 908 q 583 977 477 977 q 733 963 656 977 q 886 911 810 949 l 844 694 q 726 743 784 727 q 618 760 667 760 q 513 740 559 760 q 433 684 466 721 q 384 595 401 648 q 366 477 366 543 q 384 359 366 412 q 433 271 401 307 q 513 215 466 234 q 618 195 559 195 q 726 212 667 195 q 844 260 784 228 l 886 43 q 733 -6 810 7 q 583 -20 656 -20 q 382 15 477 -20 q 217 113 288 49 q 104 269 146 177 q 62 477 62 361 m 374 1072 l 243 1440 l 439 1440 l 548 1182 l 656 1440 l 852 1440 l 722 1072 l 374 1072 z "},"č":{"ha":823,"x_min":54,"x_max":738,"o":"m 347 365 q 359 279 347 315 q 393 218 371 242 q 445 182 414 194 q 513 170 475 170 q 606 183 562 170 q 694 220 649 197 l 738 43 q 673 16 708 28 q 602 -4 639 4 q 528 -16 566 -12 q 454 -20 490 -20 q 300 3 372 -20 q 173 74 227 26 q 86 194 118 121 q 54 366 54 267 q 86 537 54 465 q 173 657 118 610 q 300 728 227 705 q 454 751 372 751 q 528 747 490 751 q 602 735 566 743 q 673 715 639 727 q 738 688 708 703 l 694 511 q 606 548 649 534 q 513 561 562 561 q 445 549 475 561 q 393 513 414 537 q 359 451 371 488 q 347 365 347 414 m 237 846 l 106 1215 l 302 1215 l 411 957 l 519 1215 l 715 1215 l 585 846 l 237 846 z "},"Ď":{"ha":1044,"x_min":115,"x_max":978,"o":"m 115 0 l 115 959 l 449 959 q 671 930 572 959 q 837 843 769 901 q 942 695 905 784 q 978 488 978 607 q 959 325 978 397 q 906 199 941 254 q 824 107 872 145 q 716 46 775 70 q 589 11 657 22 q 446 0 521 0 l 115 0 m 419 217 l 439 217 q 536 227 492 217 q 610 266 579 237 q 657 348 641 295 q 674 488 674 401 q 659 619 674 566 q 615 703 644 671 q 543 748 586 734 q 446 761 500 761 l 419 761 l 419 217 m 297 1076 l 166 1444 l 362 1444 l 471 1186 l 579 1444 l 775 1444 l 644 1076 l 297 1076 z "},"ď":{"ha":1433,"x_min":57,"x_max":1369,"o":"m 387 -20 q 261 3 321 -20 q 156 72 201 25 q 84 192 111 119 q 57 365 57 264 q 84 544 57 471 q 157 664 112 618 q 259 730 201 709 q 378 750 317 750 q 455 741 416 750 q 528 716 494 732 q 589 679 562 701 q 631 631 616 657 l 631 1042 l 924 1042 l 924 0 l 631 0 l 631 121 q 587 61 613 87 q 528 17 560 35 q 460 -10 496 -1 q 387 -20 424 -20 m 350 364 q 362 271 350 309 q 394 211 374 234 q 440 179 414 189 q 492 169 465 169 q 543 179 518 169 q 588 211 568 189 q 620 272 608 234 q 631 365 631 309 q 620 457 631 420 q 588 518 608 495 q 544 551 568 541 q 492 561 519 561 q 440 551 466 561 q 395 518 415 541 q 362 457 374 495 q 350 364 350 420 m 1196 760 q 1187 799 1196 783 q 1158 826 1178 815 q 1104 841 1137 836 q 1022 846 1071 846 l 1022 977 l 1087 977 q 1188 964 1138 977 q 1279 921 1238 952 q 1344 834 1319 889 q 1369 693 1369 779 q 1322 533 1369 588 q 1183 477 1276 477 q 1102 492 1137 477 q 1045 530 1068 507 q 1011 583 1023 553 q 1000 640 1000 612 q 1010 694 1000 668 q 1036 739 1019 720 q 1076 770 1053 758 q 1125 781 1099 781 q 1196 760 1160 781 z "},"Đ":{"ha":1044,"x_min":115,"x_max":978,"o":"m 115 0 l 115 959 l 449 959 q 671 930 572 959 q 837 843 769 901 q 942 695 905 784 q 978 488 978 607 q 959 325 978 397 q 906 199 941 254 q 824 107 872 145 q 716 46 775 70 q 589 11 657 22 q 446 0 521 0 l 115 0 m 419 217 l 439 217 q 536 227 492 217 q 610 266 579 237 q 657 348 641 295 q 674 488 674 401 q 659 619 674 566 q 615 703 644 671 q 543 748 586 734 q 446 761 500 761 l 419 761 l 419 217 z "},"đ":{"ha":1030,"x_min":57,"x_max":1030,"o":"m 387 -20 q 261 3 321 -20 q 156 72 201 25 q 84 192 111 119 q 57 365 57 264 q 84 544 57 471 q 157 664 112 618 q 259 730 201 709 q 378 750 317 750 q 455 741 416 750 q 528 716 494 732 q 589 679 562 701 q 631 631 616 657 l 631 828 l 467 828 l 467 959 l 631 959 l 631 1042 l 924 1042 l 924 959 l 1030 959 l 1030 828 l 924 828 l 924 0 l 631 0 l 631 121 q 587 61 613 87 q 528 17 560 35 q 460 -10 496 -1 q 387 -20 424 -20 m 350 364 q 362 271 350 309 q 394 211 374 234 q 440 179 414 189 q 492 169 465 169 q 543 179 518 169 q 588 211 568 189 q 620 272 608 234 q 631 365 631 309 q 620 457 631 420 q 588 518 608 495 q 544 551 568 541 q 492 561 519 561 q 440 551 466 561 q 395 518 415 541 q 362 457 374 495 q 350 364 350 420 z "},"Ę":{"ha":895,"x_min":116,"x_max":789,"o":"m 116 959 l 789 959 l 789 781 l 420 781 l 420 578 l 745 578 l 745 405 l 420 405 l 420 195 l 789 195 l 789 0 l 116 0 l 116 959 m 713 -456 q 579 -436 640 -456 q 477 -382 519 -416 q 411 -306 434 -349 q 387 -217 387 -263 q 404 -116 387 -159 q 450 -41 421 -73 q 519 10 479 -10 q 603 43 558 31 q 695 60 647 55 q 789 64 743 64 l 789 0 q 736 -16 765 -5 q 684 -45 708 -26 q 643 -95 659 -64 q 626 -174 626 -126 q 633 -209 626 -193 q 653 -237 641 -225 q 681 -254 665 -248 q 713 -260 696 -260 l 713 -456 z "},"ę":{"ha":880,"x_min":54,"x_max":806,"o":"m 784 29 q 646 -6 720 8 q 492 -20 572 -20 q 326 3 405 -20 q 186 75 246 26 q 90 199 125 124 q 54 378 54 274 q 73 487 54 437 q 122 579 91 538 q 196 652 154 621 q 287 706 239 684 q 387 739 336 728 q 488 750 439 750 q 626 733 566 750 q 725 686 686 715 q 785 618 765 657 q 806 536 806 580 q 788 446 806 484 q 740 384 770 409 q 670 343 709 358 q 586 321 630 329 q 496 311 542 313 q 409 309 450 309 q 381 310 395 309 q 355 310 368 310 q 377 245 361 271 q 417 202 393 218 q 472 178 441 185 q 540 171 504 171 q 598 175 567 171 q 660 186 629 179 q 723 202 692 193 q 784 222 755 212 l 784 29 m 349 414 q 391 416 366 415 q 445 421 416 418 q 502 431 473 425 q 553 446 530 437 q 591 470 576 456 q 605 505 605 484 q 577 560 605 539 q 501 581 550 581 q 453 574 479 581 q 405 549 427 568 q 367 498 382 531 q 349 414 351 466 m 708 -456 q 575 -436 635 -456 q 472 -382 515 -416 q 406 -306 429 -349 q 382 -217 382 -263 q 399 -116 382 -159 q 446 -41 416 -73 q 514 10 475 -10 q 598 43 553 31 q 690 60 642 55 q 784 64 738 64 l 784 0 q 732 -16 760 -5 q 679 -45 703 -26 q 638 -95 654 -64 q 621 -174 621 -126 q 629 -209 621 -193 q 648 -237 636 -225 q 676 -254 661 -248 q 708 -260 692 -260 l 708 -456 z "},"Ě":{"ha":895,"x_min":116,"x_max":789,"o":"m 116 959 l 789 959 l 789 781 l 420 781 l 420 578 l 745 578 l 745 405 l 420 405 l 420 195 l 789 195 l 789 0 l 116 0 l 116 959 m 273 1074 l 142 1442 l 338 1442 l 447 1184 l 555 1442 l 751 1442 l 621 1074 l 273 1074 z "},"ě":{"ha":880,"x_min":54,"x_max":806,"o":"m 784 29 q 646 -6 720 8 q 492 -20 572 -20 q 326 3 405 -20 q 186 75 246 26 q 90 199 125 124 q 54 378 54 274 q 73 487 54 437 q 122 579 91 538 q 196 652 154 621 q 287 706 239 684 q 387 739 336 728 q 488 750 439 750 q 626 733 566 750 q 725 686 686 715 q 785 618 765 657 q 806 536 806 580 q 788 446 806 484 q 740 384 770 409 q 670 343 709 358 q 586 321 630 329 q 496 311 542 313 q 409 309 450 309 q 381 310 395 309 q 355 310 368 310 q 377 245 361 271 q 417 202 393 218 q 472 178 441 185 q 540 171 504 171 q 598 175 567 171 q 660 186 629 179 q 723 202 692 193 q 784 222 755 212 l 784 29 m 349 414 q 391 416 366 415 q 445 421 416 418 q 502 431 473 425 q 553 446 530 437 q 591 470 576 456 q 605 505 605 484 q 577 560 605 539 q 501 581 550 581 q 453 574 479 581 q 405 549 427 568 q 367 498 382 531 q 349 414 351 466 m 266 846 l 135 1215 l 331 1215 l 439 957 l 548 1215 l 744 1215 l 613 846 l 266 846 z "},"ħ":{"ha":1007,"x_min":0,"x_max":909,"o":"m 106 1042 l 399 1042 l 399 959 l 543 959 l 543 828 l 399 828 l 399 631 q 448 680 418 658 q 513 717 477 701 q 589 742 549 733 q 669 750 629 750 q 763 734 719 750 q 839 683 806 718 q 890 592 871 648 q 909 459 909 537 l 909 0 l 616 0 l 616 387 q 607 471 616 437 q 585 526 599 505 q 554 555 572 547 q 519 564 537 564 q 479 556 499 564 q 443 534 459 548 q 414 500 426 519 q 399 456 403 480 l 399 0 l 106 0 l 106 828 l 0 828 l 0 959 l 106 959 l 106 1042 z "},"Ĩ":{"ha":536,"x_min":-89,"x_max":627,"o":"m 116 959 l 420 959 l 420 0 l 116 0 l 116 959 m 393 1097 q 326 1112 360 1097 q 257 1145 292 1127 q 190 1178 223 1163 q 127 1193 157 1193 q 90 1171 104 1193 q 71 1101 75 1149 l -89 1135 q -56 1245 -77 1198 q -7 1325 -35 1293 q 54 1373 21 1357 q 121 1390 86 1390 q 194 1375 157 1390 q 268 1342 231 1360 q 341 1309 305 1324 q 410 1294 376 1294 q 448 1316 433 1294 q 468 1386 464 1337 l 627 1352 q 590 1242 614 1289 q 535 1162 566 1194 q 468 1114 504 1130 q 393 1097 431 1097 z "},"ĩ":{"ha":454,"x_min":-130,"x_max":587,"o":"m 110 732 l 403 732 l 403 0 l 110 0 l 110 732 m 353 844 q 285 859 319 844 q 217 892 251 874 q 150 925 182 910 q 86 940 117 940 q 49 918 64 940 q 30 848 34 897 l -130 882 q -97 992 -118 945 q -47 1072 -75 1040 q 13 1120 -20 1104 q 80 1137 45 1137 q 153 1122 116 1137 q 228 1089 191 1107 q 300 1056 264 1071 q 369 1041 336 1041 q 408 1063 392 1041 q 427 1133 423 1084 l 587 1099 q 549 989 573 1036 q 494 909 526 941 q 427 861 463 877 q 353 844 391 844 z "},"ı":{"ha":516,"x_min":110,"x_max":403,"o":"m 110 732 l 403 732 l 403 0 l 110 0 l 110 732 z "},"Ĳ":{"ha":1210,"x_min":116,"x_max":1094,"o":"m 116 959 l 420 959 l 420 0 l 116 0 l 116 959 m 768 -20 q 649 -11 707 -20 q 551 24 592 -2 l 551 217 q 636 199 597 203 q 703 195 675 195 q 751 208 734 195 q 777 240 768 220 q 788 284 786 260 q 790 334 790 309 l 790 959 l 1094 959 l 1094 291 q 1065 151 1094 210 q 991 54 1037 92 q 887 -2 945 16 q 768 -20 828 -20 z "},"ĳ":{"ha":1043,"x_min":72,"x_max":971,"o":"m 110 732 l 403 732 l 403 0 l 110 0 l 110 732 m 257 882 q 184 890 218 882 q 126 913 151 899 q 86 947 101 927 q 72 992 72 968 q 86 1040 72 1019 q 125 1074 100 1061 q 184 1095 151 1088 q 258 1101 218 1101 q 331 1095 297 1101 q 391 1074 366 1088 q 430 1040 416 1061 q 444 992 444 1019 q 430 947 444 968 q 390 913 415 927 q 331 890 365 899 q 257 882 296 882 m 655 -282 q 552 -279 602 -282 q 460 -260 503 -276 l 460 -66 q 492 -76 479 -72 q 516 -82 505 -80 q 536 -86 527 -85 q 557 -87 546 -87 q 603 -76 586 -87 q 630 -46 621 -64 q 642 -4 639 -28 q 644 45 644 20 l 644 732 l 937 732 l 937 30 q 915 -120 937 -60 q 853 -216 892 -180 q 763 -267 814 -252 q 655 -282 712 -282 m 784 894 q 711 902 745 894 q 653 924 677 910 q 613 959 628 939 q 599 1004 599 979 q 613 1052 599 1031 q 652 1086 627 1072 q 711 1106 677 1099 q 785 1113 745 1113 q 858 1106 824 1113 q 918 1086 892 1099 q 957 1052 943 1072 q 971 1004 971 1031 q 957 959 971 979 q 917 924 942 939 q 858 902 892 910 q 784 894 823 894 z "},"Ĵ":{"ha":674,"x_min":16,"x_max":673,"o":"m 233 -20 q 114 -11 171 -20 q 16 24 56 -2 l 16 217 q 100 199 61 203 q 168 195 139 195 q 215 208 198 195 q 241 240 233 220 q 252 284 250 260 q 254 334 254 309 l 254 959 l 558 959 l 558 291 q 530 151 558 210 q 455 54 501 92 q 351 -2 410 16 q 233 -20 292 -20 m 470 1062 l 368 1335 l 267 1062 l 63 1062 l 199 1431 l 538 1431 l 673 1062 l 470 1062 z "},"ĵ":{"ha":527,"x_min":-56,"x_max":570,"o":"m 139 -282 q 36 -279 85 -282 q -56 -260 -14 -276 l -56 -66 q -24 -76 -37 -72 q 0 -82 -11 -80 q 20 -86 11 -85 q 41 -87 30 -87 q 87 -76 70 -87 q 114 -46 104 -64 q 125 -4 123 -28 q 128 45 128 20 l 128 732 l 421 732 l 421 30 q 398 -120 421 -60 q 337 -216 376 -180 q 247 -267 298 -252 q 139 -282 196 -282 m 367 846 l 265 1119 l 163 846 l -40 846 l 96 1215 l 435 1215 l 570 846 l 367 846 z "},"ķ":{"ha":953,"x_min":106,"x_max":981,"o":"m 667 732 l 968 732 l 689 387 l 981 0 l 642 0 l 422 345 l 399 321 l 399 0 l 106 0 l 106 1042 l 399 1042 l 399 406 l 667 732 m 494 -456 q 416 -481 450 -481 q 367 -469 390 -481 q 328 -438 345 -458 q 301 -393 311 -419 q 292 -340 292 -368 q 303 -282 292 -311 q 337 -230 314 -253 q 394 -192 359 -206 q 474 -177 428 -177 q 614 -232 567 -177 q 661 -393 661 -288 q 635 -533 661 -478 q 570 -620 610 -589 q 479 -664 530 -652 q 378 -676 429 -676 l 313 -676 l 313 -546 q 413 -541 376 -546 q 467 -524 449 -535 q 490 -496 486 -513 q 494 -456 494 -479 z "},"ĸ":{"ha":953,"x_min":106,"x_max":981,"o":"m 667 732 l 968 732 l 689 374 l 981 0 l 642 0 l 422 332 l 399 308 l 399 0 l 106 0 l 106 732 l 399 732 l 399 392 l 667 732 z "},"Ĺ":{"ha":780,"x_min":115,"x_max":745,"o":"m 115 959 l 419 959 l 419 195 l 745 195 l 745 0 l 115 0 l 115 959 m 207 1042 l 272 1472 l 576 1472 l 402 1042 l 207 1042 z "},"ĺ":{"ha":505,"x_min":106,"x_max":505,"o":"m 106 977 l 399 977 l 399 0 l 106 0 l 106 977 m 136 1042 l 201 1472 l 505 1472 l 331 1042 l 136 1042 z "},"Ľ":{"ha":897,"x_min":115,"x_max":873,"o":"m 115 959 l 419 959 l 419 195 l 745 195 l 745 0 l 115 0 l 115 959 m 699 987 q 690 1026 699 1010 q 661 1053 682 1042 q 608 1068 641 1063 q 526 1074 574 1074 l 526 1204 l 591 1204 q 692 1192 642 1204 q 782 1148 742 1179 q 848 1061 823 1116 q 873 920 873 1006 q 826 760 873 815 q 686 705 779 705 q 606 719 640 705 q 549 757 572 734 q 515 810 526 781 q 504 867 504 839 q 513 921 504 895 q 540 966 523 947 q 579 997 557 985 q 629 1008 602 1008 q 699 987 663 1008 z "},"ľ":{"ha":810,"x_min":106,"x_max":872,"o":"m 106 1042 l 399 1042 l 399 0 l 106 0 l 106 1042 m 699 760 q 690 799 699 783 q 661 826 681 815 q 607 841 640 836 q 525 846 574 846 l 525 977 l 590 977 q 691 964 641 977 q 782 921 741 952 q 847 834 822 889 q 872 693 872 779 q 825 533 872 588 q 686 477 779 477 q 605 492 640 477 q 548 530 571 507 q 514 583 526 553 q 503 640 503 612 q 513 694 503 668 q 539 739 522 720 q 579 770 556 758 q 628 781 602 781 q 699 760 663 781 z "},"Ŀ":{"ha":1158,"x_min":0,"x_max":0,"o":""},"ŀ":{"ha":505,"x_min":106,"x_max":399,"o":"m 106 1042 l 399 1042 l 399 0 l 106 0 l 106 1042 z "},"Ł":{"ha":884,"x_min":-1,"x_max":745,"o":"m 115 959 l 419 959 l 419 691 l 574 746 l 574 543 l 419 488 l 419 195 l 745 195 l 745 0 l 115 0 l 115 380 l -1 339 l -1 543 l 115 583 l 115 959 z "},"ł":{"ha":513,"x_min":20,"x_max":495,"o":"m 106 1042 l 399 1042 l 399 705 l 495 746 l 495 543 l 399 501 l 399 0 l 106 0 l 106 376 l 20 339 l 20 543 l 106 579 l 106 1042 z "},"Ń":{"ha":1122,"x_min":115,"x_max":1006,"o":"m 115 959 l 409 959 l 774 477 l 774 959 l 1006 959 l 1006 0 l 705 0 l 345 510 l 345 0 l 115 0 l 115 959 m 376 1042 l 441 1472 l 745 1472 l 572 1042 l 376 1042 z "},"ń":{"ha":1066,"x_min":106,"x_max":968,"o":"m 106 732 l 399 732 q 391 672 395 709 q 387 597 387 636 q 445 660 410 632 q 522 708 479 688 q 611 739 564 728 q 706 750 658 750 q 806 734 759 750 q 890 684 854 718 q 947 594 926 649 q 968 460 968 538 l 968 0 l 675 0 l 675 417 q 666 487 675 459 q 642 531 657 515 q 605 554 626 547 q 558 561 583 561 q 505 552 531 561 q 456 527 478 543 q 419 490 435 511 q 399 446 404 469 l 399 0 l 106 0 l 106 732 m 349 827 l 414 1257 l 718 1257 l 544 827 l 349 827 z "},"Ň":{"ha":1122,"x_min":115,"x_max":1006,"o":"m 115 959 l 409 959 l 774 477 l 774 959 l 1006 959 l 1006 0 l 705 0 l 345 510 l 345 0 l 115 0 l 115 959 m 387 1075 l 256 1444 l 452 1444 l 561 1185 l 669 1444 l 865 1444 l 734 1075 l 387 1075 z "},"ň":{"ha":1066,"x_min":106,"x_max":968,"o":"m 106 732 l 399 732 q 391 672 395 709 q 387 597 387 636 q 445 660 410 632 q 522 708 479 688 q 611 739 564 728 q 706 750 658 750 q 806 734 759 750 q 890 684 854 718 q 947 594 926 649 q 968 460 968 538 l 968 0 l 675 0 l 675 417 q 666 487 675 459 q 642 531 657 515 q 605 554 626 547 q 558 561 583 561 q 505 552 531 561 q 456 527 478 543 q 419 490 435 511 q 399 446 404 469 l 399 0 l 106 0 l 106 732 m 359 846 l 229 1215 l 425 1215 l 533 957 l 642 1215 l 838 1215 l 707 846 l 359 846 z "},"Ő":{"ha":1080,"x_min":62,"x_max":1017,"o":"m 539 -20 q 380 0 450 -20 q 257 53 311 19 q 167 135 204 87 q 107 237 130 182 q 73 353 83 292 q 62 477 62 414 q 75 601 62 540 q 114 718 88 663 q 179 821 140 774 q 271 903 218 869 q 391 958 324 938 q 539 977 458 977 q 687 958 621 977 q 807 903 754 938 q 900 821 861 869 q 965 718 939 774 q 1004 601 991 663 q 1017 477 1017 540 q 1006 353 1017 414 q 972 237 996 292 q 911 135 949 182 q 821 53 874 87 q 698 0 768 19 q 539 -20 628 -20 m 366 477 q 378 338 366 396 q 412 244 390 281 q 466 191 434 208 q 539 174 498 174 q 612 191 580 174 q 667 244 644 208 q 702 338 690 281 q 713 477 713 396 q 702 617 713 559 q 667 712 690 675 q 612 766 644 749 q 539 784 580 784 q 466 766 498 784 q 412 712 434 749 q 378 617 390 675 q 366 477 366 559 m 315 1053 l 315 1422 l 576 1422 l 424 1053 l 315 1053 m 619 1053 l 619 1422 l 880 1422 l 728 1053 l 619 1053 z "},"ő":{"ha":955,"x_min":54,"x_max":901,"o":"m 477 -20 q 335 -5 397 -20 q 226 37 273 10 q 146 99 179 63 q 93 178 113 136 q 63 269 73 221 q 54 365 54 316 q 63 460 54 413 q 93 550 73 507 q 146 630 113 593 q 225 693 178 666 q 335 735 273 720 q 477 750 397 750 q 620 735 557 750 q 729 693 682 720 q 809 630 777 666 q 862 550 842 593 q 891 460 882 507 q 901 365 901 413 q 891 269 901 316 q 862 178 882 221 q 809 99 842 136 q 729 37 776 63 q 620 -5 682 10 q 477 -20 557 -20 m 347 365 q 354 293 347 328 q 376 231 361 258 q 416 187 391 203 q 477 170 441 170 q 539 187 514 170 q 579 231 564 203 q 601 293 594 258 q 608 365 608 328 q 601 436 608 401 q 579 499 594 471 q 539 543 564 526 q 477 560 514 560 q 416 543 441 560 q 376 499 391 526 q 354 436 361 471 q 347 365 347 401 m 195 846 l 195 1215 l 456 1215 l 304 846 l 195 846 m 499 846 l 499 1215 l 760 1215 l 608 846 l 499 846 z "},"Œ":{"ha":1394,"x_min":62,"x_max":1305,"o":"m 673 959 l 1305 959 l 1305 781 l 977 781 l 977 578 l 1261 578 l 1261 405 l 977 405 l 977 195 l 1305 195 l 1305 0 l 673 0 l 673 15 q 572 -11 620 -3 q 481 -20 525 -20 q 356 -1 413 -20 q 252 50 298 17 q 170 129 205 83 q 111 230 135 175 q 75 348 87 286 q 62 477 62 411 q 92 669 62 578 q 177 828 122 760 q 309 937 232 897 q 482 977 387 977 q 673 937 572 977 l 673 959 m 366 477 q 381 346 366 403 q 423 251 395 289 q 490 193 451 212 q 580 174 530 174 q 629 178 605 174 q 673 191 652 182 l 673 766 q 629 780 652 776 q 580 784 605 784 q 490 764 530 784 q 423 705 451 744 q 381 609 395 667 q 366 477 366 552 z "},"œ":{"ha":1419,"x_min":54,"x_max":1360,"o":"m 477 -20 q 335 -5 397 -20 q 226 37 273 10 q 146 99 179 63 q 93 178 113 136 q 63 269 73 221 q 54 365 54 316 q 63 460 54 413 q 93 550 73 507 q 146 630 113 593 q 225 693 178 666 q 335 735 273 720 q 477 750 397 750 q 648 727 576 750 q 770 666 720 705 q 902 729 831 707 q 1042 750 972 750 q 1180 733 1120 750 q 1279 686 1240 715 q 1339 618 1319 657 q 1360 536 1360 580 q 1342 446 1360 484 q 1294 384 1324 409 q 1224 343 1263 358 q 1140 321 1184 329 q 1050 311 1096 313 q 963 309 1004 309 q 936 310 949 309 q 909 310 922 310 q 931 245 915 271 q 971 202 947 218 q 1026 178 995 185 q 1094 171 1058 171 q 1152 175 1121 171 q 1214 186 1183 179 q 1277 202 1246 193 q 1338 222 1309 212 l 1338 29 q 1200 -6 1274 8 q 1046 -20 1126 -20 q 894 -1 966 -20 q 763 58 821 18 q 643 1 713 22 q 477 -20 573 -20 m 347 365 q 354 293 347 328 q 376 231 361 258 q 416 187 391 203 q 477 170 441 170 q 539 187 514 170 q 579 231 564 203 q 601 293 594 258 q 608 365 608 328 q 601 436 608 401 q 579 499 594 471 q 539 543 564 526 q 477 560 514 560 q 416 543 441 560 q 376 499 391 526 q 354 436 361 471 q 347 365 347 401 m 903 414 q 945 416 920 415 q 999 421 970 418 q 1056 431 1027 425 q 1107 446 1084 437 q 1145 470 1131 456 q 1159 505 1159 484 q 1132 560 1159 539 q 1055 581 1104 581 q 1007 574 1033 581 q 959 549 981 568 q 921 498 937 531 q 903 414 905 466 z "},"Ŕ":{"ha":987,"x_min":115,"x_max":962,"o":"m 115 959 l 547 959 q 727 932 649 959 q 857 862 805 905 q 935 763 909 818 q 962 651 962 707 q 953 564 962 607 q 922 483 944 521 q 860 413 899 444 q 761 363 821 382 q 791 293 770 335 q 840 202 812 251 q 899 101 867 153 q 962 0 931 49 l 614 0 q 555 148 585 66 q 506 326 524 229 l 419 326 l 419 0 l 115 0 l 115 959 m 471 477 q 558 491 522 477 q 616 526 593 505 q 648 575 638 548 q 658 629 658 602 q 643 717 658 683 q 602 770 628 751 q 543 796 576 789 q 470 803 509 803 l 419 803 l 419 477 l 471 477 m 309 1042 l 374 1472 l 678 1472 l 505 1042 l 309 1042 z "},"ŕ":{"ha":712,"x_min":106,"x_max":694,"o":"m 106 732 l 385 732 q 382 693 383 714 q 382 648 382 671 q 382 601 382 625 q 382 555 382 577 q 417 624 395 589 q 468 686 439 659 q 535 732 498 714 q 620 750 573 750 q 639 749 629 750 q 660 746 650 748 q 679 741 670 744 q 694 734 688 738 l 671 454 q 606 472 640 466 q 547 477 572 477 q 487 469 513 477 q 442 447 460 460 q 413 417 424 433 q 399 385 403 401 l 399 0 l 106 0 l 106 732 m 173 827 l 238 1257 l 542 1257 l 368 827 l 173 827 z "},"Ŗ":{"ha":987,"x_min":115,"x_max":962,"o":"m 115 959 l 547 959 q 727 932 649 959 q 857 862 805 905 q 935 763 909 818 q 962 651 962 707 q 953 564 962 607 q 922 483 944 521 q 860 413 899 444 q 761 363 821 382 q 791 293 770 335 q 840 202 812 251 q 899 101 867 153 q 962 0 931 49 l 614 0 q 555 148 585 66 q 506 326 524 229 l 419 326 l 419 0 l 115 0 l 115 959 m 471 477 q 558 491 522 477 q 616 526 593 505 q 648 575 638 548 q 658 629 658 602 q 643 717 658 683 q 602 770 628 751 q 543 796 576 789 q 470 803 509 803 l 419 803 l 419 477 l 471 477 m 536 -374 q 458 -399 491 -399 q 409 -387 431 -399 q 369 -356 386 -376 q 342 -311 352 -337 q 333 -258 333 -286 q 344 -200 333 -229 q 378 -148 355 -171 q 435 -110 401 -124 q 515 -95 469 -95 q 655 -150 608 -95 q 702 -311 702 -205 q 677 -451 702 -396 q 611 -538 652 -507 q 521 -582 571 -570 q 420 -594 471 -594 l 355 -594 l 355 -464 q 454 -458 418 -464 q 509 -442 490 -453 q 531 -414 527 -431 q 536 -374 536 -397 z "},"ŗ":{"ha":712,"x_min":106,"x_max":694,"o":"m 106 732 l 385 732 q 382 693 383 714 q 382 648 382 671 q 382 601 382 625 q 382 555 382 577 q 417 624 395 589 q 468 686 439 659 q 535 732 498 714 q 620 750 573 750 q 639 749 629 750 q 660 746 650 748 q 679 741 670 744 q 694 734 688 738 l 671 454 q 606 472 640 466 q 547 477 572 477 q 487 469 513 477 q 442 447 460 460 q 413 417 424 433 q 399 385 403 401 l 399 0 l 106 0 l 106 732 m 374 -374 q 296 -399 330 -399 q 247 -387 270 -399 q 208 -356 224 -376 q 181 -311 191 -337 q 172 -258 172 -286 q 183 -200 172 -229 q 217 -148 194 -171 q 274 -110 239 -124 q 354 -95 308 -95 q 494 -150 447 -95 q 541 -311 541 -205 q 515 -451 541 -396 q 450 -538 490 -507 q 359 -582 410 -570 q 258 -594 309 -594 l 193 -594 l 193 -464 q 293 -458 256 -464 q 347 -442 329 -453 q 370 -414 366 -431 q 374 -374 374 -397 z "},"Ř":{"ha":987,"x_min":115,"x_max":962,"o":"m 115 959 l 547 959 q 727 932 649 959 q 857 862 805 905 q 935 763 909 818 q 962 651 962 707 q 953 564 962 607 q 922 483 944 521 q 860 413 899 444 q 761 363 821 382 q 791 293 770 335 q 840 202 812 251 q 899 101 867 153 q 962 0 931 49 l 614 0 q 555 148 585 66 q 506 326 524 229 l 419 326 l 419 0 l 115 0 l 115 959 m 471 477 q 558 491 522 477 q 616 526 593 505 q 648 575 638 548 q 658 629 658 602 q 643 717 658 683 q 602 770 628 751 q 543 796 576 789 q 470 803 509 803 l 419 803 l 419 477 l 471 477 m 320 1069 l 189 1438 l 385 1438 l 494 1180 l 602 1438 l 798 1438 l 667 1069 l 320 1069 z "},"ř":{"ha":712,"x_min":53,"x_max":694,"o":"m 106 732 l 385 732 q 382 693 383 714 q 382 648 382 671 q 382 601 382 625 q 382 555 382 577 q 417 624 395 589 q 468 686 439 659 q 535 732 498 714 q 620 750 573 750 q 639 749 629 750 q 660 746 650 748 q 679 741 670 744 q 694 734 688 738 l 671 454 q 606 472 640 466 q 547 477 572 477 q 487 469 513 477 q 442 447 460 460 q 413 417 424 433 q 399 385 403 401 l 399 0 l 106 0 l 106 732 m 184 846 l 53 1215 l 249 1215 l 357 957 l 466 1215 l 662 1215 l 531 846 l 184 846 z "},"Ś":{"ha":1011,"x_min":93,"x_max":856,"o":"m 802 710 q 738 735 774 722 q 660 758 701 747 q 578 774 620 768 q 500 781 537 781 q 401 764 437 781 q 365 709 365 748 q 377 677 365 691 q 413 651 390 663 q 468 628 436 640 q 540 605 500 617 l 589 589 q 701 544 652 570 q 785 480 751 517 q 838 397 819 444 q 856 291 856 351 q 834 164 856 221 q 765 66 812 106 q 645 3 718 25 q 470 -20 572 -20 q 289 -5 379 -20 q 108 47 199 10 l 108 271 q 278 206 195 227 q 440 185 360 185 q 536 206 506 185 q 566 264 566 227 q 555 303 566 287 q 519 332 544 319 q 454 360 494 346 q 357 391 414 374 q 252 434 300 408 q 168 496 203 460 q 113 581 133 532 q 93 690 93 629 q 115 807 93 754 q 184 898 138 860 q 301 956 230 935 q 469 977 372 977 q 551 974 508 977 q 640 964 595 970 q 729 946 685 957 q 812 920 773 935 l 802 710 m 422 1042 l 487 1472 l 791 1472 l 617 1042 l 422 1042 z "},"ś":{"ha":833,"x_min":65,"x_max":724,"o":"m 339 827 l 404 1257 l 708 1257 l 534 827 l 339 827 m 675 513 q 543 561 608 544 q 429 578 478 578 q 356 569 378 578 q 334 534 334 559 q 366 500 334 513 q 460 471 398 488 q 570 435 522 455 q 653 387 619 416 q 706 317 688 357 q 724 217 724 276 q 703 120 724 164 q 642 45 683 77 q 537 -3 600 14 q 389 -20 474 -20 q 236 -8 313 -20 q 81 31 159 3 l 81 241 q 222 192 151 210 q 356 174 292 174 q 471 221 471 174 q 465 236 471 229 q 445 249 460 243 q 405 263 431 256 q 338 280 378 270 q 232 315 281 294 q 145 367 182 336 q 86 439 108 398 q 65 534 65 481 q 85 621 65 581 q 145 690 105 661 q 246 734 186 718 q 385 750 306 750 q 474 746 431 750 q 554 736 516 742 q 625 724 592 730 q 686 712 658 718 l 675 513 z "},"Ş":{"ha":982,"x_min":90,"x_max":853,"o":"m 800 710 q 735 735 772 722 q 657 758 698 747 q 576 774 617 768 q 498 781 534 781 q 398 764 434 781 q 362 709 362 748 q 375 677 362 691 q 410 651 387 663 q 466 628 433 640 q 537 605 498 617 l 587 589 q 699 544 649 570 q 782 480 748 517 q 835 397 817 444 q 853 291 853 351 q 831 164 853 221 q 762 66 809 106 q 643 3 715 25 q 467 -20 570 -20 q 287 -5 376 -20 q 105 47 197 10 l 105 271 q 275 206 193 227 q 437 185 357 185 q 533 206 503 185 q 564 264 564 227 q 552 303 564 287 q 516 332 541 319 q 452 360 492 346 q 355 391 412 374 q 249 434 298 408 q 165 496 201 460 q 110 581 130 532 q 90 690 90 629 q 113 807 90 754 q 181 898 135 860 q 298 956 227 935 q 467 977 369 977 q 549 974 505 977 q 637 964 592 970 q 726 946 682 957 q 810 920 770 935 l 800 710 m 362 0 l 498 0 l 498 -68 q 601 -87 556 -68 q 676 -139 646 -107 q 722 -213 706 -172 q 737 -297 737 -254 q 721 -384 737 -341 q 669 -460 704 -427 q 582 -514 635 -494 q 458 -534 530 -534 q 412 -532 436 -534 q 362 -525 388 -530 l 362 -324 q 424 -330 397 -330 q 470 -323 450 -330 q 504 -303 490 -315 q 524 -276 517 -292 q 530 -245 530 -261 q 524 -214 530 -229 q 505 -188 517 -199 q 473 -169 492 -176 q 428 -161 454 -161 q 362 -174 397 -161 l 362 0 z "},"ş":{"ha":784,"x_min":65,"x_max":724,"o":"m 675 513 q 543 561 608 544 q 429 578 478 578 q 356 569 378 578 q 334 534 334 559 q 366 500 334 513 q 460 471 398 488 q 570 435 522 455 q 653 387 619 416 q 706 317 688 357 q 724 217 724 276 q 703 120 724 164 q 642 45 683 77 q 537 -3 600 14 q 389 -20 474 -20 q 236 -8 313 -20 q 81 31 159 3 l 81 241 q 222 192 151 210 q 356 174 292 174 q 471 221 471 174 q 465 236 471 229 q 445 249 460 243 q 405 263 431 256 q 338 280 378 270 q 232 315 281 294 q 145 367 182 336 q 86 439 108 398 q 65 534 65 481 q 85 621 65 581 q 145 690 105 661 q 246 734 186 718 q 385 750 306 750 q 474 746 431 750 q 554 736 516 742 q 625 724 592 730 q 686 712 658 718 l 675 513 m 267 0 l 402 0 l 402 -68 q 505 -87 460 -68 q 580 -139 550 -107 q 626 -213 610 -172 q 642 -297 642 -254 q 625 -384 642 -341 q 574 -460 608 -427 q 487 -514 539 -494 q 363 -534 434 -534 q 316 -532 340 -534 q 267 -525 292 -530 l 267 -324 q 328 -330 301 -330 q 375 -323 355 -330 q 408 -303 395 -315 q 428 -276 421 -292 q 435 -245 435 -261 q 428 -214 435 -229 q 409 -188 422 -199 q 377 -169 397 -176 q 332 -161 358 -161 q 267 -174 302 -161 l 267 0 z "},"Š":{"ha":982,"x_min":90,"x_max":853,"o":"m 800 710 q 735 735 772 722 q 657 758 698 747 q 576 774 617 768 q 498 781 534 781 q 398 764 434 781 q 362 709 362 748 q 375 677 362 691 q 410 651 387 663 q 466 628 433 640 q 537 605 498 617 l 587 589 q 699 544 649 570 q 782 480 748 517 q 835 397 817 444 q 853 291 853 351 q 831 164 853 221 q 762 66 809 106 q 643 3 715 25 q 467 -20 570 -20 q 287 -5 376 -20 q 105 47 197 10 l 105 271 q 275 206 193 227 q 437 185 357 185 q 533 206 503 185 q 564 264 564 227 q 552 303 564 287 q 516 332 541 319 q 452 360 492 346 q 355 391 412 374 q 249 434 298 408 q 165 496 201 460 q 110 581 130 532 q 90 690 90 629 q 113 807 90 754 q 181 898 135 860 q 298 956 227 935 q 467 977 369 977 q 549 974 505 977 q 637 964 592 970 q 726 946 682 957 q 810 920 770 935 l 800 710 m 313 1060 l 182 1429 l 378 1429 l 487 1171 l 595 1429 l 791 1429 l 661 1060 l 313 1060 z "},"š":{"ha":814,"x_min":65,"x_max":724,"o":"m 675 513 q 543 561 608 544 q 429 578 478 578 q 356 569 378 578 q 334 534 334 559 q 366 500 334 513 q 460 471 398 488 q 570 435 522 455 q 653 387 619 416 q 706 317 688 357 q 724 217 724 276 q 703 120 724 164 q 642 45 683 77 q 537 -3 600 14 q 389 -20 474 -20 q 236 -8 313 -20 q 81 31 159 3 l 81 241 q 222 192 151 210 q 356 174 292 174 q 471 221 471 174 q 465 236 471 229 q 445 249 460 243 q 405 263 431 256 q 338 280 378 270 q 232 315 281 294 q 145 367 182 336 q 86 439 108 398 q 65 534 65 481 q 85 621 65 581 q 145 690 105 661 q 246 734 186 718 q 385 750 306 750 q 474 746 431 750 q 554 736 516 742 q 625 724 592 730 q 686 712 658 718 l 675 513 m 237 846 l 106 1215 l 302 1215 l 411 957 l 519 1215 l 715 1215 l 585 846 l 237 846 z "},"Ţ":{"ha":757,"x_min":7,"x_max":749,"o":"m 224 0 l 224 738 l 7 738 l 7 959 l 749 959 l 749 738 l 528 738 l 528 0 l 224 0 m 387 -374 q 309 -399 342 -399 q 259 -387 282 -399 q 220 -356 237 -376 q 193 -311 203 -337 q 184 -258 184 -286 q 195 -200 184 -229 q 229 -148 206 -171 q 286 -110 252 -124 q 366 -95 320 -95 q 506 -150 459 -95 q 553 -311 553 -205 q 528 -451 553 -396 q 462 -538 503 -507 q 372 -582 422 -570 q 271 -594 321 -594 l 205 -594 l 205 -464 q 305 -458 269 -464 q 359 -442 341 -453 q 382 -414 378 -431 q 387 -374 387 -397 z "},"ţ":{"ha":714,"x_min":17,"x_max":685,"o":"m 470 -20 q 349 -4 407 -20 q 248 47 292 11 q 178 143 204 83 q 152 293 152 203 l 152 564 l 17 564 l 17 608 l 336 955 l 445 955 l 445 732 l 662 732 q 647 650 654 691 q 640 564 641 608 l 445 564 l 445 296 q 449 249 445 271 q 464 209 452 226 q 497 181 475 191 q 555 170 519 170 q 606 175 578 170 q 669 191 633 179 l 685 16 q 587 -10 642 0 q 470 -20 532 -20 m 412 -374 q 334 -399 368 -399 q 285 -387 308 -399 q 245 -356 262 -376 q 219 -311 229 -337 q 210 -258 210 -286 q 221 -200 210 -229 q 255 -148 232 -171 q 312 -110 277 -124 q 392 -95 346 -95 q 532 -150 485 -95 q 578 -311 578 -205 q 553 -451 578 -396 q 488 -538 528 -507 q 397 -582 448 -570 q 296 -594 347 -594 l 231 -594 l 231 -464 q 331 -458 294 -464 q 385 -442 367 -453 q 408 -414 404 -431 q 412 -374 412 -397 z "},"Ť":{"ha":957,"x_min":7,"x_max":749,"o":"m 224 0 l 224 738 l 7 738 l 7 959 l 749 959 l 749 738 l 528 738 l 528 0 l 224 0 m 264 1074 l 134 1442 l 330 1442 l 438 1184 l 547 1442 l 743 1442 l 612 1074 l 264 1074 z "},"ť":{"ha":690,"x_min":17,"x_max":1174,"o":"m 470 -20 q 349 -4 407 -20 q 248 47 292 11 q 178 143 204 83 q 152 293 152 203 l 152 564 l 17 564 l 17 608 l 336 955 l 445 955 l 445 732 l 662 732 q 647 650 654 691 q 640 564 641 608 l 445 564 l 445 296 q 449 249 445 271 q 464 209 452 226 q 497 181 475 191 q 555 170 519 170 q 606 175 578 170 q 669 191 633 179 l 685 16 q 587 -10 642 0 q 470 -20 532 -20 m 1000 760 q 991 799 1000 783 q 962 826 983 815 q 909 841 942 836 q 827 846 876 846 l 827 977 l 892 977 q 993 964 943 977 q 1083 921 1043 952 q 1149 834 1124 889 q 1174 693 1174 779 q 1127 533 1174 588 q 987 477 1080 477 q 907 492 941 477 q 850 530 873 507 q 816 583 827 553 q 805 640 805 612 q 814 694 805 668 q 841 739 824 720 q 881 770 858 758 q 930 781 903 781 q 1000 760 964 781 z "},"Ů":{"ha":1071,"x_min":115,"x_max":955,"o":"m 549 -20 q 368 10 448 -20 q 231 99 288 39 q 145 248 175 158 q 115 457 115 337 l 115 959 l 419 959 l 419 456 q 426 336 419 389 q 449 248 433 284 q 492 193 465 212 q 560 174 519 174 q 632 193 605 174 q 675 248 660 212 q 696 336 690 284 q 701 456 701 389 l 701 959 l 955 959 l 955 457 q 931 247 955 336 q 858 98 907 157 q 731 9 808 39 q 549 -20 655 -20 m 470 1208 q 487 1161 470 1179 q 535 1143 505 1143 q 583 1161 566 1143 q 600 1208 600 1179 q 583 1255 600 1236 q 535 1273 566 1273 q 487 1255 505 1273 q 470 1208 470 1236 m 383 1208 q 393 1257 383 1233 q 422 1298 403 1280 q 470 1327 441 1316 q 535 1338 498 1338 q 600 1327 572 1338 q 648 1298 629 1316 q 677 1257 667 1280 q 687 1208 687 1233 q 677 1159 687 1182 q 648 1117 667 1135 q 600 1088 629 1099 q 535 1078 572 1078 q 470 1088 498 1078 q 422 1117 441 1099 q 393 1159 403 1135 q 383 1208 383 1182 z "},"ů":{"ha":1029,"x_min":98,"x_max":923,"o":"m 923 0 l 631 0 l 637 47 q 642 96 640 68 q 645 152 644 123 q 594 80 625 112 q 526 26 563 49 q 446 -8 488 4 q 361 -20 404 -20 q 261 -2 309 -20 q 177 53 214 15 q 120 150 141 90 q 98 293 98 209 l 98 732 l 391 732 l 391 320 q 399 250 391 278 q 420 203 407 221 q 452 178 434 186 q 489 170 469 170 q 535 180 512 170 q 578 205 559 189 q 611 244 597 222 q 630 291 625 266 l 630 732 l 923 732 l 923 0 m 449 955 q 466 908 449 926 q 514 890 484 890 q 562 908 545 890 q 579 955 579 926 q 562 1002 579 983 q 514 1020 545 1020 q 466 1002 484 1020 q 449 955 449 983 m 362 955 q 372 1004 362 980 q 401 1045 382 1027 q 449 1074 420 1063 q 514 1085 477 1085 q 579 1074 551 1085 q 627 1045 608 1063 q 656 1004 646 1027 q 666 955 666 980 q 656 906 666 929 q 627 864 646 882 q 579 836 608 846 q 514 825 551 825 q 449 836 477 825 q 401 864 420 846 q 372 906 382 882 q 362 955 362 929 z "},"Ű":{"ha":1071,"x_min":115,"x_max":955,"o":"m 549 -20 q 368 10 448 -20 q 231 99 288 39 q 145 248 175 158 q 115 457 115 337 l 115 959 l 419 959 l 419 456 q 426 336 419 389 q 449 248 433 284 q 492 193 465 212 q 560 174 519 174 q 632 193 605 174 q 675 248 660 212 q 696 336 690 284 q 701 456 701 389 l 701 959 l 955 959 l 955 457 q 931 247 955 336 q 858 98 907 157 q 731 9 808 39 q 549 -20 655 -20 m 253 1066 l 253 1435 l 513 1435 l 361 1066 l 253 1066 m 557 1066 l 557 1435 l 817 1435 l 665 1066 l 557 1066 z "},"ű":{"ha":1029,"x_min":98,"x_max":923,"o":"m 923 0 l 631 0 l 637 47 q 642 96 640 68 q 645 152 644 123 q 594 80 625 112 q 526 26 563 49 q 446 -8 488 4 q 361 -20 404 -20 q 261 -2 309 -20 q 177 53 214 15 q 120 150 141 90 q 98 293 98 209 l 98 732 l 391 732 l 391 320 q 399 250 391 278 q 420 203 407 221 q 452 178 434 186 q 489 170 469 170 q 535 180 512 170 q 578 205 559 189 q 611 244 597 222 q 630 291 625 266 l 630 732 l 923 732 l 923 0 m 232 846 l 232 1215 l 492 1215 l 340 846 l 232 846 m 536 846 l 536 1215 l 796 1215 l 644 846 l 536 846 z "},"Ÿ":{"ha":838,"x_min":-16,"x_max":852,"o":"m 281 0 l 281 330 l -16 959 l 333 959 l 450 614 l 557 959 l 852 959 l 585 338 l 585 0 l 281 0 m 222 1065 q 161 1077 188 1065 q 117 1108 135 1088 q 90 1152 99 1127 q 81 1202 81 1176 q 90 1252 81 1227 q 117 1296 99 1276 q 161 1326 134 1315 q 222 1338 187 1338 q 284 1326 258 1338 q 328 1296 311 1315 q 355 1252 346 1276 q 364 1202 364 1227 q 355 1152 364 1176 q 328 1108 346 1127 q 284 1077 311 1088 q 222 1065 258 1065 m 618 1065 q 557 1077 583 1065 q 512 1108 530 1088 q 486 1152 494 1127 q 477 1202 477 1176 q 486 1252 477 1227 q 512 1296 494 1276 q 556 1326 530 1315 q 618 1338 583 1338 q 680 1326 653 1338 q 724 1296 706 1315 q 750 1252 741 1276 q 760 1202 760 1227 q 750 1152 760 1176 q 724 1108 741 1127 q 680 1077 706 1088 q 618 1065 653 1065 z "},"Ź":{"ha":1024,"x_min":57,"x_max":681,"o":"m 665 959 l 665 738 l 382 217 l 656 217 l 656 0 l 57 0 l 57 215 l 385 738 l 66 738 l 66 959 l 665 959 m 312 1054 l 377 1484 l 681 1484 l 507 1054 l 312 1054 z "},"ź":{"ha":814,"x_min":57,"x_max":703,"o":"m 400 184 l 663 184 q 650 96 654 141 q 646 0 646 51 l 57 0 l 57 184 l 315 564 l 57 564 l 74 732 l 646 732 l 646 560 l 400 184 m 334 827 l 399 1257 l 703 1257 l 529 827 l 334 827 z "},"Ż":{"ha":1024,"x_min":57,"x_max":665,"o":"m 665 959 l 665 738 l 382 217 l 656 217 l 656 0 l 57 0 l 57 215 l 385 738 l 66 738 l 66 959 l 665 959 m 312 1042 q 229 1055 264 1042 q 171 1090 194 1068 q 136 1140 147 1112 q 124 1198 124 1168 q 136 1258 124 1228 q 172 1311 149 1287 q 231 1348 196 1334 q 313 1362 267 1362 q 394 1348 359 1362 q 453 1311 429 1334 q 490 1258 477 1287 q 502 1198 502 1229 q 490 1140 502 1168 q 455 1090 479 1112 q 396 1055 431 1068 q 312 1042 360 1042 z "},"ż":{"ha":724,"x_min":57,"x_max":663,"o":"m 400 184 l 663 184 q 650 96 654 141 q 646 0 646 51 l 57 0 l 57 184 l 315 564 l 57 564 l 74 732 l 646 732 l 646 560 l 400 184 m 329 818 q 246 831 281 818 q 188 866 211 844 q 153 916 164 888 q 141 974 141 944 q 153 1034 141 1004 q 189 1087 165 1063 q 248 1124 213 1110 q 330 1139 283 1139 q 411 1124 376 1139 q 470 1087 446 1110 q 507 1034 494 1063 q 519 975 519 1005 q 507 917 519 945 q 472 866 496 888 q 413 831 448 844 q 329 818 377 818 z "},"Ž":{"ha":996,"x_min":57,"x_max":692,"o":"m 665 959 l 665 738 l 382 217 l 656 217 l 656 0 l 57 0 l 57 215 l 385 738 l 66 738 l 66 959 l 665 959 m 214 1060 l 83 1429 l 279 1429 l 388 1171 l 496 1429 l 692 1429 l 562 1060 l 214 1060 z "},"ž":{"ha":798,"x_min":57,"x_max":703,"o":"m 400 184 l 663 184 q 650 96 654 141 q 646 0 646 51 l 57 0 l 57 184 l 315 564 l 57 564 l 74 732 l 646 732 l 646 560 l 400 184 m 224 846 l 94 1215 l 290 1215 l 398 957 l 507 1215 l 703 1215 l 572 846 l 224 846 z "},"ƒ":{"ha":745,"x_min":4,"x_max":697,"o":"m 468 22 q 443 -130 468 -68 q 378 -228 418 -191 q 285 -281 337 -265 q 178 -297 233 -297 q 84 -288 130 -297 q 4 -262 39 -278 q 5 -247 4 -261 q 8 -212 6 -233 q 11 -167 9 -191 q 15 -122 13 -143 q 17 -87 16 -101 q 18 -71 18 -73 q 90 -86 61 -86 q 142 -76 121 -86 q 175 -48 163 -65 q 192 -8 187 -31 q 197 39 197 14 l 197 568 l 97 568 l 97 753 l 197 753 l 197 882 q 221 1026 197 968 q 286 1120 246 1084 q 378 1171 326 1156 q 483 1186 429 1186 l 488 1186 q 601 1174 547 1186 q 697 1145 654 1162 q 696 1129 697 1143 q 693 1094 695 1115 q 690 1049 692 1073 q 687 1004 688 1025 q 684 969 685 983 q 683 954 683 955 q 621 969 648 964 q 571 975 593 975 q 514 961 534 975 q 483 924 493 947 q 470 871 473 901 q 468 810 468 842 l 468 753 l 677 753 q 666 671 671 716 q 661 568 661 626 l 468 568 l 468 22 z "},"Ȁ":{"ha":946,"x_min":7,"x_max":939,"o":"m 939 0 l 577 0 l 532 204 l 294 204 l 252 0 l 7 0 l 251 959 l 675 959 l 939 0 m 416 810 l 323 363 l 517 363 l 437 810 l 416 810 m 572 1069 l 420 1438 l 681 1438 l 681 1069 l 572 1069 m 269 1069 l 117 1438 l 377 1438 l 377 1069 l 269 1069 z "},"ȁ":{"ha":924,"x_min":62,"x_max":833,"o":"m 282 -20 q 199 -7 239 -20 q 129 30 159 5 q 80 93 98 55 q 62 184 62 132 q 79 271 62 234 q 122 334 95 308 q 187 378 150 361 q 265 405 224 395 q 350 419 307 415 q 435 422 394 422 q 490 421 464 422 q 540 418 517 420 q 524 489 538 460 q 484 533 509 517 q 427 557 460 550 q 359 564 395 564 q 291 559 326 564 q 222 548 256 555 q 159 534 189 542 q 106 521 129 527 l 106 711 q 177 725 139 718 q 257 738 216 732 q 341 747 298 743 q 427 750 385 750 q 529 744 479 750 q 625 722 580 737 q 708 682 670 707 q 774 620 747 657 q 817 533 802 583 q 833 417 833 483 l 833 0 l 553 0 l 553 121 q 508 62 537 88 q 442 18 479 36 q 364 -10 406 -1 q 282 -20 323 -20 m 397 140 q 440 150 416 140 q 487 182 465 161 q 525 237 509 204 q 540 317 540 271 l 517 317 q 451 310 485 317 q 388 290 416 303 q 341 256 359 276 q 323 211 323 237 q 330 177 323 191 q 347 155 336 163 q 371 143 357 146 q 397 140 384 140 m 635 846 l 484 1215 l 744 1215 l 744 846 l 635 846 m 332 846 l 180 1215 l 440 1215 l 440 846 l 332 846 z "},"Ȃ":{"ha":946,"x_min":7,"x_max":939,"o":"m 939 0 l 577 0 l 532 204 l 294 204 l 252 0 l 7 0 l 251 959 l 675 959 l 939 0 m 416 810 l 323 363 l 517 363 l 437 810 l 416 810 m 581 1067 q 572 1105 581 1090 q 547 1130 562 1121 q 512 1143 532 1139 q 473 1147 493 1147 q 433 1143 452 1147 q 398 1130 413 1139 q 373 1105 382 1121 q 364 1067 364 1090 l 220 1067 q 239 1173 220 1128 q 290 1246 257 1217 q 369 1288 323 1274 q 473 1301 416 1301 q 568 1288 522 1301 q 649 1246 614 1274 q 704 1173 684 1217 q 725 1067 725 1128 l 581 1067 z "},"ȃ":{"ha":924,"x_min":62,"x_max":833,"o":"m 282 -20 q 199 -7 239 -20 q 129 30 159 5 q 80 93 98 55 q 62 184 62 132 q 79 271 62 234 q 122 334 95 308 q 187 378 150 361 q 265 405 224 395 q 350 419 307 415 q 435 422 394 422 q 490 421 464 422 q 540 418 517 420 q 524 489 538 460 q 484 533 509 517 q 427 557 460 550 q 359 564 395 564 q 291 559 326 564 q 222 548 256 555 q 159 534 189 542 q 106 521 129 527 l 106 711 q 177 725 139 718 q 257 738 216 732 q 341 747 298 743 q 427 750 385 750 q 529 744 479 750 q 625 722 580 737 q 708 682 670 707 q 774 620 747 657 q 817 533 802 583 q 833 417 833 483 l 833 0 l 553 0 l 553 121 q 508 62 537 88 q 442 18 479 36 q 364 -10 406 -1 q 282 -20 323 -20 m 397 140 q 440 150 416 140 q 487 182 465 161 q 525 237 509 204 q 540 317 540 271 l 517 317 q 451 310 485 317 q 388 290 416 303 q 341 256 359 276 q 323 211 323 237 q 330 177 323 191 q 347 155 336 163 q 371 143 357 146 q 397 140 384 140 m 570 814 q 561 852 570 837 q 536 877 551 868 q 502 890 521 886 q 462 895 482 895 q 422 890 441 895 q 387 877 402 886 q 362 852 372 868 q 353 814 353 837 l 210 814 q 228 920 210 876 q 279 993 246 964 q 358 1035 312 1021 q 462 1048 405 1048 q 557 1035 511 1048 q 638 993 603 1021 q 693 920 673 964 q 714 814 714 876 l 570 814 z "},"Ȅ":{"ha":895,"x_min":116,"x_max":789,"o":"m 116 959 l 789 959 l 789 781 l 420 781 l 420 578 l 745 578 l 745 405 l 420 405 l 420 195 l 789 195 l 789 0 l 116 0 l 116 959 m 593 1069 l 441 1438 l 702 1438 l 702 1069 l 593 1069 m 290 1069 l 138 1438 l 398 1438 l 398 1069 l 290 1069 z "},"ȅ":{"ha":880,"x_min":54,"x_max":806,"o":"m 784 29 q 646 -6 720 8 q 492 -20 572 -20 q 326 3 405 -20 q 186 75 246 26 q 90 199 125 124 q 54 378 54 274 q 73 487 54 437 q 122 579 91 538 q 196 652 154 621 q 287 706 239 684 q 387 739 336 728 q 488 750 439 750 q 626 733 566 750 q 725 686 686 715 q 785 618 765 657 q 806 536 806 580 q 788 446 806 484 q 740 384 770 409 q 670 343 709 358 q 586 321 630 329 q 496 311 542 313 q 409 309 450 309 q 381 310 395 309 q 355 310 368 310 q 377 245 361 271 q 417 202 393 218 q 472 178 441 185 q 540 171 504 171 q 598 175 567 171 q 660 186 629 179 q 723 202 692 193 q 784 222 755 212 l 784 29 m 349 414 q 391 416 366 415 q 445 421 416 418 q 502 431 473 425 q 553 446 530 437 q 591 470 576 456 q 605 505 605 484 q 577 560 605 539 q 501 581 550 581 q 453 574 479 581 q 405 549 427 568 q 367 498 382 531 q 349 414 351 466 m 613 846 l 461 1215 l 722 1215 l 722 846 l 613 846 m 309 846 l 157 1215 l 418 1215 l 418 846 l 309 846 z "},"Ȇ":{"ha":895,"x_min":116,"x_max":789,"o":"m 116 959 l 789 959 l 789 781 l 420 781 l 420 578 l 745 578 l 745 405 l 420 405 l 420 195 l 789 195 l 789 0 l 116 0 l 116 959 m 555 1067 q 546 1105 555 1090 q 521 1130 536 1121 q 487 1143 506 1139 q 447 1147 467 1147 q 407 1143 427 1147 q 372 1130 387 1139 q 348 1105 357 1121 q 338 1067 338 1090 l 195 1067 q 213 1173 195 1128 q 264 1246 231 1217 q 343 1288 297 1274 q 447 1301 390 1301 q 542 1288 496 1301 q 623 1246 588 1274 q 679 1173 658 1217 q 699 1067 699 1128 l 555 1067 z "},"ȇ":{"ha":880,"x_min":54,"x_max":806,"o":"m 784 29 q 646 -6 720 8 q 492 -20 572 -20 q 326 3 405 -20 q 186 75 246 26 q 90 199 125 124 q 54 378 54 274 q 73 487 54 437 q 122 579 91 538 q 196 652 154 621 q 287 706 239 684 q 387 739 336 728 q 488 750 439 750 q 626 733 566 750 q 725 686 686 715 q 785 618 765 657 q 806 536 806 580 q 788 446 806 484 q 740 384 770 409 q 670 343 709 358 q 586 321 630 329 q 496 311 542 313 q 409 309 450 309 q 381 310 395 309 q 355 310 368 310 q 377 245 361 271 q 417 202 393 218 q 472 178 441 185 q 540 171 504 171 q 598 175 567 171 q 660 186 629 179 q 723 202 692 193 q 784 222 755 212 l 784 29 m 349 414 q 391 416 366 415 q 445 421 416 418 q 502 431 473 425 q 553 446 530 437 q 591 470 576 456 q 605 505 605 484 q 577 560 605 539 q 501 581 550 581 q 453 574 479 581 q 405 549 427 568 q 367 498 382 531 q 349 414 351 466 m 601 814 q 591 852 601 837 q 567 877 582 868 q 532 890 551 886 q 492 895 513 895 q 452 890 472 895 q 417 877 433 886 q 393 852 402 868 q 384 814 384 837 l 240 814 q 258 920 240 876 q 310 993 277 964 q 389 1035 342 1021 q 492 1048 435 1048 q 588 1035 542 1048 q 668 993 633 1021 q 724 920 703 964 q 745 814 745 876 l 601 814 z "},"Ȉ":{"ha":536,"x_min":-28,"x_max":536,"o":"m 116 959 l 420 959 l 420 0 l 116 0 l 116 959 m 428 1069 l 276 1438 l 536 1438 l 536 1069 l 428 1069 m 124 1069 l -28 1438 l 233 1438 l 233 1069 l 124 1069 z "},"ȉ":{"ha":454,"x_min":-54,"x_max":511,"o":"m 110 732 l 403 732 l 403 0 l 110 0 l 110 732 m 402 846 l 250 1215 l 511 1215 l 511 846 l 402 846 m 98 846 l -54 1215 l 207 1215 l 207 846 l 98 846 z "},"Ȋ":{"ha":536,"x_min":17,"x_max":522,"o":"m 116 959 l 420 959 l 420 0 l 116 0 l 116 959 m 378 1067 q 368 1105 378 1090 q 343 1130 359 1121 q 309 1143 328 1139 q 269 1147 290 1147 q 229 1143 249 1147 q 194 1130 210 1139 q 170 1105 179 1121 q 161 1067 161 1090 l 17 1067 q 35 1173 17 1128 q 86 1246 54 1217 q 166 1288 119 1274 q 269 1301 212 1301 q 365 1288 319 1301 q 445 1246 410 1274 q 501 1173 480 1217 q 522 1067 522 1128 l 378 1067 z "},"ȋ":{"ha":516,"x_min":7,"x_max":512,"o":"m 110 732 l 403 732 l 403 0 l 110 0 l 110 732 m 368 814 q 359 852 368 837 q 334 877 349 868 q 299 890 319 886 q 260 895 280 895 q 220 890 239 895 q 185 877 200 886 q 160 852 170 868 q 151 814 151 837 l 7 814 q 26 920 7 876 q 77 993 44 964 q 156 1035 110 1021 q 260 1048 203 1048 q 355 1035 309 1048 q 436 993 401 1021 q 491 920 471 964 q 512 814 512 876 l 368 814 z "},"Ȍ":{"ha":1080,"x_min":62,"x_max":1017,"o":"m 539 -20 q 380 0 450 -20 q 257 53 311 19 q 167 135 204 87 q 107 237 130 182 q 73 353 83 292 q 62 477 62 414 q 75 601 62 540 q 114 718 88 663 q 179 821 140 774 q 271 903 218 869 q 391 958 324 938 q 539 977 458 977 q 687 958 621 977 q 807 903 754 938 q 900 821 861 869 q 965 718 939 774 q 1004 601 991 663 q 1017 477 1017 540 q 1006 353 1017 414 q 972 237 996 292 q 911 135 949 182 q 821 53 874 87 q 698 0 768 19 q 539 -20 628 -20 m 366 477 q 378 338 366 396 q 412 244 390 281 q 466 191 434 208 q 539 174 498 174 q 612 191 580 174 q 667 244 644 208 q 702 338 690 281 q 713 477 713 396 q 702 617 713 559 q 667 712 690 675 q 612 766 644 749 q 539 784 580 784 q 466 766 498 784 q 412 712 434 749 q 378 617 390 675 q 366 477 366 559 m 667 1069 l 515 1438 l 775 1438 l 775 1069 l 667 1069 m 363 1069 l 211 1438 l 471 1438 l 471 1069 l 363 1069 z "},"ȍ":{"ha":955,"x_min":54,"x_max":901,"o":"m 477 -20 q 335 -5 397 -20 q 226 37 273 10 q 146 99 179 63 q 93 178 113 136 q 63 269 73 221 q 54 365 54 316 q 63 460 54 413 q 93 550 73 507 q 146 630 113 593 q 225 693 178 666 q 335 735 273 720 q 477 750 397 750 q 620 735 557 750 q 729 693 682 720 q 809 630 777 666 q 862 550 842 593 q 891 460 882 507 q 901 365 901 413 q 891 269 901 316 q 862 178 882 221 q 809 99 842 136 q 729 37 776 63 q 620 -5 682 10 q 477 -20 557 -20 m 347 365 q 354 293 347 328 q 376 231 361 258 q 416 187 391 203 q 477 170 441 170 q 539 187 514 170 q 579 231 564 203 q 601 293 594 258 q 608 365 608 328 q 601 436 608 401 q 579 499 594 471 q 539 543 564 526 q 477 560 514 560 q 416 543 441 560 q 376 499 391 526 q 354 436 361 471 q 347 365 347 401 m 651 846 l 499 1215 l 760 1215 l 760 846 l 651 846 m 347 846 l 195 1215 l 456 1215 l 456 846 l 347 846 z "},"Ȏ":{"ha":1080,"x_min":62,"x_max":1017,"o":"m 539 -20 q 380 0 450 -20 q 257 53 311 19 q 167 135 204 87 q 107 237 130 182 q 73 353 83 292 q 62 477 62 414 q 75 601 62 540 q 114 718 88 663 q 179 821 140 774 q 271 903 218 869 q 391 958 324 938 q 539 977 458 977 q 687 958 621 977 q 807 903 754 938 q 900 821 861 869 q 965 718 939 774 q 1004 601 991 663 q 1017 477 1017 540 q 1006 353 1017 414 q 972 237 996 292 q 911 135 949 182 q 821 53 874 87 q 698 0 768 19 q 539 -20 628 -20 m 366 477 q 378 338 366 396 q 412 244 390 281 q 466 191 434 208 q 539 174 498 174 q 612 191 580 174 q 667 244 644 208 q 702 338 690 281 q 713 477 713 396 q 702 617 713 559 q 667 712 690 675 q 612 766 644 749 q 539 784 580 784 q 466 766 498 784 q 412 712 434 749 q 378 617 390 675 q 366 477 366 559 m 648 1067 q 639 1105 648 1090 q 614 1130 629 1121 q 579 1143 599 1139 q 540 1147 560 1147 q 500 1143 519 1147 q 465 1130 480 1139 q 440 1105 450 1121 q 431 1067 431 1090 l 288 1067 q 306 1173 288 1128 q 357 1246 324 1217 q 436 1288 390 1274 q 540 1301 483 1301 q 635 1288 589 1301 q 716 1246 681 1274 q 771 1173 751 1217 q 792 1067 792 1128 l 648 1067 z "},"ȏ":{"ha":955,"x_min":54,"x_max":901,"o":"m 477 -20 q 335 -5 397 -20 q 226 37 273 10 q 146 99 179 63 q 93 178 113 136 q 63 269 73 221 q 54 365 54 316 q 63 460 54 413 q 93 550 73 507 q 146 630 113 593 q 225 693 178 666 q 335 735 273 720 q 477 750 397 750 q 620 735 557 750 q 729 693 682 720 q 809 630 777 666 q 862 550 842 593 q 891 460 882 507 q 901 365 901 413 q 891 269 901 316 q 862 178 882 221 q 809 99 842 136 q 729 37 776 63 q 620 -5 682 10 q 477 -20 557 -20 m 347 365 q 354 293 347 328 q 376 231 361 258 q 416 187 391 203 q 477 170 441 170 q 539 187 514 170 q 579 231 564 203 q 601 293 594 258 q 608 365 608 328 q 601 436 608 401 q 579 499 594 471 q 539 543 564 526 q 477 560 514 560 q 416 543 441 560 q 376 499 391 526 q 354 436 361 471 q 347 365 347 401 m 586 814 q 576 852 586 837 q 552 877 567 868 q 517 890 536 886 q 477 895 498 895 q 437 890 457 895 q 402 877 418 886 q 378 852 387 868 q 369 814 369 837 l 225 814 q 243 920 225 876 q 295 993 262 964 q 374 1035 328 1021 q 477 1048 420 1048 q 573 1035 527 1048 q 653 993 618 1021 q 709 920 688 964 q 730 814 730 876 l 586 814 z "},"Ȑ":{"ha":987,"x_min":115,"x_max":962,"o":"m 115 959 l 547 959 q 727 932 649 959 q 857 862 805 905 q 935 763 909 818 q 962 651 962 707 q 953 564 962 607 q 922 483 944 521 q 860 413 899 444 q 761 363 821 382 q 791 293 770 335 q 840 202 812 251 q 899 101 867 153 q 962 0 931 49 l 614 0 q 555 148 585 66 q 506 326 524 229 l 419 326 l 419 0 l 115 0 l 115 959 m 471 477 q 558 491 522 477 q 616 526 593 505 q 648 575 638 548 q 658 629 658 602 q 643 717 658 683 q 602 770 628 751 q 543 796 576 789 q 470 803 509 803 l 419 803 l 419 477 l 471 477 m 612 1069 l 460 1438 l 721 1438 l 721 1069 l 612 1069 m 309 1069 l 157 1438 l 417 1438 l 417 1069 l 309 1069 z "},"ȑ":{"ha":712,"x_min":75,"x_max":694,"o":"m 106 732 l 385 732 q 382 693 383 714 q 382 648 382 671 q 382 601 382 625 q 382 555 382 577 q 417 624 395 589 q 468 686 439 659 q 535 732 498 714 q 620 750 573 750 q 639 749 629 750 q 660 746 650 748 q 679 741 670 744 q 694 734 688 738 l 671 454 q 606 472 640 466 q 547 477 572 477 q 487 469 513 477 q 442 447 460 460 q 413 417 424 433 q 399 385 403 401 l 399 0 l 106 0 l 106 732 m 531 846 l 379 1215 l 640 1215 l 640 846 l 531 846 m 227 846 l 75 1215 l 336 1215 l 336 846 l 227 846 z "},"Ȓ":{"ha":987,"x_min":115,"x_max":962,"o":"m 115 959 l 547 959 q 727 932 649 959 q 857 862 805 905 q 935 763 909 818 q 962 651 962 707 q 953 564 962 607 q 922 483 944 521 q 860 413 899 444 q 761 363 821 382 q 791 293 770 335 q 840 202 812 251 q 899 101 867 153 q 962 0 931 49 l 614 0 q 555 148 585 66 q 506 326 524 229 l 419 326 l 419 0 l 115 0 l 115 959 m 471 477 q 558 491 522 477 q 616 526 593 505 q 648 575 638 548 q 658 629 658 602 q 643 717 658 683 q 602 770 628 751 q 543 796 576 789 q 470 803 509 803 l 419 803 l 419 477 l 471 477 m 602 1067 q 593 1105 602 1090 q 568 1130 583 1121 q 533 1143 553 1139 q 494 1147 514 1147 q 454 1143 473 1147 q 419 1130 434 1139 q 394 1105 404 1121 q 385 1067 385 1090 l 241 1067 q 260 1173 241 1128 q 311 1246 278 1217 q 390 1288 344 1274 q 494 1301 437 1301 q 589 1288 543 1301 q 670 1246 635 1274 q 725 1173 705 1217 q 746 1067 746 1128 l 602 1067 z "},"ȓ":{"ha":712,"x_min":105,"x_max":694,"o":"m 106 732 l 385 732 q 382 693 383 714 q 382 648 382 671 q 382 601 382 625 q 382 555 382 577 q 417 624 395 589 q 468 686 439 659 q 535 732 498 714 q 620 750 573 750 q 639 749 629 750 q 660 746 650 748 q 679 741 670 744 q 694 734 688 738 l 671 454 q 606 472 640 466 q 547 477 572 477 q 487 469 513 477 q 442 447 460 460 q 413 417 424 433 q 399 385 403 401 l 399 0 l 106 0 l 106 732 m 466 814 q 456 852 466 837 q 432 877 447 868 q 397 890 416 886 q 357 895 378 895 q 317 890 337 895 q 282 877 298 886 q 258 852 267 868 q 249 814 249 837 l 105 814 q 123 920 105 876 q 175 993 142 964 q 254 1035 208 1021 q 357 1048 300 1048 q 453 1035 407 1048 q 533 993 498 1021 q 589 920 568 964 q 610 814 610 876 l 466 814 z "},"Ȕ":{"ha":1071,"x_min":115,"x_max":955,"o":"m 549 -20 q 368 10 448 -20 q 231 99 288 39 q 145 248 175 158 q 115 457 115 337 l 115 959 l 419 959 l 419 456 q 426 336 419 389 q 449 248 433 284 q 492 193 465 212 q 560 174 519 174 q 632 193 605 174 q 675 248 660 212 q 696 336 690 284 q 701 456 701 389 l 701 959 l 955 959 l 955 457 q 931 247 955 336 q 858 98 907 157 q 731 9 808 39 q 549 -20 655 -20 m 657 1069 l 505 1438 l 766 1438 l 766 1069 l 657 1069 m 353 1069 l 201 1438 l 462 1438 l 462 1069 l 353 1069 z "},"ȕ":{"ha":1029,"x_min":98,"x_max":923,"o":"m 923 0 l 631 0 l 637 47 q 642 96 640 68 q 645 152 644 123 q 594 80 625 112 q 526 26 563 49 q 446 -8 488 4 q 361 -20 404 -20 q 261 -2 309 -20 q 177 53 214 15 q 120 150 141 90 q 98 293 98 209 l 98 732 l 391 732 l 391 320 q 399 250 391 278 q 420 203 407 221 q 452 178 434 186 q 489 170 469 170 q 535 180 512 170 q 578 205 559 189 q 611 244 597 222 q 630 291 625 266 l 630 732 l 923 732 l 923 0 m 688 846 l 536 1215 l 796 1215 l 796 846 l 688 846 m 384 846 l 232 1215 l 492 1215 l 492 846 l 384 846 z "},"Ȗ":{"ha":1071,"x_min":115,"x_max":955,"o":"m 549 -20 q 368 10 448 -20 q 231 99 288 39 q 145 248 175 158 q 115 457 115 337 l 115 959 l 419 959 l 419 456 q 426 336 419 389 q 449 248 433 284 q 492 193 465 212 q 560 174 519 174 q 632 193 605 174 q 675 248 660 212 q 696 336 690 284 q 701 456 701 389 l 701 959 l 955 959 l 955 457 q 931 247 955 336 q 858 98 907 157 q 731 9 808 39 q 549 -20 655 -20 m 644 1067 q 634 1105 644 1090 q 609 1130 625 1121 q 575 1143 594 1139 q 535 1147 555 1147 q 495 1143 515 1147 q 460 1130 475 1139 q 436 1105 445 1121 q 427 1067 427 1090 l 283 1067 q 301 1173 283 1128 q 352 1246 319 1217 q 432 1288 385 1274 q 535 1301 478 1301 q 630 1288 585 1301 q 711 1246 676 1274 q 767 1173 746 1217 q 787 1067 787 1128 l 644 1067 z "},"ȗ":{"ha":1029,"x_min":98,"x_max":923,"o":"m 923 0 l 631 0 l 637 47 q 642 96 640 68 q 645 152 644 123 q 594 80 625 112 q 526 26 563 49 q 446 -8 488 4 q 361 -20 404 -20 q 261 -2 309 -20 q 177 53 214 15 q 120 150 141 90 q 98 293 98 209 l 98 732 l 391 732 l 391 320 q 399 250 391 278 q 420 203 407 221 q 452 178 434 186 q 489 170 469 170 q 535 180 512 170 q 578 205 559 189 q 611 244 597 222 q 630 291 625 266 l 630 732 l 923 732 l 923 0 m 623 814 q 613 852 623 837 q 588 877 604 868 q 554 890 573 886 q 514 895 534 895 q 474 890 494 895 q 439 877 454 886 q 415 852 424 868 q 406 814 406 837 l 262 814 q 280 920 262 876 q 331 993 298 964 q 411 1035 364 1021 q 514 1048 457 1048 q 609 1035 564 1048 q 690 993 655 1021 q 746 920 725 964 q 766 814 766 876 l 623 814 z "},"Ș":{"ha":1158,"x_min":0,"x_max":0,"o":""},"ș":{"ha":1158,"x_min":0,"x_max":0,"o":""},"Ț":{"ha":757,"x_min":7,"x_max":749,"o":"m 224 0 l 224 738 l 7 738 l 7 959 l 749 959 l 749 738 l 528 738 l 528 0 l 224 0 m 397 -456 q 319 -481 352 -481 q 270 -469 292 -481 q 230 -438 247 -458 q 203 -393 213 -419 q 194 -340 194 -368 q 205 -282 194 -311 q 239 -230 216 -253 q 296 -192 262 -206 q 376 -177 330 -177 q 516 -232 469 -177 q 563 -393 563 -288 q 538 -533 563 -478 q 472 -620 513 -589 q 382 -664 432 -652 q 281 -676 332 -676 l 216 -676 l 216 -546 q 315 -541 279 -546 q 370 -524 351 -535 q 392 -496 388 -513 q 397 -456 397 -479 z "},"ț":{"ha":714,"x_min":17,"x_max":685,"o":"m 470 -20 q 349 -4 407 -20 q 248 47 292 11 q 178 143 204 83 q 152 293 152 203 l 152 564 l 17 564 l 17 608 l 336 955 l 445 955 l 445 732 l 662 732 q 647 650 654 691 q 640 564 641 608 l 445 564 l 445 296 q 449 249 445 271 q 464 209 452 226 q 497 181 475 191 q 555 170 519 170 q 606 175 578 170 q 669 191 633 179 l 685 16 q 587 -10 642 0 q 470 -20 532 -20 m 375 -456 q 297 -481 330 -481 q 248 -469 271 -481 q 208 -438 225 -458 q 182 -393 191 -419 q 172 -340 172 -368 q 183 -282 172 -311 q 217 -230 195 -253 q 274 -192 240 -206 q 355 -177 309 -177 q 494 -232 448 -177 q 541 -393 541 -288 q 516 -533 541 -478 q 451 -620 491 -589 q 360 -664 410 -652 q 259 -676 310 -676 l 194 -676 l 194 -546 q 293 -541 257 -546 q 348 -524 330 -535 q 371 -496 366 -513 q 375 -456 375 -479 z "},"ȷ":{"ha":527,"x_min":-56,"x_max":421,"o":"m 139 -282 q 36 -279 85 -282 q -56 -260 -14 -276 l -56 -66 q -24 -76 -37 -72 q 0 -82 -11 -80 q 20 -86 11 -85 q 41 -87 30 -87 q 87 -76 70 -87 q 114 -46 104 -64 q 125 -4 123 -28 q 128 45 128 20 l 128 732 l 421 732 l 421 30 q 398 -120 421 -60 q 337 -216 376 -180 q 247 -267 298 -252 q 139 -282 196 -282 z "},"ˆ":{"ha":777,"x_min":83,"x_max":694,"o":"m 490 846 l 389 1119 l 287 846 l 83 846 l 219 1215 l 558 1215 l 694 846 l 490 846 z "},"ˇ":{"ha":776,"x_min":83,"x_max":692,"o":"m 214 846 l 83 1215 l 279 1215 l 388 957 l 496 1215 l 692 1215 l 562 846 l 214 846 z "},"˘":{"ha":722,"x_min":109,"x_max":613,"o":"m 613 1042 q 592 935 613 979 q 537 863 572 891 q 456 821 502 834 q 361 808 410 808 q 257 821 304 808 q 178 863 211 834 q 127 935 145 891 q 109 1042 109 979 l 252 1042 q 261 1003 252 1019 q 286 978 271 987 q 321 965 301 969 q 361 961 340 961 q 400 965 381 961 q 435 978 420 969 q 460 1003 450 987 q 469 1042 469 1019 l 613 1042 z "},"˙":{"ha":647,"x_min":155,"x_max":532,"o":"m 342 0 q 260 13 295 0 q 201 48 224 26 q 166 98 178 71 q 155 156 155 126 q 167 216 155 186 q 203 269 179 245 q 262 307 227 292 q 343 321 297 321 q 425 307 389 321 q 484 269 460 292 q 520 216 508 245 q 532 157 532 187 q 521 99 532 127 q 486 48 509 71 q 426 13 462 26 q 342 0 391 0 z "},"˚":{"ha":581,"x_min":140,"x_max":444,"o":"m 227 955 q 244 908 227 926 q 292 890 262 890 q 340 908 323 890 q 357 955 357 926 q 340 1002 357 983 q 292 1020 323 1020 q 244 1002 262 1020 q 227 955 227 983 m 140 955 q 150 1004 140 980 q 179 1045 160 1027 q 227 1074 199 1063 q 292 1085 256 1085 q 357 1074 329 1085 q 405 1045 386 1063 q 434 1004 425 1027 q 444 955 444 980 q 434 906 444 929 q 405 864 425 882 q 357 836 386 846 q 292 825 329 825 q 227 836 256 825 q 179 864 199 846 q 150 906 160 882 q 140 955 140 929 z "},"˛":{"ha":656,"x_min":210,"x_max":611,"o":"m 535 -456 q 402 -436 462 -456 q 299 -382 342 -416 q 233 -306 256 -349 q 210 -217 210 -263 q 227 -116 210 -159 q 273 -41 243 -73 q 341 10 302 -10 q 425 43 380 31 q 517 60 469 55 q 611 64 565 64 l 611 0 q 559 -16 587 -5 q 506 -45 530 -26 q 465 -95 481 -64 q 448 -174 448 -126 q 456 -209 448 -193 q 475 -237 463 -225 q 503 -254 488 -248 q 535 -260 519 -260 l 535 -456 z "},"˜":{"ha":920,"x_min":102,"x_max":818,"o":"m 584 844 q 516 859 551 844 q 448 892 482 874 q 381 925 414 910 q 317 940 348 940 q 280 918 295 940 q 261 848 265 897 l 102 882 q 135 992 113 945 q 184 1072 156 1040 q 244 1120 212 1104 q 311 1137 277 1137 q 385 1122 347 1137 q 459 1089 422 1107 q 531 1056 496 1071 q 600 1041 567 1041 q 639 1063 623 1041 q 659 1133 654 1084 l 818 1099 q 781 989 804 1036 q 726 909 757 941 q 658 861 694 877 q 584 844 622 844 z "},"˝":{"ha":777,"x_min":118,"x_max":682,"o":"m 118 846 l 118 1215 l 378 1215 l 227 846 l 118 846 m 422 846 l 422 1215 l 682 1215 l 530 846 l 422 846 z "},"̇":{"ha":647,"x_min":140,"x_max":517,"o":"m 328 0 q 245 13 280 0 q 186 48 210 26 q 151 98 163 71 q 140 156 140 126 q 152 216 140 186 q 188 269 164 245 q 247 307 212 292 q 328 321 282 321 q 410 307 374 321 q 469 269 445 292 q 505 216 493 245 q 517 157 517 187 q 506 99 517 127 q 471 48 494 71 q 411 13 447 26 q 328 0 376 0 z "},"̏":{"ha":801,"x_min":118,"x_max":682,"o":"m 574 846 l 422 1215 l 682 1215 l 682 846 l 574 846 m 270 846 l 118 1215 l 378 1215 l 378 846 l 270 846 z "},"̑":{"ha":722,"x_min":109,"x_max":613,"o":"m 469 814 q 460 852 469 837 q 435 877 450 868 q 400 890 420 886 q 361 895 381 895 q 321 890 340 895 q 286 877 301 886 q 261 852 271 868 q 252 814 252 837 l 109 814 q 127 920 109 876 q 178 993 145 964 q 257 1035 211 1021 q 361 1048 304 1048 q 456 1035 410 1048 q 537 993 502 1021 q 592 920 572 964 q 613 814 613 876 l 469 814 z "},"̦":{"ha":564,"x_min":66,"x_max":435,"o":"m 269 -456 q 191 -481 224 -481 q 142 -469 165 -481 q 102 -438 119 -458 q 76 -393 85 -419 q 66 -340 66 -368 q 78 -282 66 -311 q 112 -230 89 -253 q 169 -192 134 -206 q 249 -177 203 -177 q 389 -232 342 -177 q 435 -393 435 -288 q 410 -533 435 -478 q 345 -620 385 -589 q 254 -664 304 -652 q 153 -676 204 -676 l 88 -676 l 88 -546 q 188 -541 151 -546 q 242 -524 224 -535 q 265 -496 260 -513 q 269 -456 269 -479 z "},"Ω":{"ha":1114,"x_min":0,"x_max":0,"o":""},"π":{"ha":892,"x_min":33,"x_max":858,"o":"m 33 732 l 858 732 l 858 0 l 568 0 l 568 536 l 294 536 l 294 0 l 33 0 l 33 732 z "},"–":{"ha":543,"x_min":0,"x_max":543,"o":"m 543 564 l 543 347 l 0 347 l 0 564 l 543 564 z "},"—":{"ha":1389,"x_min":0,"x_max":673,"o":"m 673 564 l 673 347 l 0 347 l 0 564 l 673 564 z "},"‘":{"ha":576,"x_min":129,"x_max":498,"o":"m 302 694 q 311 655 302 671 q 340 628 320 639 q 394 613 361 618 q 476 608 427 608 l 476 477 l 411 477 q 310 490 360 477 q 219 533 260 502 q 154 620 179 565 q 129 761 129 675 q 176 921 129 866 q 315 977 222 977 q 396 962 361 977 q 453 924 430 947 q 487 871 475 901 q 498 814 498 842 q 488 760 498 786 q 462 715 479 734 q 422 684 445 696 q 373 673 399 673 q 302 694 338 673 z "},"’":{"ha":507,"x_min":79,"x_max":448,"o":"m 275 760 q 266 799 275 783 q 237 826 257 815 q 183 841 216 836 q 101 846 150 846 l 101 977 l 166 977 q 267 964 217 977 q 358 921 317 952 q 423 834 398 889 q 448 693 448 779 q 401 533 448 588 q 262 477 355 477 q 181 492 216 477 q 124 530 147 507 q 91 583 102 553 q 79 640 79 612 q 89 694 79 668 q 115 739 98 720 q 155 770 132 758 q 204 781 178 781 q 275 760 239 781 z "},"‚":{"ha":505,"x_min":90,"x_max":307,"o":"m 90 66 l 307 66 l 267 -358 l 131 -358 l 90 66 z "},"“":{"ha":888,"x_min":129,"x_max":910,"o":"m 715 694 q 724 655 715 671 q 753 628 732 639 q 806 613 773 618 q 888 608 840 608 l 888 477 l 823 477 q 722 490 772 477 q 632 533 672 502 q 566 620 591 565 q 541 761 541 675 q 588 921 541 866 q 728 977 635 977 q 808 962 774 977 q 865 924 842 947 q 899 871 888 901 q 910 814 910 842 q 901 760 910 786 q 874 715 891 734 q 834 684 857 696 q 785 673 812 673 q 715 694 751 673 m 302 694 q 311 655 302 671 q 340 628 320 639 q 394 613 361 618 q 476 608 427 608 l 476 477 l 411 477 q 310 490 360 477 q 219 533 260 502 q 154 620 179 565 q 129 761 129 675 q 176 921 129 866 q 315 977 222 977 q 396 962 361 977 q 453 924 430 947 q 487 871 475 901 q 498 814 498 842 q 488 760 498 786 q 462 715 479 734 q 422 684 445 696 q 373 673 399 673 q 302 694 338 673 z "},"”":{"ha":888,"x_min":115,"x_max":918,"o":"m 745 760 q 736 799 745 783 q 707 826 727 815 q 653 841 686 836 q 571 846 620 846 l 571 977 l 636 977 q 737 964 687 977 q 828 921 787 952 q 893 834 868 889 q 918 693 918 779 q 871 533 918 588 q 732 477 825 477 q 651 492 686 477 q 594 530 617 507 q 561 583 572 553 q 549 640 549 612 q 559 694 549 668 q 585 739 568 720 q 625 770 602 758 q 674 781 648 781 q 745 760 709 781 m 311 760 q 302 799 311 783 q 273 826 293 815 q 219 841 252 836 q 137 846 186 846 l 137 977 l 202 977 q 303 964 253 977 q 394 921 353 952 q 459 834 434 889 q 484 693 484 779 q 437 533 484 588 q 298 477 391 477 q 217 492 252 477 q 160 530 183 507 q 126 583 138 553 q 115 640 115 612 q 125 694 115 668 q 151 739 134 720 q 191 770 168 758 q 240 781 214 781 q 311 760 275 781 z "},"„":{"ha":676,"x_min":90,"x_max":589,"o":"m 372 68 l 589 68 l 549 -357 l 413 -357 l 372 68 m 90 68 l 307 68 l 267 -357 l 131 -357 l 90 68 z "},"†":{"ha":609,"x_min":33,"x_max":576,"o":"m 33 610 l 33 784 l 169 784 l 169 959 l 440 959 l 440 784 l 576 784 l 576 610 l 440 610 l 440 0 l 169 0 l 169 610 l 33 610 z "},"‡":{"ha":606,"x_min":32,"x_max":574,"o":"m 32 217 l 32 391 l 168 391 l 168 577 l 32 577 l 32 751 l 168 751 l 168 959 l 439 959 l 439 751 l 574 751 l 574 577 l 439 577 l 439 391 l 574 391 l 574 217 l 439 217 l 439 0 l 168 0 l 168 217 l 32 217 z "},"•":{"ha":850,"x_min":180,"x_max":578,"o":"m 380 203 q 292 221 330 203 q 230 266 255 238 q 193 330 205 294 q 180 404 180 366 q 193 479 180 443 q 231 545 205 516 q 293 592 256 574 q 380 610 330 610 q 466 592 429 610 q 528 546 503 574 q 566 480 553 517 q 578 405 578 443 q 566 331 578 367 q 529 266 554 294 q 467 221 504 238 q 380 203 429 203 z "},"…":{"ha":1470,"x_min":100,"x_max":1371,"o":"m 1183 -18 q 1101 -5 1136 -18 q 1042 29 1065 7 q 1008 78 1019 50 q 996 134 996 105 q 1008 192 996 163 q 1044 244 1021 221 q 1102 280 1067 267 q 1183 294 1137 294 q 1264 280 1229 294 q 1323 244 1299 267 q 1358 192 1346 221 q 1371 134 1371 163 q 1359 78 1371 105 q 1324 29 1348 50 q 1265 -5 1301 7 q 1183 -18 1230 -18 m 286 -18 q 204 -5 239 -18 q 146 29 169 7 q 111 78 123 50 q 100 134 100 105 q 112 192 100 163 q 148 244 124 221 q 206 280 171 267 q 287 294 241 294 q 368 280 332 294 q 426 244 403 267 q 462 192 450 221 q 474 134 474 163 q 463 78 474 105 q 428 29 451 50 q 369 -5 404 7 q 286 -18 334 -18 m 739 -18 q 657 -5 692 -18 q 599 29 622 7 q 564 78 576 50 q 553 134 553 105 q 565 192 553 163 q 601 244 577 221 q 659 280 624 267 q 740 294 694 294 q 821 280 785 294 q 879 244 856 267 q 915 192 903 221 q 927 134 927 163 q 916 78 927 105 q 881 29 904 50 q 822 -5 857 7 q 739 -18 787 -18 z "},"‰":{"ha":2656,"x_min":40,"x_max":2627,"o":"m 384 193 q 270 209 320 193 q 181 252 219 224 q 116 317 142 279 q 72 399 89 355 q 48 491 56 443 q 40 589 40 540 q 47 685 40 637 q 72 776 55 733 q 115 856 89 819 q 180 920 142 893 q 269 962 218 947 q 384 977 319 977 q 546 944 480 977 q 652 856 612 911 q 710 732 692 802 q 728 589 728 662 q 720 491 728 540 q 695 399 712 443 q 652 317 679 355 q 587 252 625 279 q 498 209 549 224 q 384 193 448 193 m 384 354 q 433 374 412 354 q 468 427 454 394 q 489 502 481 460 q 496 588 496 544 q 489 673 496 631 q 468 748 481 715 q 433 801 454 781 q 384 821 412 821 q 335 801 356 821 q 300 748 314 781 q 278 673 286 715 q 271 588 271 631 q 278 502 271 544 q 299 427 286 460 q 334 374 313 394 q 384 354 355 354 m 1527 -20 q 1413 -4 1463 -20 q 1324 39 1362 12 q 1259 104 1286 66 q 1216 186 1232 142 q 1191 278 1199 230 q 1183 376 1183 327 q 1191 473 1183 425 q 1215 563 1198 520 q 1259 643 1232 606 q 1323 707 1285 680 q 1412 749 1362 734 q 1527 764 1463 764 q 1689 731 1624 764 q 1795 643 1755 698 q 1853 519 1836 589 q 1871 376 1871 449 q 1863 278 1871 327 q 1839 186 1855 230 q 1795 104 1822 142 q 1730 39 1769 66 q 1642 -4 1692 12 q 1527 -20 1591 -20 m 1527 141 q 1576 161 1555 141 q 1611 214 1597 181 q 1632 289 1625 247 q 1639 375 1639 331 q 1632 460 1639 418 q 1611 535 1625 503 q 1576 588 1597 568 q 1527 608 1555 608 q 1478 588 1499 608 q 1443 535 1457 568 q 1422 460 1429 503 q 1415 375 1415 418 q 1422 289 1415 331 q 1443 214 1429 247 q 1478 161 1457 181 q 1527 141 1499 141 m 1274 977 l 918 0 l 635 0 l 974 977 l 1274 977 m 2283 -20 q 2169 -4 2219 -20 q 2080 39 2119 12 q 2015 104 2042 66 q 1972 186 1988 142 q 1947 278 1955 230 q 1940 376 1940 327 q 1947 473 1940 425 q 1971 563 1954 520 q 2015 643 1988 606 q 2080 707 2041 680 q 2168 749 2118 734 q 2283 764 2219 764 q 2445 731 2380 764 q 2552 643 2511 698 q 2610 519 2592 589 q 2627 376 2627 449 q 2619 278 2627 327 q 2595 186 2612 230 q 2552 104 2578 142 q 2487 39 2525 66 q 2398 -4 2448 12 q 2283 -20 2347 -20 m 2283 141 q 2332 161 2311 141 q 2367 214 2353 181 q 2388 289 2381 247 q 2395 375 2395 331 q 2388 460 2395 418 q 2367 535 2381 503 q 2332 588 2353 568 q 2283 608 2311 608 q 2235 588 2256 608 q 2199 535 2214 568 q 2178 460 2185 503 q 2171 375 2171 418 q 2178 289 2171 331 q 2199 214 2185 247 q 2234 161 2213 181 q 2283 141 2255 141 z "},"‹":{"ha":550,"x_min":97,"x_max":504,"o":"m 504 136 l 97 407 l 97 610 l 504 882 l 504 610 l 281 509 l 504 407 l 504 136 z "},"›":{"ha":550,"x_min":118,"x_max":525,"o":"m 118 407 l 340 509 l 118 610 l 118 882 l 525 610 l 525 407 l 118 136 l 118 407 z "},"⁄":{"ha":367,"x_min":-136,"x_max":503,"o":"m 503 977 l 147 0 l -136 0 l 203 977 l 503 977 z "},"⁴":{"ha":964,"x_min":98,"x_max":857,"o":"m 739 507 l 857 507 l 857 345 l 739 345 l 739 207 l 439 207 l 439 345 l 98 345 l 98 507 l 334 959 l 739 959 l 739 507 m 463 810 l 300 507 l 479 507 l 479 810 l 463 810 z "},"€":{"ha":956,"x_min":-29,"x_max":886,"o":"m 538 436 l 538 317 l 401 317 q 433 271 414 292 q 512 215 466 234 q 618 195 559 195 q 726 212 667 195 q 844 260 784 228 l 886 43 q 733 -6 810 7 q 583 -20 656 -20 q 430 0 503 -20 q 295 56 357 19 q 184 147 233 93 q 104 269 135 201 q 94 293 98 281 q 85 317 90 304 l -29 317 l -29 436 l 64 436 q 63 456 63 446 q 62 477 62 467 l 62 500 l -29 500 l -29 619 l 80 619 q 104 686 89 653 q 183 809 134 755 q 294 901 232 863 q 430 957 357 938 q 583 977 503 977 q 733 962 656 977 q 886 911 810 948 l 844 694 q 726 743 784 727 q 618 760 667 760 q 512 740 559 760 q 433 684 466 721 q 392 619 408 656 l 538 619 l 538 500 l 367 500 q 366 489 366 495 q 366 477 366 483 q 367 456 366 467 q 368 436 367 446 l 538 436 z "},"™":{"ha":1457,"x_min":110,"x_max":1331,"o":"m 245 399 l 245 820 l 110 820 l 110 960 l 585 960 l 585 820 l 449 820 l 449 399 l 245 399 m 652 960 l 846 960 l 996 707 l 1156 960 l 1331 960 l 1331 399 l 1127 399 l 1127 661 l 987 422 l 944 422 l 788 661 l 788 399 l 652 399 l 652 960 z "},"∂":{"ha":892,"x_min":37,"x_max":854,"o":"m 151 716 q 149 770 150 739 q 145 838 147 798 q 142 933 144 878 q 277 966 201 955 q 437 977 353 977 q 587 962 523 977 q 697 920 651 947 q 774 853 743 892 q 822 767 804 814 q 847 664 840 719 q 854 548 854 608 q 848 402 854 473 q 822 268 841 331 q 770 152 803 205 q 685 60 737 98 q 558 0 633 21 q 384 -22 484 -22 q 215 2 281 -22 q 109 66 148 26 q 53 156 69 105 q 37 259 37 206 q 63 399 37 338 q 134 502 90 460 q 236 565 178 543 q 360 586 295 586 q 412 584 385 586 q 468 576 439 581 q 523 562 496 570 q 574 543 550 554 q 575 558 575 551 q 575 573 575 566 q 562 665 575 629 q 527 722 549 701 q 475 751 505 743 q 414 760 446 760 q 320 754 363 760 q 243 742 277 749 q 186 727 210 734 q 151 716 163 720 m 415 412 q 353 401 379 412 q 310 372 327 390 q 286 331 294 354 q 277 285 277 309 q 284 243 277 263 q 305 208 292 223 q 339 183 319 193 q 387 174 360 174 q 461 180 430 174 q 515 212 493 187 q 549 283 536 236 q 566 412 562 331 l 415 412 z "},"∆":{"ha":932,"x_min":0,"x_max":932,"o":"m 932 0 l 0 0 l 244 959 l 669 959 l 932 0 m 441 814 l 329 203 l 579 203 l 463 814 l 441 814 z "},"∏":{"ha":952,"x_min":92,"x_max":857,"o":"m 92 959 l 857 959 l 857 0 l 564 0 l 564 760 l 395 760 l 395 0 l 92 0 l 92 959 z "},"∑":{"ha":726,"x_min":26,"x_max":699,"o":"m 330 494 l 26 783 l 26 959 l 699 959 l 699 785 l 330 785 l 657 520 l 657 463 l 330 195 l 699 195 l 699 0 l 26 0 l 26 193 l 330 494 z "},"−":{"ha":810,"x_min":134,"x_max":676,"o":"m 676 574 l 676 359 l 134 359 l 134 574 l 676 574 z "},"√":{"ha":935,"x_min":47,"x_max":937,"o":"m 652 0 l 281 0 l 47 498 l 296 498 l 438 184 l 608 959 l 937 959 l 652 0 z "},"∞":{"ha":1135,"x_min":119,"x_max":1015,"o":"m 528 581 q 586 660 557 627 q 645 714 614 693 q 708 744 675 734 q 778 754 741 754 q 871 736 827 754 q 946 684 914 718 q 997 601 979 650 q 1015 490 1015 551 q 997 379 1015 428 q 947 295 979 330 q 872 243 916 261 q 778 224 829 224 q 709 234 741 224 q 646 264 676 243 q 586 318 615 286 q 528 397 557 351 q 477 341 505 366 q 421 300 450 317 q 362 275 392 283 q 306 267 333 267 q 233 282 267 267 q 174 327 199 298 q 134 397 149 355 q 119 490 119 438 q 134 582 119 541 q 174 652 149 623 q 233 696 199 681 q 306 711 267 711 q 362 703 333 711 q 421 677 392 694 q 478 636 450 661 q 528 581 505 612 m 609 491 q 689 384 667 402 q 767 353 724 353 q 813 364 793 353 q 847 394 833 375 q 867 438 861 413 q 874 492 874 464 q 866 549 874 524 q 843 592 857 574 q 810 618 829 609 q 769 627 791 627 q 735 622 751 627 q 700 604 719 618 q 660 563 682 589 q 609 491 637 536 m 450 492 q 321 588 382 588 q 292 582 306 588 q 268 563 278 575 q 251 533 257 551 q 245 493 245 515 q 267 421 245 446 q 321 395 289 395 q 384 420 355 395 q 450 492 414 446 z "},"∫":{"ha":755,"x_min":32,"x_max":725,"o":"m 224 882 q 249 1026 224 968 q 314 1120 274 1084 q 406 1171 354 1156 q 511 1186 457 1186 l 515 1186 q 629 1174 575 1186 q 725 1145 682 1162 q 724 1129 725 1143 q 721 1094 723 1115 q 718 1049 720 1073 q 714 1004 716 1025 q 712 969 713 983 q 711 954 711 955 q 648 969 676 964 q 599 975 621 975 q 542 961 562 975 q 511 924 521 947 q 498 871 500 901 q 496 810 496 842 l 496 22 q 471 -130 496 -68 q 406 -228 446 -191 q 313 -281 365 -265 q 205 -297 260 -297 q 112 -288 158 -297 q 32 -262 66 -278 q 33 -247 32 -261 q 36 -212 34 -233 q 39 -167 37 -191 q 42 -122 41 -143 q 45 -87 44 -101 q 46 -71 46 -73 q 117 -86 89 -86 q 170 -76 149 -86 q 203 -48 191 -65 q 220 -8 215 -31 q 224 39 224 14 l 224 882 z "},"≈":{"ha":1135,"x_min":134,"x_max":1001,"o":"m 696 567 q 645 576 670 567 q 594 601 619 586 q 544 632 568 615 q 494 663 519 648 q 446 687 470 677 q 398 696 422 696 q 330 674 359 696 q 290 606 301 652 l 134 662 q 192 778 158 729 q 265 859 225 827 q 349 907 304 891 q 441 922 394 922 q 493 913 467 922 q 544 889 519 903 q 594 858 570 874 q 644 826 619 841 q 692 802 668 812 q 739 793 715 793 q 805 809 778 793 q 844 863 833 826 l 1001 806 q 944 700 977 745 q 872 625 911 654 q 788 581 832 595 q 696 567 743 567 m 696 174 q 645 184 670 174 q 594 208 619 193 q 544 239 568 222 q 494 270 519 256 q 446 294 470 285 q 398 304 422 304 q 330 282 359 304 q 290 213 301 260 l 134 269 q 192 385 158 336 q 265 466 225 434 q 349 514 304 498 q 441 530 394 530 q 493 520 467 530 q 544 496 519 511 q 594 465 570 481 q 644 434 619 448 q 692 410 668 419 q 739 400 715 400 q 805 417 778 400 q 844 470 833 433 l 1001 414 q 944 307 977 352 q 872 232 911 262 q 788 189 832 203 q 696 174 743 174 z "},"≠":{"ha":838,"x_min":134,"x_max":704,"o":"m 704 621 l 704 456 l 529 456 l 492 352 l 704 352 l 704 178 l 431 178 l 369 0 l 207 0 l 268 178 l 134 178 l 134 352 l 328 352 l 363 456 l 134 456 l 134 621 l 422 621 l 467 751 l 635 751 l 590 621 l 704 621 z "},"≤":{"ha":745,"x_min":134,"x_max":611,"o":"m 611 175 l 611 -3 l 134 -3 l 134 175 l 611 175 m 134 694 l 611 868 l 611 651 l 264 564 l 611 477 l 611 260 l 134 434 l 134 694 z "},"≥":{"ha":738,"x_min":134,"x_max":604,"o":"m 604 175 l 604 0 l 134 0 l 134 175 l 604 175 m 604 434 l 134 260 l 134 477 l 481 564 l 134 651 l 134 868 l 604 694 l 604 434 z "},"◊":{"ha":710,"x_min":4,"x_max":706,"o":"m 302 476 l 384 138 l 457 476 l 384 814 l 302 476 m 4 476 l 171 952 l 542 952 l 706 476 l 542 0 l 171 0 l 4 476 z "},"ﬀ":{"ha":1217,"x_min":25,"x_max":1238,"o":"m 435 0 l 142 0 l 142 561 l 25 561 l 25 732 l 140 732 q 163 877 140 815 q 227 981 185 939 q 327 1043 268 1022 q 458 1063 385 1063 q 569 1050 518 1063 q 663 1020 620 1038 l 641 846 q 575 862 602 855 q 525 868 549 868 q 476 857 494 868 q 449 826 458 845 q 437 782 439 807 q 435 732 435 758 l 716 732 q 739 877 716 815 q 802 981 761 939 q 902 1043 844 1022 q 1034 1063 961 1063 q 1145 1050 1094 1063 q 1238 1020 1196 1038 l 1217 846 q 1151 862 1177 855 q 1101 868 1125 868 q 1052 857 1069 868 q 1024 826 1034 845 q 1013 782 1015 807 q 1010 732 1010 758 l 1215 732 q 1200 646 1206 687 q 1195 561 1195 604 l 1010 561 l 1010 0 l 718 0 l 718 561 l 435 561 l 435 0 z "},"ﬁ":{"ha":1166,"x_min":25,"x_max":1095,"o":"m 435 0 l 142 0 l 142 561 l 25 561 l 25 732 l 140 732 q 163 877 140 815 q 227 981 185 939 q 327 1043 268 1022 q 458 1063 385 1063 q 569 1050 518 1063 q 663 1020 620 1038 l 641 846 q 575 862 602 855 q 525 868 549 868 q 476 857 494 868 q 449 826 458 845 q 437 782 439 807 q 435 732 435 758 l 1053 732 l 1053 0 l 760 0 l 760 561 l 435 561 l 435 0 m 907 882 q 835 890 869 882 q 776 913 801 899 q 737 947 751 927 q 722 992 722 968 q 736 1040 722 1019 q 776 1074 751 1061 q 835 1095 801 1088 q 908 1101 869 1101 q 982 1095 947 1101 q 1041 1074 1016 1088 q 1080 1040 1066 1061 q 1095 992 1095 1019 q 1080 947 1095 968 q 1040 913 1065 927 q 981 890 1015 899 q 907 882 947 882 z "},"ﬂ":{"ha":1155,"x_min":25,"x_max":1049,"o":"m 756 1042 l 1049 1042 l 1049 0 l 756 0 l 756 561 l 435 561 l 435 0 l 142 0 l 142 561 l 25 561 l 25 732 l 140 732 q 163 877 140 815 q 227 981 185 939 q 327 1043 268 1022 q 458 1063 385 1063 q 569 1050 518 1063 q 663 1020 620 1038 l 641 846 q 575 862 602 855 q 525 868 549 868 q 476 857 494 868 q 449 826 458 845 q 437 782 439 807 q 435 732 435 758 l 756 732 l 756 1042 z "},"ﬃ":{"ha":1676,"x_min":25,"x_max":1628,"o":"m 435 0 l 142 0 l 142 561 l 25 561 l 25 732 l 140 732 q 163 877 140 815 q 227 981 185 939 q 327 1043 268 1022 q 458 1063 385 1063 q 569 1050 518 1063 q 663 1020 620 1038 l 641 846 q 575 862 602 855 q 525 868 549 868 q 476 857 494 868 q 449 826 458 845 q 437 782 439 807 q 435 732 435 758 l 696 732 q 719 877 696 815 q 783 981 741 939 q 883 1043 824 1022 q 1015 1063 941 1063 q 1125 1050 1074 1063 q 1219 1020 1176 1038 l 1197 846 q 1132 862 1158 855 q 1081 868 1105 868 q 1032 857 1050 868 q 1005 826 1014 845 q 993 782 996 807 q 991 732 991 758 l 1587 732 l 1587 0 l 1294 0 l 1294 561 l 991 561 l 991 0 l 698 0 l 698 561 l 435 561 l 435 0 m 1441 882 q 1369 890 1402 882 q 1310 913 1335 899 q 1271 947 1285 927 q 1256 992 1256 968 q 1270 1040 1256 1019 q 1310 1074 1284 1061 q 1369 1095 1335 1088 q 1442 1101 1402 1101 q 1515 1095 1481 1101 q 1575 1074 1550 1088 q 1614 1040 1600 1061 q 1628 992 1628 1019 q 1614 947 1628 968 q 1574 913 1599 927 q 1515 890 1549 899 q 1441 882 1480 882 z "},"ﬄ":{"ha":1684,"x_min":25,"x_max":1595,"o":"m 1302 1042 l 1595 1042 l 1595 0 l 1302 0 l 1302 561 l 991 561 l 991 0 l 698 0 l 698 561 l 435 561 l 435 0 l 142 0 l 142 561 l 25 561 l 25 732 l 140 732 q 163 877 140 815 q 227 981 185 939 q 327 1043 268 1022 q 458 1063 385 1063 q 569 1050 518 1063 q 663 1020 620 1038 l 641 846 q 575 862 602 855 q 525 868 549 868 q 476 857 494 868 q 449 826 458 845 q 437 782 439 807 q 435 732 435 758 l 696 732 q 719 877 696 815 q 783 981 741 939 q 883 1043 824 1022 q 1015 1063 941 1063 q 1125 1050 1074 1063 q 1219 1020 1176 1038 l 1197 846 q 1132 862 1158 855 q 1081 868 1105 868 q 1032 857 1050 868 q 1005 826 1014 845 q 993 782 996 807 q 991 732 991 758 l 1302 732 l 1302 1042 z "},"ﬆ":{"ha":0,"x_min":0,"x_max":0,"o":""}}}
